<svg xmlns="http://www.w3.org/2000/svg" viewBox="0 0 634.94 150.94"><defs><style>.cls-1{fill:#1d1d1b;}.cls-2{fill:#e0121b;}.cls-3{fill:#fff;}</style></defs><title>empaquessyr_1</title><g id="Capa_2" data-name="Capa 2"><g id="Capa_1-2" data-name="Capa 1"><path class="cls-1" d="M580.24,81.64a12.93,12.93,0,0,1-7-2,13.35,13.35,0,0,1-6.09-9.31,25.73,25.73,0,0,1-.4-4.64v-48a31,31,0,0,1,.38-4.81v-.06a12.6,12.6,0,0,1,9.93-10.56,16.29,16.29,0,0,1,4.11-.56c3.25.05,6.59,0,9.84,0a195.13,195.13,0,0,1,20.09.44,24.52,24.52,0,0,1,22.81,26.11,24.27,24.27,0,0,1-1.74,7.56,21.27,21.27,0,0,1-8.65,10.58,63.91,63.91,0,0,1,10.14,17.23c2.51,6,1.21,11.5-3.58,15.21a14.12,14.12,0,0,1-16.38.36l-.14-.1a20.19,20.19,0,0,1-5.17-5.84c-1.54-2.47-3-4.9-4.54-7.33-2-3.27-4-6.66-6.16-9.94a6.46,6.46,0,0,0-3.58-3V67c-.12,10-6.78,13.18-9.64,14h-.06a14.58,14.58,0,0,1-4.2.62M581,39.05v3.48a8,8,0,0,1,1.32-1.75A9.12,9.12,0,0,1,581,39.05Zm13.18-10h2.34c3.38.06,6.31.11,8.87-.66a4.17,4.17,0,0,0,1-.4,4.37,4.37,0,0,0,.05-1c0-.23-.09-.82-1.31-1.07a25.49,25.49,0,0,0-5.31-.32h-5.6v3.47Z"/><path class="cls-1" d="M481.49,81.6h-.25c-6.18-.22-12.73-.91-18.85-4.48a27.35,27.35,0,0,1-13.52-17.67,14.22,14.22,0,0,1,.06-7.92,12.69,12.69,0,0,1,8.57-8.68,23.52,23.52,0,0,1-.8-34.45c5.6-5.47,14.52-8.53,24.51-8.4S500,3.44,505.4,9c4,4.13,6,8.8,6,13.88a13.34,13.34,0,0,1-6.31,11.36,22.54,22.54,0,0,1,9.13,17.81c.39,11.7-5,20.58-15.43,25.71-5.85,3-11.87,3.56-17,3.77Zm-8.24-31.24c.57,1.1,1,2.15,1.4,3,.24.55.46,1.08.68,1.55.77,1.66,2.7,2.24,4.19,2.42,3.4.45,6.53-.86,7.18-1.65a1.2,1.2,0,0,0,.35-.82,1.39,1.39,0,0,0-.66-.75,19.91,19.91,0,0,0-6.08-2l-1.14-.28h-.06l-1.69-.41c-1.38-.36-2.77-.7-4.17-1.08M477.05,24a25.27,25.27,0,0,0,4.64,1.47l.79.21,1.74.43,1.42.36c-.16-.29-.33-.56-.49-.8a6.16,6.16,0,0,0-4.34-2.1,7.9,7.9,0,0,0-3.76.45Z"/><path class="cls-1" d="M534.77,81.67A33.28,33.28,0,0,1,522,79a21.49,21.49,0,0,1-13.39-16.42,21.86,21.86,0,0,1,7.74-20.1c.48-.42,1-.82,1.48-1.19-.26-.48-.5-1-.74-1.49l-.05-.09c-4.06-8.95-.93-18.88,7.46-23.58a24.71,24.71,0,0,1,24.33-.44,17.91,17.91,0,0,1,9.66,13.25A17.6,17.6,0,0,1,557,39a12.19,12.19,0,0,1,3.64.77c5.52,2.08,8.19,7.23,7,13.42a26,26,0,0,1-2,6.08c.78.66,1.51,1.32,2.2,1.94l.07.06c4.65,4.2,5.52,10.26,2.19,15.12a11.56,11.56,0,0,1-15.68,3.35A41.75,41.75,0,0,1,550.44,77a29.13,29.13,0,0,1-15.67,4.7M537,32.05l-.73.31a2.36,2.36,0,0,0,.92,1,1.88,1.88,0,0,0,1.14-.52Zm0,0,1.33.79a2.67,2.67,0,0,0,.33-.92,4.8,4.8,0,0,0-.76-.24Zm-.86-.49a1.83,1.83,0,0,0,.08.73l.69-.28Zm0,0,.78.45.87-.35a5.09,5.09,0,0,0-1.65-.1"/><path class="cls-1" d="M89.2,80.66a11.82,11.82,0,0,1-10.91-7.32,10.54,10.54,0,0,1-.91-4.06C77,58,77,47.54,77.38,37.46A11.09,11.09,0,0,1,88.71,26.61h.14a11.67,11.67,0,0,1,7.3,2.43c5.49-2.66,13-4.39,20.38.79a20.33,20.33,0,0,1,7.84-3,22.09,22.09,0,0,1,11.95,1.4c6.54,2.58,10.52,8.22,10.92,15.47s.3,14.09.19,20.91v3.13c-.06,5.07-2.11,8.11-3.84,9.74a12.1,12.1,0,0,1-19.7-5.25,11.3,11.3,0,0,1-7.22,7.64,12.07,12.07,0,0,1-10-.65,11.77,11.77,0,0,1-5.7-7.54,11.58,11.58,0,0,1-8.16,8.47,11.91,11.91,0,0,1-3.56.54"/><path class="cls-1" d="M70.81,79.59H43.58c-9.27,0-14.2-4.87-14.2-14.1-.05-6.45-.05-13-.05-19.41V26.45C29.33,18,34.4,13,42.75,12.86c9.42,0,18.94,0,28.33,0,6,0,9,3,10.53,5.49a11.14,11.14,0,0,1-6.78,16.51l-.28.07A10.55,10.55,0,0,1,81.1,45c0,5.4-3.67,10.92-11.86,11H66.4c-4,0-8.11.07-12.17,0V57H71.64c8.65,0,12,5.68,12.35,10.56A10.67,10.67,0,0,1,75.88,79a17.38,17.38,0,0,1-5.07.59"/><path class="cls-1" d="M270.74,95.2h-.29a10.87,10.87,0,0,1-10.9-9.13,30.19,30.19,0,0,1-.49-6.08,26.52,26.52,0,0,1-5.62.63c-9.6,0-17.82-5.74-21.38-15.42a33.71,33.71,0,0,1-.4-22.17c2.74-8.52,8.61-14,17-15.79a21.84,21.84,0,0,1,15.11,1.7,11.43,11.43,0,0,1,6.8-2.31,11.25,11.25,0,0,1,11.34,8A16.14,16.14,0,0,1,282.6,40V81.14a22.13,22.13,0,0,1-.73,5.73V87a11.15,11.15,0,0,1-11.13,8.17M256.19,48.11h-.05c-.28,0-.72.12-1.09.88a9.49,9.49,0,0,0,.09,9.29,1.26,1.26,0,0,0,1.06.78,1.64,1.64,0,0,0,1.44-.9,6.44,6.44,0,0,0,1-3.81v-.49c.09-2.7-.39-3.85-.91-4.69A1.83,1.83,0,0,0,256.19,48.11Z"/><path class="cls-1" d="M153.82,95.29a10.74,10.74,0,0,1-11.15-9.49v-.12c0-.05,0-.3-.08-.45a15,15,0,0,1-.32-2.84V38.94c0-7.1,4.46-12.09,11.08-12.34a11.59,11.59,0,0,1,7.79,2.46,19.1,19.1,0,0,1,5.31-1.92c12.85-2.6,24.34,5.23,27.45,18.61a33.7,33.7,0,0,1-1.22,19.42,23,23,0,0,1-17.63,15,22.55,22.55,0,0,1-9.36-.25v.16a30,30,0,0,1-.59,6.34v.06a11.17,11.17,0,0,1-11.28,8.77m14.63-47.12c-.51,0-.93.15-1.6,1.34a8.17,8.17,0,0,0-.66,3.87v.17a7.82,7.82,0,0,0,.63,4.05c.83,1.44,1.28,1.41,1.9,1.38h.05c.43,0,.64,0,1.07-1a10.37,10.37,0,0,0,0-8.78c-.4-.93-.56-.94-1.13-1Z"/><path class="cls-1" d="M226.72,80.59A11.34,11.34,0,0,1,219,77.44,26,26,0,0,1,201,80a18,18,0,0,1-14.53-16.59,17.14,17.14,0,0,1,4.18-12.36c-2.45-3-3.14-7.09-1.66-11.44,2-6.09,6.74-10.14,14-12.22A38.07,38.07,0,0,1,221.25,27c9.69,2,14.84,8.41,15.33,18.9.07,1.86,0,3.67,0,5.43v2.46a1.4,1.4,0,0,1,0,.29c-.16,3.9-.13,8,1.14,11.65a10.77,10.77,0,0,1-5.07,13.18h-.07a11.57,11.57,0,0,1-5.86,1.7"/><path class="cls-1" d="M347.61,80.56a31.32,31.32,0,0,1-7.77-1A24.68,24.68,0,0,1,321,57.24a35,35,0,0,1,.86-12.45c3.49-13,15.53-20.55,29.29-18.44,12.3,1.91,20.55,10.73,21,22.49a13.8,13.8,0,0,1-2,8.68c1.71,2.74,2.29,6.61,0,11.15-2.89,5.52-8,9.2-15.13,11a30.73,30.73,0,0,1-7.39.93"/><path class="cls-1" d="M315.61,80.63a11.27,11.27,0,0,1-7.27-2.52,22.67,22.67,0,0,1-10,2.46c-11.61.22-19.69-7.27-20.06-18.66-.25-7.81-.15-15.71-.06-23.37.11-6.59,4.64-11.49,11-12a11.65,11.65,0,0,1,12.69,11.14v0c.18,3.16.18,6.3.18,9.33v5.64c0,1.87,0,3.64.15,5.4a2,2,0,0,0,.06.63,1.65,1.65,0,0,0,.64-1.09,25.11,25.11,0,0,0,.26-5.27V39c.2-6.21,3.57-10.72,9-12.1a11.76,11.76,0,0,1,14.1,7.56,16.57,16.57,0,0,1,.85,5.76V69c-.54,6.78-4.91,11.31-11.15,11.56Z"/><path class="cls-1" d="M388.41,80.62h-.16c-4.38-.1-10.14-.66-15.57-4.17a16.42,16.42,0,0,1-7.82-11.4,10.78,10.78,0,0,1,3.64-10.37,16,16,0,0,1-3.36-8.53,16.92,16.92,0,0,1,5.71-13.89,22.3,22.3,0,0,1,12.53-5.41,31.27,31.27,0,0,1,18.16,2.92,15.93,15.93,0,0,1,8.11,8.66c1.6,4.26,1,8.41-1.63,11.38a14.94,14.94,0,0,1,4.39,10.66c.08,7.26-3.22,13.18-9.29,16.6-4.87,2.87-10,3.35-14.38,3.59Z"/><path class="cls-1" d="M383.63,127.75a25.73,25.73,0,0,1-6.59-.85,21.3,21.3,0,0,1-16-16.58c-2.41-10.49,1.22-20.85,9-25.77a24.86,24.86,0,0,1,23.79-1.85,16.39,16.39,0,0,1,9,9.26,10.51,10.51,0,0,1-.18,8.51,12.84,12.84,0,0,1,2,7.33v2.52c0,3.34,0,6.79-2.15,9.89s-5.36,4.32-8.47,5.5a29.06,29.06,0,0,1-10.46,2"/><path class="cls-1" d="M475,127.66a9.17,9.17,0,0,1-4.49-1.14,16,16,0,0,1-2.63.8,16.28,16.28,0,0,1-18.25-9.93,23.76,23.76,0,0,1-.44-17,16.23,16.23,0,0,1,10.45-10.24,16.5,16.5,0,0,1,5.92-.76,5.09,5.09,0,0,1,.14-.87v-.16a9.47,9.47,0,0,1,9.8-7.72h.23a9.67,9.67,0,0,1,9.13,8.58,14.17,14.17,0,0,1,.11,2v26c0,5.63-3.36,9.73-8.56,10.43a9.46,9.46,0,0,1-1.41.11"/><path class="cls-1" d="M311.91,127.56a16.2,16.2,0,0,1-15-10.14,23.68,23.68,0,0,1-.46-17,16.41,16.41,0,0,1,16.28-11.06c.79-5.45,4.92-9,10.14-8.76,5.5.29,9.34,4.52,9.34,10.3v25.45a13.81,13.81,0,0,1-.88,5.4,9.41,9.41,0,0,1-7.73,5.79,10.12,10.12,0,0,1-5.8-1,14,14,0,0,1-2.44.73,16.61,16.61,0,0,1-3.45.33"/><path class="cls-1" d="M490.82,127.7a17,17,0,0,1-4.54-.62h-.06c-6.33-1.79-10.32-6.74-10.43-12.92a13.2,13.2,0,0,1,1.87-7.09c-1.38-2.67-1.57-6.21.92-10.23,3.76-6.08,10.24-7,13.35-7.33H492a25,25,0,0,1,8.74.74c5.85,1.44,9.7,6,10.34,12.28a29.36,29.36,0,0,1,.2,4.69v1.42a19.41,19.41,0,0,0,.54,6,9.47,9.47,0,0,1-4.87,12l-.08,0a9.55,9.55,0,0,1-9.29-.45,16.75,16.75,0,0,1-6.76,1.48"/><path class="cls-1" d="M528.52,127.7a17,17,0,0,1-4.53-.63h-.07c-6.35-1.82-10.3-6.85-10.3-13.12a13.06,13.06,0,0,1,1.89-6.86,9.14,9.14,0,0,1-.94-3,10.8,10.8,0,0,1,2.54-8.21c4.13-5.26,10.29-7.37,18.32-6.29h.05c3.43.49,7.73,1.51,10.63,5.07,2.66,3.29,3,7.27,3,11.07v3a17.29,17.29,0,0,0,.42,5.6,9.59,9.59,0,0,1-4.33,12l-.1.06a9.35,9.35,0,0,1-9.74-.18,17.21,17.21,0,0,1-6.89,1.49"/><path class="cls-1" d="M436.79,127.74a16.91,16.91,0,0,1-4.47-.61h-.07c-6.4-1.81-10.37-6.82-10.37-13.08a13.28,13.28,0,0,1,1.91-7c-1.31-2.58-1.52-5.94.69-9.81,3.58-6.36,10.14-7.28,13.28-7.73h.07a24.35,24.35,0,0,1,9.53.82c5.78,1.57,9.4,6.08,10,12.38v.2a35.26,35.26,0,0,1,0,3.85v2.7a16,16,0,0,0,.47,4.92c1.74,5.07-.23,10-4.9,12.26a9.36,9.36,0,0,1-9.18-.44,17,17,0,0,1-6.92,1.51"/><path class="cls-1" d="M566.88,127.75a16.76,16.76,0,0,1-4.51-.63c-6.59-1.8-10.62-6.91-10.52-13.34a13.08,13.08,0,0,1,1.88-6.7c-1.37-2.75-1.43-6.29.94-10.14,3.81-6.24,10.21-7,13.66-7.41a24.43,24.43,0,0,1,8.43.67c6.09,1.38,10,6.08,10.54,12.5a34.44,34.44,0,0,1,.05,4.19v1.92a18.42,18.42,0,0,0,.53,5.73,9.56,9.56,0,0,1-4.53,12l-.17.1a9.38,9.38,0,0,1-9.49-.31,16.83,16.83,0,0,1-6.81,1.42"/><path class="cls-1" d="M611.43,127.71a17.31,17.31,0,0,1-4.64-.63h-.12c-6.27-1.83-10.27-7-10.14-13.27a13.39,13.39,0,0,1,1.92-6.72c-1.43-2.86-1.44-6.55,1.2-10.51,4-6,10.31-6.65,13.72-7a23.74,23.74,0,0,1,7.74.66c6.25,1.29,10.3,6,10.88,12.55a35.39,35.39,0,0,1,0,4.12v1.91a18.29,18.29,0,0,0,.53,5.71,9.52,9.52,0,0,1-4.61,12h-.09a9.36,9.36,0,0,1-9.48-.29,17.14,17.14,0,0,1-6.91,1.46"/><path class="cls-1" d="M342.63,127.67c-10.71,0-17.82-5.71-19.52-15.67-1.68-9.6,3.11-18.42,11.65-21.45a19.36,19.36,0,0,1,16.84,1.76,16.56,16.56,0,0,1,7.64,12.52,13.64,13.64,0,0,1-.79,6.45c1,2.49.84,5.57-1.23,8.83l-.07.11c-4.38,6.61-11.55,7.23-13.91,7.43-.2,0-.4,0-.61,0"/><path class="cls-1" d="M410.88,127.67a14,14,0,0,1-14.36-13.57c0-.1,0-.2,0-.3-.2-3.89-.14-7.75-.09-11.48V99.66c0-5.77,4.05-10.06,9.62-10.2a9.84,9.84,0,0,1,7.87,3.43,9.85,9.85,0,0,1,7.62-3.44,9.67,9.67,0,0,1,9.87,9.45v.26c.05,2.43.05,4.89.05,7.27v10.79c0,5.82-3.8,10.06-9.26,10.35a9.82,9.82,0,0,1-5.13-1.09,13.67,13.67,0,0,1-2.56.76,19.24,19.24,0,0,1-3.62.43"/><path class="cls-1" d="M547.23,136.74a14.13,14.13,0,0,1-7.53-2.17,9.27,9.27,0,0,1-4.37-9.84,8.94,8.94,0,0,1,6-7V101.42c0-1,.06-1.86.11-2.66v-.35a9.77,9.77,0,0,1,10.14-9c5.55.14,9.55,4.24,9.7,10v.2c0,4,0,8.06,0,12.06V123a13.91,13.91,0,0,1-7.36,12,14.07,14.07,0,0,1-6.66,1.71"/><path class="cls-1" d="M512.87,127.74a9.31,9.31,0,0,1-6.2-2.33c-1.6-1.4-3.5-4.06-3.59-8.59V91.61c0-7.52,4.78-10.59,9.26-11a9.55,9.55,0,0,1,7.34,2.46,11.14,11.14,0,0,1,3.37,8.55v25c0,7.24-4.62,10.42-8.94,11H514a9.81,9.81,0,0,1-1.08.08"/><path class="cls-1" d="M589.62,127.68h-.4a9.67,9.67,0,0,1-9-7v-.15a11.65,11.65,0,0,1-.56-3.36V100.23a10.83,10.83,0,0,1,3-7.94,9.19,9.19,0,0,1,10.77-2q5.37-2.24,11.15,1c5.62,3.17,6.09,8.35,4.78,11.83a9.23,9.23,0,0,1-9.65,6.09v7.49a15.32,15.32,0,0,1-.55,3.87v.08a9.65,9.65,0,0,1-9.54,7.05"/><path class="cls-2" d="M315.94,139.21H623.78a14.64,14.64,0,0,1,4.12.34c2.8.83,4.27,2.65,4.27,5.5a5.26,5.26,0,0,1-4.22,5.53,11.31,11.31,0,0,1-3.38.35H7.56c-4.8,0-7.4-1.91-7.55-5.5-.14-3.23,1.38-5.29,4.56-6a17.67,17.67,0,0,1,3.63-.29q154,.08,307.74.05"/><path class="cls-3" d="M627.21,66.29c-3.63-8.73-8.43-16.59-16.63-22.38,1.32-.34,2.36-.58,3.24-.88,5.2-1.76,9.71-4.41,11.77-9.86,4.37-11.43-2.89-23-15.05-24-9.78-.88-19.58-.24-29.41-.4a10.47,10.47,0,0,0-2.41.4,5.42,5.42,0,0,0-4.51,4.8,24,24,0,0,0-.29,3.69V65.71a19.8,19.8,0,0,0,.29,3.44,6.09,6.09,0,0,0,6.68,5.43,6.64,6.64,0,0,0,1.51-.36c3-.93,4.57-3.23,4.61-7.26,0-6.53,0-13.1,0-19.63,0-1.37.35-2,1.78-1.76a11.55,11.55,0,0,0,2.2,0c5.59-.45,9.81,1.91,12.76,6.58,3.63,5.74,7.1,11.53,10.7,17.23a13.22,13.22,0,0,0,3.34,3.88,7.08,7.08,0,0,0,8-.15c2.23-1.67,2.72-3.68,1.39-6.82m-34.1-30.12c-1.91,0-4.46.83-5.64-.35s-.29-3.73-.34-5.64c0-3.29.1-6.52,0-9.82-.06-1.57.49-1.9,1.91-1.86,2.4.1,4.86,0,7.85,0s6.34-.25,9.76.49a8.31,8.31,0,0,1,7,7.71c.19,4.51-1.73,7.21-6.08,8.54C602.78,36.66,597.92,36.12,593.11,36.17Z"/><path class="cls-3" d="M481.49,74.48c-5.54-.19-10.85-.78-15.56-3.53a20.16,20.16,0,0,1-10.14-13.18,7.37,7.37,0,0,1,0-4.11,5.69,5.69,0,0,1,4.66-4.18,5.24,5.24,0,0,1,5.35,2.21c1.42,1.92,2.16,4.22,3.14,6.33,4.27,9.12,18.79,7.75,23.32,2.31a7.93,7.93,0,0,0-.7-11.19,8.29,8.29,0,0,0-1.22-.89c-2.85-1.86-6.18-2.5-9.42-3.28-5.45-1.38-11-2.56-15.89-5.44a16.47,16.47,0,0,1-3.34-26c8.92-8.74,30-8.45,38.61.49a12.69,12.69,0,0,1,4,8.93,6.09,6.09,0,0,1-4,5.84c-2.65.78-4.86-.05-6.47-2.56-.93-1.42-1.67-3-2.61-4.41-4-6.08-14.81-7.27-20.06-2.21-3.09,3-2.8,7.1.83,9.61,2.65,1.92,5.79,2.61,8.83,3.39a112.54,112.54,0,0,1,13.84,4.06c7.26,2.79,12.27,7.46,12.56,15.75q.44,13.25-11.49,19.08c-4.6,2.26-9.45,2.8-14.16,3"/><path class="cls-3" d="M563.16,66.58a50.13,50.13,0,0,0-4.51-3.73c-1.72-1.17-2.11-2.2-.89-4.05a19.07,19.07,0,0,0,2.9-7c.54-2.74-.29-4.56-2.5-5.39s-3.92-.1-5.3,2.55c-1,1.92-1.82,3.93-2.8,6.09-3.34-3.39-6.08-6.83-9-10.26A43.11,43.11,0,0,0,548,39.74c5.65-5.55,4.61-14-2.4-17.71a17.59,17.59,0,0,0-17.57.34c-5.24,2.94-7,8.93-4.46,14.43A20.75,20.75,0,0,0,526.8,42c1.18,1.28.79,1.81-.54,2.45a26,26,0,0,0-5.3,3.53c-8.68,7.41-6.81,20.22,3.73,24.54,8.74,3.57,17.13,2.69,24.64-3.34,1.12-.93,1.71-.93,2.79,0a45.42,45.42,0,0,0,6.08,4.61,4.46,4.46,0,0,0,6.08-1.27c1.3-2,.91-4.07-1.12-5.89m-31-37.37a5.41,5.41,0,0,1,4.46-2.89c3.29.05,5.21,1.08,6.09,3.29,1,2.4.24,4.47-1.62,6.18-4.36,4.06-5.59,3.93-8.59-1.27-.92-1.74-1.42-3.5-.34-5.31m11.16,34.16c-2.65,2.11-5.4,3.73-8.88,3.73a9.1,9.1,0,0,1-8.73-5.89c-1.28-3.49-.21-6.77,3.14-9.52a.55.55,0,0,1,.19-.15c3.29-2.6,3.29-2.6,6,.6a98.44,98.44,0,0,0,8.3,9c1,.86,1.06,1.36,0,2.19Z"/><path class="cls-3" d="M93.57,39c10.06-7.21,16.53-7.16,22.67.29,2.6-2.59,5.39-4.8,9.22-5.39a15.12,15.12,0,0,1,8.2.88c4.12,1.62,6.23,4.86,6.47,9.28.44,7.84.25,15.7.15,23.55,0,3.92-2,6-5.07,5.89s-4.91-2.36-5-6.08V47.56c-.19-4-1.66-6.09-4.41-6.38a7.25,7.25,0,0,0-7.71,5.45,30,30,0,0,0-.58,7.56c0,4.41,0,8.83,0,13.24,0,2.45-.54,4.76-3.24,5.74a4.61,4.61,0,0,1-6.1-2.34,4.67,4.67,0,0,1-.33-1,17.45,17.45,0,0,1-.34-3.88c0-6.23,0-12.41-.15-18.65,0-3.77-1.47-5.74-4.06-6.08-4-.49-6.63,1.08-7.81,4.66a27.73,27.73,0,0,0-1,8.74V67.34c0,3.47-1.18,5.25-3.63,6A4.74,4.74,0,0,1,85,70.57a3.49,3.49,0,0,1-.34-1.42c-.4-10.45-.45-20.91,0-31.36a4,4,0,0,1,4.37-4,4.36,4.36,0,0,1,4.61,4.11A2.74,2.74,0,0,0,93.57,39"/><path class="cls-3" d="M36.46,46.07V26.45c0-4.57,1.81-6.43,6.37-6.47H71.05c1.76,0,3.48.34,4.46,2a4,4,0,0,1-1.27,5.48,4.07,4.07,0,0,1-1.18.5,10.84,10.84,0,0,1-2.89.3c-7,0-13.89.09-20.86,0-2-.05-2.45.59-2.35,2.45a82.86,82.86,0,0,1,0,8.34c0,1.62.39,2,2,2,6.72-.1,13.39,0,20.11,0C72.39,41.11,74,42.48,74,45S72.39,48.9,69.1,49c-6.47,0-12.9.15-19.38-.05-2.25,0-2.89.59-2.79,2.8.19,3.44.14,6.87,0,10.3,0,1.68.35,2.21,2.11,2.21,7.5-.1,15.06,0,22.57,0,3.38,0,5.07,1.33,5.25,3.89a3.66,3.66,0,0,1-3,4.16,11.8,11.8,0,0,1-3.13.3H43.58c-5.41,0-7.1-1.72-7.1-7,0-6.46,0-13,0-19.42"/><path class="cls-3" d="M275.11,36.76a4.47,4.47,0,0,0-8.54.09c-.29.93-.38,1.91-.64,3.09-4.21-5.44-9.47-7.21-15.79-5.84-6.08,1.33-9.87,5.2-11.73,11a26.63,26.63,0,0,0,.31,17.58c3,8.11,10.44,12.17,18.74,10.3,3.24-.73,5.89-2.64,8.74-5.07V78.11a32.8,32.8,0,0,0,.34,6.57,3.81,3.81,0,0,0,4.06,3.44A4.06,4.06,0,0,0,275,85a15,15,0,0,0,.49-3.88V39.89a9.72,9.72,0,0,0-.35-3.13M263.58,62.1c-3.73,5.65-11.52,5.45-14.72-.44a16.56,16.56,0,0,1-.19-15.8c3.14-6.32,11.44-6.43,15.12-.39a14.87,14.87,0,0,1,1.95,8.63,13.52,13.52,0,0,1-2.16,8Z"/><path class="cls-3" d="M187,47.35c-2.21-9.66-10.14-15.06-19.09-13.25-3.83.79-6.48,3.19-9.13,6.08-.19-1.17-.29-2-.49-3a4.37,4.37,0,0,0-4.66-3.47c-2.66.09-4.22,1.9-4.22,5.25V82.43a21.33,21.33,0,0,0,.34,2.4c.34,2.41,1.82,3.39,4,3.39A4.05,4.05,0,0,0,158.14,85a23.33,23.33,0,0,0,.45-4.86v-13a15.78,15.78,0,0,1,1.22,1.23c7.35,8.64,22,6.08,26.2-5.59a26.63,26.63,0,0,0,1-15.45M176.39,60.74c-1.37,3.15-3.72,5.16-7.31,5.31-3.82.19-6.52-1.67-8.38-4.86a14.32,14.32,0,0,1-1.63-7.81A14.81,14.81,0,0,1,160.65,46c1.81-3.23,4.51-5.07,8.34-4.94a7.94,7.94,0,0,1,7.35,5.2,17.42,17.42,0,0,1,0,14.46"/><path class="cls-3" d="M230.91,68.05c-1.63-4.65-1.72-9.46-1.52-14.27,0-2.55.1-5.07,0-7.6-.35-7.21-3.2-10.89-9.67-12.27a30.84,30.84,0,0,0-14.82.29c-4.17,1.18-7.71,3.25-9.12,7.66-.94,2.69-.25,4.71,1.81,5.68,2.26,1.09,3.87.6,5.4-2.1,2.31-4.06,5.64-5.64,10.14-5.4,4.32.19,5.89,1.62,6.58,5.94.25,1.56-.1,2.16-1.67,2.5-5.55,1.18-11.15,2.36-16.63,3.88a10.29,10.29,0,0,0-7.8,10.6A11,11,0,0,0,202.54,73a19.42,19.42,0,0,0,14.89-2.94c2.9-1.81,2.85-1.76,5.15.88a9.8,9.8,0,0,0,1.18,1.23,4,4,0,0,0,5.15.64c1.85-1.08,2.72-2.66,2-4.77m-18.84-1.26a8.59,8.59,0,0,1-5.07-.15,5.08,5.08,0,0,1-3.63-4.72,4.47,4.47,0,0,1,3.19-4.7A28.48,28.48,0,0,1,211,55.94c2.85-.64,5.7-1.23,8.74-2,.69,7.36-1.76,11.49-7.64,12.82"/><path class="cls-3" d="M363.43,60.55c-1.77-1.42-3.63-1-5.25.59A25.21,25.21,0,0,1,353,65.2c-6.58,3.63-13.85,0-15.07-7.31-.3-1.78.2-2.26,2-2.16,2.94.14,5.89.05,9.46.05,3.15-.21,6.92.33,10.7-.31,4.12-.68,5.25-2.11,5.07-6.32-.34-8.3-6.13-14.38-15-15.75-10.2-1.57-18.79,3.77-21.35,13.24a28.59,28.59,0,0,0-.63,10c.74,8.11,5.78,14.08,13.54,16a24,24,0,0,0,11.63.1c4.37-1.08,8.29-3.09,10.5-7.31.77-1.6,1.31-3.52-.36-4.89M337.91,48.87a9.12,9.12,0,0,1,9.45-8.78,9.43,9.43,0,0,1,2.92.59,9.56,9.56,0,0,1,5.29,8.11c0,1.23-.68,1-1.37,1H339.29c-.73.11-1.47.35-1.42-.93Z"/><path class="cls-3" d="M310.79,67c-3.49,4.27-7.61,6.33-12.61,6.43-7.56.14-12.57-4.27-12.81-11.78s-.15-15.36-.05-23.06c.05-2.95,1.81-4.76,4.42-5a4.54,4.54,0,0,1,5,4,4.93,4.93,0,0,1,0,.55c.24,4.21.15,8.48.19,12.75.05,2.56.05,5.07.2,7.61.3,4.71,2.36,7.26,5.79,7.51a8.48,8.48,0,0,0,9-7c.63-3.09.33-6.18.38-9.27.1-3.53-.05-7,.05-10.55.1-3,1.33-4.81,3.68-5.4a4.63,4.63,0,0,1,5.65,3,10.23,10.23,0,0,1,.44,3.39V68.5c-.25,3.14-1.77,4.91-4.32,5s-4.27-1.43-4.76-4.52a9.31,9.31,0,0,1-.31-2"/><path class="cls-3" d="M388.41,73.51c-4.32-.1-8.29-.74-11.87-3a9.5,9.5,0,0,1-4.67-6.58,3.72,3.72,0,0,1,2.3-4.42A3.77,3.77,0,0,1,379,60.69c.54.74,1,1.53,1.47,2.27a10.4,10.4,0,0,0,12.46,3.38c1.52-.69,2.85-1.67,2.9-3.58a4.17,4.17,0,0,0-2.8-4.17c-2.9-1.32-6.08-1.82-9.12-2.8a29.39,29.39,0,0,1-7-2.89c-5.79-3.73-6.38-10.75-1.27-15.41a15.35,15.35,0,0,1,8.63-3.63,23.93,23.93,0,0,1,14.08,2.21,9,9,0,0,1,4.67,4.8c.69,1.82.64,3.68-1.08,4.86a4.3,4.3,0,0,1-5.45-.14,34,34,0,0,1-2.84-3,8.83,8.83,0,0,0-10.35-1.68c-2.8,1.57-2.85,4.27-.1,5.94,2.26,1.37,4.9,1.77,7.41,2.41a42.55,42.55,0,0,1,8.78,2.94c3.39,1.76,5.89,4.17,5.94,8.29,0,4.51-1.72,8.11-5.75,10.35-3.53,2.16-7.45,2.51-11.18,2.71"/><path class="cls-3" d="M397.58,110.32c0,6.09-.34,6.58-6,8.73a20.43,20.43,0,0,1-12.71.94c-5.89-1.53-9.52-5.35-10.89-11.33-1.67-7.27.59-14.82,5.89-18.16a17.79,17.79,0,0,1,17.24-1.28,9.31,9.31,0,0,1,5.15,5.31c.68,1.76.39,3.28-1.42,4.11s-3,0-3.88-1.42c-1.67-2.85-3.83-4.76-7.41-4.71-4.51.1-7.55,2.21-8.93,6.53a16.56,16.56,0,0,0-.09,9.66c1.52,5.45,6.22,8,12.06,6.68a22.94,22.94,0,0,0,2.56-.79,4.54,4.54,0,0,0,2.65-5.79c-.3-.78-.89-.54-1.42-.59-1.48,0-3,.11-4.42,0s-2.8-.59-2.65-2.5,1.37-2.3,2.89-2.3H393c3.58,0,4.51,1,4.56,4.51Z"/><path class="cls-3" d="M477.71,90.19a2.55,2.55,0,0,0-2.55-2.46,2.4,2.4,0,0,0-2.6,2.11,15.85,15.85,0,0,0-.29,3.15c-.06,2.21,0,4.46,0,7-.94-.74-1.47-1.18-2-1.62a9.35,9.35,0,0,0-14.42,4.37,16.49,16.49,0,0,0,.29,12,9.14,9.14,0,0,0,10.2,5.69,11.37,11.37,0,0,0,5.79-3.43c.16.54.26.78.3,1,.34,1.57,1.22,2.79,3,2.55s2.4-1.62,2.4-3.38v-26a6.28,6.28,0,0,0-.13-1m-11.68,26c-3.28-.19-5.49-3.28-5.44-7.7.05-4.27,2.1-7.26,5.07-7.5,3.73-.3,6.28,2.74,6.33,7.6.07,4.7-2.33,7.75-6,7.6"/><path class="cls-3" d="M322.51,87.68c-1.82-.09-2.55,1.18-2.75,2.8a20.68,20.68,0,0,0-.14,2.94V99.9c-.93-.73-1.47-1.18-2-1.61a9.31,9.31,0,0,0-14.38,4.41,16.49,16.49,0,0,0,.3,12,9.12,9.12,0,0,0,10.45,5.6c2.15-.45,3.77-1.67,5.59-3.39.39,2.16,1,3.88,3.19,3.58s2.4-2.21,2.4-4.12V90.88c0-1.85-.72-3.09-2.63-3.2m-3.87,25a5,5,0,0,1-5.07,3.48,5.18,5.18,0,0,1-4.82-3.48,9,9,0,0,1-.78-3.39,11.64,11.64,0,0,1,1.07-5.45,5.08,5.08,0,0,1,9.18-.14,10.17,10.17,0,0,1,.42,9"/><path class="cls-3" d="M505.14,117c-1-2.83-.94-5.79-.94-8.73a31.41,31.41,0,0,0-.14-4.85c-.29-3.39-2-5.5-5-6.24a18.22,18.22,0,0,0-6.28-.59c-3.14.4-6.33,1-8.2,4.06-.88,1.42-1.47,3,.35,4.32s2.75,0,3.73-1.38a6.58,6.58,0,0,1,7.6-2.4,3.42,3.42,0,0,1,2.26,3.49c.06,1.47-1.37,1.12-2.21,1.32-2.74.68-5.54,1.18-8.29,1.86-3.28.84-5.2,3.14-5.15,6.23s2,5.26,5.25,6.19a9.86,9.86,0,0,0,8.34-1.47c1.77-1.14,2.9-1.62,4.12.59a2.28,2.28,0,0,0,3.05,1l.15-.08a2.42,2.42,0,0,0,1.4-3.13c0-.06-.05-.13-.08-.2M492,116.64a3.17,3.17,0,0,1-3.18-2.8,2.77,2.77,0,0,1,2.26-3.18h.09c2.41-.69,4.86-1.23,7.47-1.82.32,5.4-2.18,8.25-6.66,7.81Z"/><path class="cls-3" d="M542.88,116.78c-1-2.8-.88-5.65-.83-8.48v-2.46c0-6.38-1.42-8.29-7.61-9.17-4.35-.59-8.72-.25-11.76,3.63-1.09,1.37-1.82,3.19,0,4.56s2.83,0,3.87-1.42a6.68,6.68,0,0,1,7.65-2.26,3.46,3.46,0,0,1,2.11,3.33c.1,1.47-1.28,1.18-2.11,1.38-2.75.64-5.54,1.18-8.29,1.87-3.34.83-5.25,3.13-5.25,6.17s1.91,5.36,5.15,6.29a10.4,10.4,0,0,0,8.79-1.67c1.56-1,2.45-1.32,3.53.53a2.41,2.41,0,0,0,3.16,1.28,2,2,0,0,0,.36-.19,2.48,2.48,0,0,0,1.28-3.27.61.61,0,0,0,0-.12m-13.18-.14a3.18,3.18,0,0,1-3.19-2.8,2.76,2.76,0,0,1,2.28-3.18h.08c2.4-.69,4.85-1.23,7.45-1.82.37,5.4-2.14,8.25-6.62,7.81"/><path class="cls-3" d="M451.12,116.73c-1-2.8-.84-5.64-.89-8.49,0-1.62.1-3.28,0-4.9-.29-3.34-1.81-5.36-4.71-6.14a17.81,17.81,0,0,0-6.77-.64c-3.14.45-6.33,1.09-8.11,4.22-.79,1.38-1.28,3,.43,4.13s2.75,0,3.73-1.33a6.59,6.59,0,0,1,7.61-2.45,3.33,3.33,0,0,1,2.26,3.43c.05,1.47-1.38,1.18-2.21,1.38-2.75.63-5.55,1.18-8.3,1.86-3.33.84-5.2,3.19-5.2,6.23s1.92,5.31,5.2,6.24a10.37,10.37,0,0,0,8.79-1.72c1.67-1.13,2.5-1.13,3.53.58a2.45,2.45,0,0,0,3.27,1.17l.07,0a2.54,2.54,0,0,0,1.3-3.54m-13.05,0a3.24,3.24,0,0,1-3.3-2.7c-.34-1.91.88-2.89,2.46-3.33,2.4-.73,4.85-1.23,7.31-1.77.49,5.2-2,8.14-6.47,7.8"/><path class="cls-3" d="M581.14,116.93c-1-2.79-.93-5.64-.93-8.49,0-1.72.14-3.48,0-5.07-.29-3.39-2-5.5-5-6.19a18.06,18.06,0,0,0-6.08-.53c-3.28.39-6.53.93-8.45,4-.88,1.42-1.47,3.09.4,4.32s2.7-.1,3.68-1.43a6.61,6.61,0,0,1,7.6-2.35,3.36,3.36,0,0,1,2.21,3.23c.15,1.73-1.37,1.28-2.26,1.52-2.64.69-5.34,1.18-8,1.82-3.38.84-5.3,3-5.35,6.08s1.87,5.45,5.3,6.38a10.09,10.09,0,0,0,8.59-1.62c1.66-1.09,2.6-1.42,3.73.58a2.33,2.33,0,0,0,3.09,1.15l.25-.13a2.49,2.49,0,0,0,1.29-3.28s0,0,0,0M568,116.64a3.16,3.16,0,0,1-3.23-2.75c-.34-1.91.88-2.9,2.5-3.34,2.41-.63,4.81-1.13,7.26-1.67.5,5.26-2,8.14-6.53,7.76"/><path class="cls-3" d="M625.79,116.88c-1-2.8-.93-5.64-.93-8.49,0-1.72.14-3.43,0-5-.29-3.49-2.11-5.6-5.25-6.24a18.19,18.19,0,0,0-5.55-.53c-3.28.34-6.52.83-8.53,3.87-1,1.47-1.67,3.19.29,4.52s2.75-.15,3.68-1.48a6.59,6.59,0,0,1,7.61-2.35,3.52,3.52,0,0,1,2.16,3.28c.14,1.73-1.38,1.33-2.27,1.52-2.74.69-5.54,1.18-8.29,1.87a6.2,6.2,0,0,0-5.07,6.08c0,3,1.87,5.4,5.07,6.33a10.41,10.41,0,0,0,8.83-1.62c1.67-1.13,2.6-1.37,3.73.58a2.34,2.34,0,0,0,3.1,1.15l.24-.13a2.46,2.46,0,0,0,1.23-3.26.47.47,0,0,0-.05-.1m-12.76-.2c-2,0-3.34-.93-3.63-2.89s1.23-2.9,2.9-3.34c2.25-.63,4.56-1.08,7-1.57.24,5.35-1.87,7.9-6.24,7.8"/><path class="cls-3" d="M351.12,113c-1-.78-2.11-.39-3,.5a13.45,13.45,0,0,1-3.54,2.59,6,6,0,0,1-8-2.62,6.41,6.41,0,0,1-.49-1.35c-.29-1.28-.19-2,1.43-1.91,3.43.09,6.87,0,10.3,0,3.74,0,4.67-1.13,4.37-4.76-.59-6.73-7.95-10.7-15-8.2-5.25,1.87-8.11,7.36-7,13.55s5.2,9.76,12.51,9.76c2.84-.25,6.38-.93,8.59-4.27.68-1.08,1.18-2.36-.1-3.29m-14.57-9a5.15,5.15,0,0,1,5.79-3,5.41,5.41,0,0,1,4.22,4.52c.14.88,0,1.37-1,1.32-1.52,0-3,0-4.46,0h-2.69c-2.77,0-3-.29-1.84-2.79"/><path class="cls-3" d="M418.78,117c-1.77,1.43-3.38,2.85-5.64,3.29-5.31,1.08-9.28-1.56-9.52-6.86-.25-4.57-.09-9.13-.05-13.74,0-1.73.84-3.09,2.7-3.15a2.82,2.82,0,0,1,3,2.62,1.31,1.31,0,0,1,0,.28c.15,1.77.09,3.58.09,5.4.06,2.3,0,4.56.11,6.87.15,2.89,1.38,4.31,3.58,4.41a5.07,5.07,0,0,0,5.25-3.87,28.18,28.18,0,0,0,.39-6.08c0-2.31-.05-4.57.05-6.88a2.65,2.65,0,0,1,2.54-2.75h.3A2.59,2.59,0,0,1,424.32,99a2.54,2.54,0,0,1,0,.39c.05,2.36.05,4.76.05,7.1v10.79c0,1.72-.59,3.14-2.49,3.24s-2.61-1-2.8-2.75a5,5,0,0,1-.3-.72"/><path class="cls-3" d="M554.21,111.58c0,3.73.09,7.5,0,11.23a7,7,0,0,1-10.8,5.7,2.19,2.19,0,0,1-1.08-2.5,2,2,0,0,1,2-1.68c4.06-.29,4.06-.29,4.06-4.31v-18.6a18.23,18.23,0,0,1,.09-2.21,2.68,2.68,0,0,1,2.67-2.7h.23c1.86,0,2.75,1.23,2.8,3,0,4,0,8-.05,12Z"/><path class="cls-3" d="M510.19,104.12V91.61c0-1.91.39-3.68,2.75-3.88,1.87-.14,3,1.28,3,3.93.05,8.34,0,16.69,0,25,0,2-.49,3.63-2.75,3.93-1.81.2-2.94-1.32-3-3.93,0-4.22.05-8.38.05-12.56"/><path class="cls-3" d="M592.33,99.76c3.23-3.49,5.49-4.06,8.69-2.26,1.22.69,2.2,1.57,1.61,3.14s-1.91,1.76-3.24,1.33c-4.51-1.53-6,.43-6.62,4.46-.49,3.14-.15,6.33-.25,9.52a11.27,11.27,0,0,1-.29,2.65,2.72,2.72,0,0,1-5.25,0,4.67,4.67,0,0,1-.29-1.42c0-5.65-.05-11.29,0-16.89a4,4,0,0,1,1-2.94c1.69-1.72,3.85-.69,4.63,2.46"/><path class="cls-3" d="M627.21,66.29c-3.63-8.73-8.43-16.59-16.63-22.38,1.32-.34,2.36-.58,3.24-.88,5.2-1.76,9.71-4.41,11.77-9.86,4.37-11.43-2.89-23-15.05-24-9.78-.88-19.58-.24-29.41-.4a10.47,10.47,0,0,0-2.41.4,5.42,5.42,0,0,0-4.51,4.8,24,24,0,0,0-.29,3.69V65.71a19.8,19.8,0,0,0,.29,3.44,6.09,6.09,0,0,0,6.68,5.43,6.64,6.64,0,0,0,1.51-.36c3-.93,4.57-3.23,4.61-7.26,0-6.53,0-13.1,0-19.63,0-1.37.35-2,1.78-1.76a11.55,11.55,0,0,0,2.2,0c5.59-.45,9.81,1.91,12.76,6.58,3.63,5.74,7.1,11.53,10.7,17.23a13.22,13.22,0,0,0,3.34,3.88,7.08,7.08,0,0,0,8-.15c2.23-1.67,2.72-3.68,1.39-6.82m-34.1-30.12c-1.91,0-4.46.83-5.64-.35s-.29-3.73-.34-5.64c0-3.29.1-6.52,0-9.82-.06-1.57.49-1.9,1.91-1.86,2.4.1,4.86,0,7.85,0s6.34-.25,9.76.49a8.31,8.31,0,0,1,7,7.71c.19,4.51-1.73,7.21-6.08,8.54C602.78,36.66,597.92,36.12,593.11,36.17Z"/><path class="cls-3" d="M481.49,74.48c-5.54-.19-10.85-.78-15.56-3.53a20.16,20.16,0,0,1-10.14-13.18,7.37,7.37,0,0,1,0-4.11,5.69,5.69,0,0,1,4.66-4.18,5.24,5.24,0,0,1,5.35,2.21c1.42,1.92,2.16,4.22,3.14,6.33,4.27,9.12,18.79,7.75,23.32,2.31a7.93,7.93,0,0,0-.7-11.19,8.29,8.29,0,0,0-1.22-.89c-2.85-1.86-6.18-2.5-9.42-3.28-5.45-1.38-11-2.56-15.89-5.44a16.47,16.47,0,0,1-3.34-26c8.92-8.74,30-8.45,38.61.49a12.69,12.69,0,0,1,4,8.93,6.09,6.09,0,0,1-4,5.84c-2.65.78-4.86-.05-6.47-2.56-.93-1.42-1.67-3-2.61-4.41-4-6.08-14.81-7.27-20.06-2.21-3.09,3-2.8,7.1.83,9.61,2.65,1.92,5.79,2.61,8.83,3.39a112.54,112.54,0,0,1,13.84,4.06c7.26,2.79,12.27,7.46,12.56,15.75q.44,13.25-11.49,19.08c-4.6,2.26-9.45,2.8-14.16,3"/><path class="cls-3" d="M563.16,66.58a50.13,50.13,0,0,0-4.51-3.73c-1.72-1.17-2.11-2.2-.89-4.05a19.07,19.07,0,0,0,2.9-7c.54-2.74-.29-4.56-2.5-5.39s-3.92-.1-5.3,2.55c-1,1.92-1.82,3.93-2.8,6.09-3.34-3.39-6.08-6.83-9-10.26A43.11,43.11,0,0,0,548,39.74c5.65-5.55,4.61-14-2.4-17.71a17.59,17.59,0,0,0-17.57.34c-5.24,2.94-7,8.93-4.46,14.43A20.75,20.75,0,0,0,526.8,42c1.18,1.28.79,1.81-.54,2.45a26,26,0,0,0-5.3,3.53c-8.68,7.41-6.81,20.22,3.73,24.54,8.74,3.57,17.13,2.69,24.64-3.34,1.12-.93,1.71-.93,2.79,0a45.42,45.42,0,0,0,6.08,4.61,4.46,4.46,0,0,0,6.08-1.27c1.3-2,.91-4.07-1.12-5.89m-31-37.37a5.41,5.41,0,0,1,4.46-2.89c3.29.05,5.21,1.08,6.09,3.29,1,2.4.24,4.47-1.62,6.18-4.36,4.06-5.59,3.93-8.59-1.27-.92-1.74-1.42-3.5-.34-5.31m11.16,34.16c-2.65,2.11-5.4,3.73-8.88,3.73a9.1,9.1,0,0,1-8.73-5.89c-1.28-3.49-.21-6.77,3.14-9.52a.55.55,0,0,1,.19-.15c3.29-2.6,3.29-2.6,6,.6a98.44,98.44,0,0,0,8.3,9c1,.86,1.06,1.36,0,2.19Z"/><path class="cls-3" d="M93.57,39c10.06-7.21,16.53-7.16,22.67.29,2.6-2.59,5.39-4.8,9.22-5.39a15.12,15.12,0,0,1,8.2.88c4.12,1.62,6.23,4.86,6.47,9.28.44,7.84.25,15.7.15,23.55,0,3.92-2,6-5.07,5.89s-4.91-2.36-5-6.08V47.56c-.19-4-1.66-6.09-4.41-6.38a7.25,7.25,0,0,0-7.71,5.45,30,30,0,0,0-.58,7.56c0,4.41,0,8.83,0,13.24,0,2.45-.54,4.76-3.24,5.74a4.61,4.61,0,0,1-6.1-2.34,4.67,4.67,0,0,1-.33-1,17.45,17.45,0,0,1-.34-3.88c0-6.23,0-12.41-.15-18.65,0-3.77-1.47-5.74-4.06-6.08-4-.49-6.63,1.08-7.81,4.66a27.73,27.73,0,0,0-1,8.74V67.34c0,3.47-1.18,5.25-3.63,6A4.74,4.74,0,0,1,85,70.57a3.49,3.49,0,0,1-.34-1.42c-.4-10.45-.45-20.91,0-31.36a4,4,0,0,1,4.37-4,4.36,4.36,0,0,1,4.61,4.11A2.74,2.74,0,0,0,93.57,39"/><path class="cls-3" d="M36.46,46.07V26.45c0-4.57,1.81-6.43,6.37-6.47H71.05c1.76,0,3.48.34,4.46,2a4,4,0,0,1-1.27,5.48,4.07,4.07,0,0,1-1.18.5,10.84,10.84,0,0,1-2.89.3c-7,0-13.89.09-20.86,0-2-.05-2.45.59-2.35,2.45a82.86,82.86,0,0,1,0,8.34c0,1.62.39,2,2,2,6.72-.1,13.39,0,20.11,0C72.39,41.11,74,42.48,74,45S72.39,48.9,69.1,49c-6.47,0-12.9.15-19.38-.05-2.25,0-2.89.59-2.79,2.8.19,3.44.14,6.87,0,10.3,0,1.68.35,2.21,2.11,2.21,7.5-.1,15.06,0,22.57,0,3.38,0,5.07,1.33,5.25,3.89a3.66,3.66,0,0,1-3,4.16,11.8,11.8,0,0,1-3.13.3H43.58c-5.41,0-7.1-1.72-7.1-7,0-6.46,0-13,0-19.42"/><path class="cls-3" d="M275.11,36.76a4.47,4.47,0,0,0-8.54.09c-.29.93-.38,1.91-.64,3.09-4.21-5.44-9.47-7.21-15.79-5.84-6.08,1.33-9.87,5.2-11.73,11a26.63,26.63,0,0,0,.31,17.58c3,8.11,10.44,12.17,18.74,10.3,3.24-.73,5.89-2.64,8.74-5.07V78.11a32.8,32.8,0,0,0,.34,6.57,3.81,3.81,0,0,0,4.06,3.44A4.06,4.06,0,0,0,275,85a15,15,0,0,0,.49-3.88V39.89a9.72,9.72,0,0,0-.35-3.13M263.58,62.1c-3.73,5.65-11.52,5.45-14.72-.44a16.56,16.56,0,0,1-.19-15.8c3.14-6.32,11.44-6.43,15.12-.39a14.87,14.87,0,0,1,1.95,8.63,13.52,13.52,0,0,1-2.16,8Z"/><path class="cls-3" d="M187,47.35c-2.21-9.66-10.14-15.06-19.09-13.25-3.83.79-6.48,3.19-9.13,6.08-.19-1.17-.29-2-.49-3a4.37,4.37,0,0,0-4.66-3.47c-2.66.09-4.22,1.9-4.22,5.25V82.43a21.33,21.33,0,0,0,.34,2.4c.34,2.41,1.82,3.39,4,3.39A4.05,4.05,0,0,0,158.14,85a23.33,23.33,0,0,0,.45-4.86v-13a15.78,15.78,0,0,1,1.22,1.23c7.35,8.64,22,6.08,26.2-5.59a26.63,26.63,0,0,0,1-15.45M176.39,60.74c-1.37,3.15-3.72,5.16-7.31,5.31-3.82.19-6.52-1.67-8.38-4.86a14.32,14.32,0,0,1-1.63-7.81A14.81,14.81,0,0,1,160.65,46c1.81-3.23,4.51-5.07,8.34-4.94a7.94,7.94,0,0,1,7.35,5.2,17.42,17.42,0,0,1,0,14.46"/><path class="cls-3" d="M230.91,68.05c-1.63-4.65-1.72-9.46-1.52-14.27,0-2.55.1-5.07,0-7.6-.35-7.21-3.2-10.89-9.67-12.27a30.84,30.84,0,0,0-14.82.29c-4.17,1.18-7.71,3.25-9.12,7.66-.94,2.69-.25,4.71,1.81,5.68,2.26,1.09,3.87.6,5.4-2.1,2.31-4.06,5.64-5.64,10.14-5.4,4.32.19,5.89,1.62,6.58,5.94.25,1.56-.1,2.16-1.67,2.5-5.55,1.18-11.15,2.36-16.63,3.88a10.29,10.29,0,0,0-7.8,10.6A11,11,0,0,0,202.54,73a19.42,19.42,0,0,0,14.89-2.94c2.9-1.81,2.85-1.76,5.15.88a9.8,9.8,0,0,0,1.18,1.23,4,4,0,0,0,5.15.64c1.85-1.08,2.72-2.66,2-4.77m-18.84-1.26a8.59,8.59,0,0,1-5.07-.15,5.08,5.08,0,0,1-3.63-4.72,4.47,4.47,0,0,1,3.19-4.7A28.48,28.48,0,0,1,211,55.94c2.85-.64,5.7-1.23,8.74-2,.69,7.36-1.76,11.49-7.64,12.82"/><path class="cls-3" d="M363.43,60.55c-1.77-1.42-3.63-1-5.25.59A25.21,25.21,0,0,1,353,65.2c-6.58,3.63-13.85,0-15.07-7.31-.3-1.78.2-2.26,2-2.16,2.94.14,5.89.05,9.46.05,3.15-.21,6.92.33,10.7-.31,4.12-.68,5.25-2.11,5.07-6.32-.34-8.3-6.13-14.38-15-15.75-10.2-1.57-18.79,3.77-21.35,13.24a28.59,28.59,0,0,0-.63,10c.74,8.11,5.78,14.08,13.54,16a24,24,0,0,0,11.63.1c4.37-1.08,8.29-3.09,10.5-7.31.77-1.6,1.31-3.52-.36-4.89M337.91,48.87a9.12,9.12,0,0,1,9.45-8.78,9.43,9.43,0,0,1,2.92.59,9.56,9.56,0,0,1,5.29,8.11c0,1.23-.68,1-1.37,1H339.29c-.73.11-1.47.35-1.42-.93Z"/><path class="cls-3" d="M310.79,67c-3.49,4.27-7.61,6.33-12.61,6.43-7.56.14-12.57-4.27-12.81-11.78s-.15-15.36-.05-23.06c.05-2.95,1.81-4.76,4.42-5a4.54,4.54,0,0,1,5,4,4.93,4.93,0,0,1,0,.55c.24,4.21.15,8.48.19,12.75.05,2.56.05,5.07.2,7.61.3,4.71,2.36,7.26,5.79,7.51a8.48,8.48,0,0,0,9-7c.63-3.09.33-6.18.38-9.27.1-3.53-.05-7,.05-10.55.1-3,1.33-4.81,3.68-5.4a4.63,4.63,0,0,1,5.65,3,10.23,10.23,0,0,1,.44,3.39V68.5c-.25,3.14-1.77,4.91-4.32,5s-4.27-1.43-4.76-4.52a9.31,9.31,0,0,1-.31-2"/><path class="cls-3" d="M388.41,73.51c-4.32-.1-8.29-.74-11.87-3a9.5,9.5,0,0,1-4.67-6.58,3.72,3.72,0,0,1,2.3-4.42A3.77,3.77,0,0,1,379,60.69c.54.74,1,1.53,1.47,2.27a10.4,10.4,0,0,0,12.46,3.38c1.52-.69,2.85-1.67,2.9-3.58a4.17,4.17,0,0,0-2.8-4.17c-2.9-1.32-6.08-1.82-9.12-2.8a29.39,29.39,0,0,1-7-2.89c-5.79-3.73-6.38-10.75-1.27-15.41a15.35,15.35,0,0,1,8.63-3.63,23.93,23.93,0,0,1,14.08,2.21,9,9,0,0,1,4.67,4.8c.69,1.82.64,3.68-1.08,4.86a4.3,4.3,0,0,1-5.45-.14,34,34,0,0,1-2.84-3,8.83,8.83,0,0,0-10.35-1.68c-2.8,1.57-2.85,4.27-.1,5.94,2.26,1.37,4.9,1.77,7.41,2.41a42.55,42.55,0,0,1,8.78,2.94c3.39,1.76,5.89,4.17,5.94,8.29,0,4.51-1.72,8.11-5.75,10.35-3.53,2.16-7.45,2.51-11.18,2.71"/><path class="cls-3" d="M397.58,110.32c0,6.09-.34,6.58-6,8.73a20.43,20.43,0,0,1-12.71.94c-5.89-1.53-9.52-5.35-10.89-11.33-1.67-7.27.59-14.82,5.89-18.16a17.79,17.79,0,0,1,17.24-1.28,9.31,9.31,0,0,1,5.15,5.31c.68,1.76.39,3.28-1.42,4.11s-3,0-3.88-1.42c-1.67-2.85-3.83-4.76-7.41-4.71-4.51.1-7.55,2.21-8.93,6.53a16.56,16.56,0,0,0-.09,9.66c1.52,5.45,6.22,8,12.06,6.68a22.94,22.94,0,0,0,2.56-.79,4.54,4.54,0,0,0,2.65-5.79c-.3-.78-.89-.54-1.42-.59-1.48,0-3,.11-4.42,0s-2.8-.59-2.65-2.5,1.37-2.3,2.89-2.3H393c3.58,0,4.51,1,4.56,4.51Z"/><path class="cls-3" d="M477.71,90.19a2.55,2.55,0,0,0-2.55-2.46,2.4,2.4,0,0,0-2.6,2.11,15.85,15.85,0,0,0-.29,3.15c-.06,2.21,0,4.46,0,7-.94-.74-1.47-1.18-2-1.62a9.35,9.35,0,0,0-14.42,4.37,16.49,16.49,0,0,0,.29,12,9.14,9.14,0,0,0,10.2,5.69,11.37,11.37,0,0,0,5.79-3.43c.16.54.26.78.3,1,.34,1.57,1.22,2.79,3,2.55s2.4-1.62,2.4-3.38v-26a6.28,6.28,0,0,0-.13-1m-11.68,26c-3.28-.19-5.49-3.28-5.44-7.7.05-4.27,2.1-7.26,5.07-7.5,3.73-.3,6.28,2.74,6.33,7.6.07,4.7-2.33,7.75-6,7.6"/><path class="cls-3" d="M322.51,87.68c-1.82-.09-2.55,1.18-2.75,2.8a20.68,20.68,0,0,0-.14,2.94V99.9c-.93-.73-1.47-1.18-2-1.61a9.31,9.31,0,0,0-14.38,4.41,16.49,16.49,0,0,0,.3,12,9.12,9.12,0,0,0,10.45,5.6c2.15-.45,3.77-1.67,5.59-3.39.39,2.16,1,3.88,3.19,3.58s2.4-2.21,2.4-4.12V90.88c0-1.85-.72-3.09-2.63-3.2m-3.87,25a5,5,0,0,1-5.07,3.48,5.18,5.18,0,0,1-4.82-3.48,9,9,0,0,1-.78-3.39,11.64,11.64,0,0,1,1.07-5.45,5.08,5.08,0,0,1,9.18-.14,10.17,10.17,0,0,1,.42,9"/><path class="cls-3" d="M505.14,117c-1-2.83-.94-5.79-.94-8.73a31.41,31.41,0,0,0-.14-4.85c-.29-3.39-2-5.5-5-6.24a18.22,18.22,0,0,0-6.28-.59c-3.14.4-6.33,1-8.2,4.06-.88,1.42-1.47,3,.35,4.32s2.75,0,3.73-1.38a6.58,6.58,0,0,1,7.6-2.4,3.42,3.42,0,0,1,2.26,3.49c.06,1.47-1.37,1.12-2.21,1.32-2.74.68-5.54,1.18-8.29,1.86-3.28.84-5.2,3.14-5.15,6.23s2,5.26,5.25,6.19a9.86,9.86,0,0,0,8.34-1.47c1.77-1.14,2.9-1.62,4.12.59a2.28,2.28,0,0,0,3.05,1l.15-.08a2.42,2.42,0,0,0,1.4-3.13c0-.06-.05-.13-.08-.2M492,116.64a3.17,3.17,0,0,1-3.18-2.8,2.77,2.77,0,0,1,2.26-3.18h.09c2.41-.69,4.86-1.23,7.47-1.82.32,5.4-2.18,8.25-6.66,7.81Z"/><path class="cls-3" d="M542.88,116.78c-1-2.8-.88-5.65-.83-8.48v-2.46c0-6.38-1.42-8.29-7.61-9.17-4.35-.59-8.72-.25-11.76,3.63-1.09,1.37-1.82,3.19,0,4.56s2.83,0,3.87-1.42a6.68,6.68,0,0,1,7.65-2.26,3.46,3.46,0,0,1,2.11,3.33c.1,1.47-1.28,1.18-2.11,1.38-2.75.64-5.54,1.18-8.29,1.87-3.34.83-5.25,3.13-5.25,6.17s1.91,5.36,5.15,6.29a10.4,10.4,0,0,0,8.79-1.67c1.56-1,2.45-1.32,3.53.53a2.41,2.41,0,0,0,3.16,1.28,2,2,0,0,0,.36-.19,2.48,2.48,0,0,0,1.28-3.27.61.61,0,0,0,0-.12m-13.18-.14a3.18,3.18,0,0,1-3.19-2.8,2.76,2.76,0,0,1,2.28-3.18h.08c2.4-.69,4.85-1.23,7.45-1.82.37,5.4-2.14,8.25-6.62,7.81"/><path class="cls-3" d="M451.12,116.73c-1-2.8-.84-5.64-.89-8.49,0-1.62.1-3.28,0-4.9-.29-3.34-1.81-5.36-4.71-6.14a17.81,17.81,0,0,0-6.77-.64c-3.14.45-6.33,1.09-8.11,4.22-.79,1.38-1.28,3,.43,4.13s2.75,0,3.73-1.33a6.59,6.59,0,0,1,7.61-2.45,3.33,3.33,0,0,1,2.26,3.43c.05,1.47-1.38,1.18-2.21,1.38-2.75.63-5.55,1.18-8.3,1.86-3.33.84-5.2,3.19-5.2,6.23s1.92,5.31,5.2,6.24a10.37,10.37,0,0,0,8.79-1.72c1.67-1.13,2.5-1.13,3.53.58a2.45,2.45,0,0,0,3.27,1.17l.07,0a2.54,2.54,0,0,0,1.3-3.54m-13.05,0a3.24,3.24,0,0,1-3.3-2.7c-.34-1.91.88-2.89,2.46-3.33,2.4-.73,4.85-1.23,7.31-1.77.49,5.2-2,8.14-6.47,7.8"/><path class="cls-3" d="M581.14,116.93c-1-2.79-.93-5.64-.93-8.49,0-1.72.14-3.48,0-5.07-.29-3.39-2-5.5-5-6.19a18.06,18.06,0,0,0-6.08-.53c-3.28.39-6.53.93-8.45,4-.88,1.42-1.47,3.09.4,4.32s2.7-.1,3.68-1.43a6.61,6.61,0,0,1,7.6-2.35,3.36,3.36,0,0,1,2.21,3.23c.15,1.73-1.37,1.28-2.26,1.52-2.64.69-5.34,1.18-8,1.82-3.38.84-5.3,3-5.35,6.08s1.87,5.45,5.3,6.38a10.09,10.09,0,0,0,8.59-1.62c1.66-1.09,2.6-1.42,3.73.58a2.33,2.33,0,0,0,3.09,1.15l.25-.13a2.49,2.49,0,0,0,1.29-3.28s0,0,0,0M568,116.64a3.16,3.16,0,0,1-3.23-2.75c-.34-1.91.88-2.9,2.5-3.34,2.41-.63,4.81-1.13,7.26-1.67.5,5.26-2,8.14-6.53,7.76"/><path class="cls-3" d="M625.79,116.88c-1-2.8-.93-5.64-.93-8.49,0-1.72.14-3.43,0-5-.29-3.49-2.11-5.6-5.25-6.24a18.19,18.19,0,0,0-5.55-.53c-3.28.34-6.52.83-8.53,3.87-1,1.47-1.67,3.19.29,4.52s2.75-.15,3.68-1.48a6.59,6.59,0,0,1,7.61-2.35,3.52,3.52,0,0,1,2.16,3.28c.14,1.73-1.38,1.33-2.27,1.52-2.74.69-5.54,1.18-8.29,1.87a6.2,6.2,0,0,0-5.07,6.08c0,3,1.87,5.4,5.07,6.33a10.41,10.41,0,0,0,8.83-1.62c1.67-1.13,2.6-1.37,3.73.58a2.34,2.34,0,0,0,3.1,1.15l.24-.13a2.46,2.46,0,0,0,1.23-3.26.47.47,0,0,0-.05-.1m-12.76-.2c-2,0-3.34-.93-3.63-2.89s1.23-2.9,2.9-3.34c2.25-.63,4.56-1.08,7-1.57.24,5.35-1.87,7.9-6.24,7.8"/><path class="cls-3" d="M351.12,113c-1-.78-2.11-.39-3,.5a13.45,13.45,0,0,1-3.54,2.59,6,6,0,0,1-8-2.62,6.41,6.41,0,0,1-.49-1.35c-.29-1.28-.19-2,1.43-1.91,3.43.09,6.87,0,10.3,0,3.74,0,4.67-1.13,4.37-4.76-.59-6.73-7.95-10.7-15-8.2-5.25,1.87-8.11,7.36-7,13.55s5.2,9.76,12.51,9.76c2.84-.25,6.38-.93,8.59-4.27.68-1.08,1.18-2.36-.1-3.29m-14.57-9a5.15,5.15,0,0,1,5.79-3,5.41,5.41,0,0,1,4.22,4.52c.14.88,0,1.37-1,1.32-1.52,0-3,0-4.46,0h-2.69c-2.77,0-3-.29-1.84-2.79"/><path class="cls-3" d="M418.78,117c-1.77,1.43-3.38,2.85-5.64,3.29-5.31,1.08-9.28-1.56-9.52-6.86-.25-4.57-.09-9.13-.05-13.74,0-1.73.84-3.09,2.7-3.15a2.82,2.82,0,0,1,3,2.62,1.31,1.31,0,0,1,0,.28c.15,1.77.09,3.58.09,5.4.06,2.3,0,4.56.11,6.87.15,2.89,1.38,4.31,3.58,4.41a5.07,5.07,0,0,0,5.25-3.87,28.18,28.18,0,0,0,.39-6.08c0-2.31-.05-4.57.05-6.88a2.65,2.65,0,0,1,2.54-2.75h.3A2.59,2.59,0,0,1,424.32,99a2.54,2.54,0,0,1,0,.39c.05,2.36.05,4.76.05,7.1v10.79c0,1.72-.59,3.14-2.49,3.24s-2.61-1-2.8-2.75a5,5,0,0,1-.3-.72"/><path class="cls-3" d="M554.21,111.58c0,3.73.09,7.5,0,11.23a7,7,0,0,1-10.8,5.7,2.19,2.19,0,0,1-1.08-2.5,2,2,0,0,1,2-1.68c4.06-.29,4.06-.29,4.06-4.31v-18.6a18.23,18.23,0,0,1,.09-2.21,2.68,2.68,0,0,1,2.67-2.7h.23c1.86,0,2.75,1.23,2.8,3,0,4,0,8-.05,12Z"/><path class="cls-3" d="M510.19,104.12V91.61c0-1.91.39-3.68,2.75-3.88,1.87-.14,3,1.28,3,3.93.05,8.34,0,16.69,0,25,0,2-.49,3.63-2.75,3.93-1.81.2-2.94-1.32-3-3.93,0-4.22.05-8.38.05-12.56"/><path class="cls-3" d="M592.33,99.76c3.23-3.49,5.49-4.06,8.69-2.26,1.22.69,2.2,1.57,1.61,3.14s-1.91,1.76-3.24,1.33c-4.51-1.53-6,.43-6.62,4.46-.49,3.14-.15,6.33-.25,9.52a11.27,11.27,0,0,1-.29,2.65,2.72,2.72,0,0,1-5.25,0,4.67,4.67,0,0,1-.29-1.42c0-5.65-.05-11.29,0-16.89a4,4,0,0,1,1-2.94c1.69-1.72,3.85-.69,4.63,2.46"/></g></g></svg>