<?xml version="1.0" encoding="utf-8"?>
<!-- Generator: Adobe Illustrator 22.0.0, SVG Export Plug-In . SVG Version: 6.00 Build 0)  -->
<svg version="1.1" id="Capa_1" xmlns="http://www.w3.org/2000/svg" xmlns:xlink="http://www.w3.org/1999/xlink" x="0px" y="0px"
	 viewBox="0 0 1366 768" style="enable-background:new 0 0 1366 768;" xml:space="preserve">
<style type="text/css">
	.st0{fill:#D7AC76;}
	.st1{clip-path:url(#SVGID_2_);}
	.st2{fill:#D1A278;}
	.st3{fill:#B28564;}
	.st4{fill:#9E7455;}
	.st5{clip-path:url(#SVGID_2_);fill:#010101;}
	.st6{clip-path:url(#SVGID_2_);fill:#010202;}
	.st7{clip-path:url(#SVGID_2_);fill:#FFFFFF;}
	.st8{clip-path:url(#SVGID_2_);fill:#E30613;}
</style>
<rect x="-671" y="-495.4" class="st0" width="2708" height="1757.5"/>
<g>
	<defs>
		<rect id="SVGID_1_" x="-671" y="-495.4" width="2708" height="1759.8"/>
	</defs>
	<clipPath id="SVGID_2_">
		<use xlink:href="#SVGID_1_"  style="overflow:visible;"/>
	</clipPath>
	<g id="_Grupo_" class="st1">
		<polygon class="st2" points="-581.9,-489.2 -527.9,-474.3 -550,-449.7 -582.4,-413.7 -666.6,-437.7 		"/>
		<polygon class="st3" points="-550,-449.7 -508.7,-402.1 -546.2,-298.4 -666.6,-437.7 -582.4,-413.7 		"/>
		<polygon class="st4" points="-666.6,-437.7 -546.2,-298.4 -636.8,-254.6 -678.2,-301.9 -643.9,-343.2 		"/>
		<polygon class="st2" points="-666.6,-437.7 -643.9,-343.2 -678.2,-301.9 -697.9,-278.1 -711.9,-338.4 		"/>
	</g>
	<g id="_Grupo__1_" class="st1">
		<polygon class="st2" points="-365.8,-489.2 -311.8,-474.3 -333.9,-449.7 -366.3,-413.7 -450.5,-437.7 		"/>
		<polygon class="st3" points="-333.9,-449.7 -292.6,-402.1 -330.1,-298.4 -450.5,-437.7 -366.3,-413.7 		"/>
		<polygon class="st4" points="-450.5,-437.7 -330.1,-298.4 -420.7,-254.6 -462.1,-301.9 -427.8,-343.2 		"/>
		<polygon class="st2" points="-450.5,-437.7 -427.8,-343.2 -462.1,-301.9 -481.8,-278.1 -495.8,-338.4 		"/>
	</g>
	<g id="_Grupo__2_" class="st1">
		<polygon class="st2" points="-149.7,-489.2 -95.7,-474.3 -117.8,-449.7 -150.2,-413.7 -234.4,-437.7 		"/>
		<polygon class="st3" points="-117.8,-449.7 -76.6,-402.1 -114,-298.4 -234.4,-437.7 -150.2,-413.7 		"/>
		<polygon class="st4" points="-234.4,-437.7 -114,-298.4 -204.6,-254.6 -246,-301.9 -211.7,-343.2 		"/>
		<polygon class="st2" points="-234.4,-437.7 -211.7,-343.2 -246,-301.9 -265.8,-278.1 -279.7,-338.4 		"/>
	</g>
	<g id="_Grupo__3_" class="st1">
		<polygon class="st2" points="66.3,-489.2 120.4,-474.3 98.3,-449.7 65.9,-413.7 -18.3,-437.7 		"/>
		<polygon class="st3" points="98.3,-449.7 139.5,-402.1 102.1,-298.4 -18.3,-437.7 65.9,-413.7 		"/>
		<polygon class="st4" points="-18.3,-437.7 102.1,-298.4 11.5,-254.6 -29.9,-301.9 4.4,-343.2 		"/>
		<polygon class="st2" points="-18.3,-437.7 4.4,-343.2 -29.9,-301.9 -49.7,-278.1 -63.6,-338.4 		"/>
	</g>
	<g id="_Grupo__4_" class="st1">
		<polygon class="st2" points="282.4,-489.2 336.5,-474.3 314.4,-449.7 282,-413.7 197.8,-437.7 		"/>
		<polygon class="st3" points="314.4,-449.7 355.6,-402.1 318.2,-298.4 197.8,-437.7 282,-413.7 		"/>
		<polygon class="st4" points="197.8,-437.7 318.2,-298.4 227.6,-254.6 186.2,-301.9 220.4,-343.2 		"/>
		<polygon class="st2" points="197.8,-437.7 220.4,-343.2 186.2,-301.9 166.4,-278.1 152.5,-338.4 		"/>
	</g>
	<g id="_Grupo__5_" class="st1">
		<polygon class="st2" points="498.5,-489.2 552.6,-474.3 530.5,-449.7 498.1,-413.7 413.9,-437.7 		"/>
		<polygon class="st3" points="530.5,-449.7 571.7,-402.1 534.3,-298.4 413.9,-437.7 498.1,-413.7 		"/>
		<polygon class="st4" points="413.9,-437.7 534.3,-298.4 443.7,-254.6 402.3,-301.9 436.5,-343.2 		"/>
		<polygon class="st2" points="413.9,-437.7 436.5,-343.2 402.3,-301.9 382.5,-278.1 368.5,-338.4 		"/>
	</g>
	<g id="_Grupo__6_" class="st1">
		<polygon class="st2" points="714.6,-489.2 768.7,-474.3 746.5,-449.7 714.1,-413.7 630,-437.7 		"/>
		<polygon class="st3" points="746.5,-449.7 787.8,-402.1 750.3,-298.4 630,-437.7 714.1,-413.7 		"/>
		<polygon class="st4" points="630,-437.7 750.3,-298.4 659.7,-254.6 618.3,-301.9 652.6,-343.2 		"/>
		<polygon class="st2" points="630,-437.7 652.6,-343.2 618.3,-301.9 598.6,-278.1 584.6,-338.4 		"/>
	</g>
	<g id="_Grupo__7_" class="st1">
		<polygon class="st2" points="930.7,-489.2 984.7,-474.3 962.6,-449.7 930.2,-413.7 846,-437.7 		"/>
		<polygon class="st3" points="962.6,-449.7 1003.9,-402.1 966.4,-298.4 846,-437.7 930.2,-413.7 		"/>
		<polygon class="st4" points="846,-437.7 966.4,-298.4 875.8,-254.6 834.4,-301.9 868.7,-343.2 		"/>
		<polygon class="st2" points="846,-437.7 868.7,-343.2 834.4,-301.9 814.7,-278.1 800.7,-338.4 		"/>
	</g>
	<g id="_Grupo__8_" class="st1">
		<polygon class="st2" points="1146.8,-489.2 1200.8,-474.3 1178.7,-449.7 1146.3,-413.7 1062.1,-437.7 		"/>
		<polygon class="st3" points="1178.7,-449.7 1220,-402.1 1182.5,-298.4 1062.1,-437.7 1146.3,-413.7 		"/>
		<polygon class="st4" points="1062.1,-437.7 1182.5,-298.4 1091.9,-254.6 1050.5,-301.9 1084.8,-343.2 		"/>
		<polygon class="st2" points="1062.1,-437.7 1084.8,-343.2 1050.5,-301.9 1030.8,-278.1 1016.8,-338.4 		"/>
	</g>
	<g id="_Grupo__9_" class="st1">
		<polygon class="st2" points="1362.8,-489.2 1416.9,-474.3 1394.8,-449.7 1362.4,-413.7 1278.2,-437.7 		"/>
		<polygon class="st3" points="1394.8,-449.7 1436,-402.1 1398.6,-298.4 1278.2,-437.7 1362.4,-413.7 		"/>
		<polygon class="st4" points="1278.2,-437.7 1398.6,-298.4 1308,-254.6 1266.6,-301.9 1300.9,-343.2 		"/>
		<polygon class="st2" points="1278.2,-437.7 1300.9,-343.2 1266.6,-301.9 1246.8,-278.1 1232.9,-338.4 		"/>
	</g>
	<g id="_Grupo__10_" class="st1">
		<polygon class="st2" points="1578.9,-489.2 1633,-474.3 1610.9,-449.7 1578.5,-413.7 1494.3,-437.7 		"/>
		<polygon class="st3" points="1610.9,-449.7 1652.1,-402.1 1614.7,-298.4 1494.3,-437.7 1578.5,-413.7 		"/>
		<polygon class="st4" points="1494.3,-437.7 1614.7,-298.4 1524.1,-254.6 1482.7,-301.9 1516.9,-343.2 		"/>
		<polygon class="st2" points="1494.3,-437.7 1516.9,-343.2 1482.7,-301.9 1462.9,-278.1 1449,-338.4 		"/>
	</g>
	<g id="_Grupo__11_" class="st1">
		<polygon class="st2" points="1795,-489.2 1849.1,-474.3 1827,-449.7 1794.6,-413.7 1710.4,-437.7 		"/>
		<polygon class="st3" points="1827,-449.7 1868.2,-402.1 1830.8,-298.4 1710.4,-437.7 1794.6,-413.7 		"/>
		<polygon class="st4" points="1710.4,-437.7 1830.8,-298.4 1740.2,-254.6 1698.8,-301.9 1733,-343.2 		"/>
		<polygon class="st2" points="1710.4,-437.7 1733,-343.2 1698.8,-301.9 1679,-278.1 1665.1,-338.4 		"/>
	</g>
	<g id="_Grupo__12_" class="st1">
		<polygon class="st2" points="2011.1,-489.2 2065.2,-474.3 2043,-449.7 2010.7,-413.7 1926.5,-437.7 		"/>
		<polygon class="st3" points="2043,-449.7 2084.3,-402.1 2046.9,-298.4 1926.5,-437.7 2010.7,-413.7 		"/>
		<polygon class="st4" points="1926.5,-437.7 2046.9,-298.4 1956.3,-254.6 1914.9,-301.9 1949.1,-343.2 		"/>
		<polygon class="st2" points="1926.5,-437.7 1949.1,-343.2 1914.9,-301.9 1895.1,-278.1 1881.1,-338.4 		"/>
	</g>
	<g id="_Grupo__25_" class="st1">
		<polygon class="st2" points="2069.3,-260.4 2015.3,-245.5 2037.4,-220.9 2069.8,-184.8 2153.9,-208.8 		"/>
		<polygon class="st3" points="2037.4,-220.9 1996.1,-173.3 2033.6,-69.6 2153.9,-208.8 2069.8,-184.8 		"/>
		<polygon class="st4" points="2153.9,-208.8 2033.6,-69.6 2124.2,-25.7 2165.6,-73.1 2131.3,-114.4 		"/>
		<polygon class="st2" points="2153.9,-208.8 2131.3,-114.4 2165.6,-73.1 2185.3,-49.2 2199.3,-109.5 		"/>
	</g>
	<g id="_Grupo__24_" class="st1">
		<polygon class="st2" points="1853.2,-260.4 1799.2,-245.5 1821.3,-220.9 1853.7,-184.8 1937.9,-208.8 		"/>
		<polygon class="st3" points="1821.3,-220.9 1780,-173.3 1817.5,-69.6 1937.9,-208.8 1853.7,-184.8 		"/>
		<polygon class="st4" points="1937.9,-208.8 1817.5,-69.6 1908.1,-25.7 1949.5,-73.1 1915.2,-114.4 		"/>
		<polygon class="st2" points="1937.9,-208.8 1915.2,-114.4 1949.5,-73.1 1969.2,-49.2 1983.2,-109.5 		"/>
	</g>
	<g id="_Grupo__23_" class="st1">
		<polygon class="st2" points="1637.1,-260.4 1583.1,-245.5 1605.2,-220.9 1637.6,-184.8 1721.8,-208.8 		"/>
		<polygon class="st3" points="1605.2,-220.9 1564,-173.3 1601.4,-69.6 1721.8,-208.8 1637.6,-184.8 		"/>
		<polygon class="st4" points="1721.8,-208.8 1601.4,-69.6 1692,-25.7 1733.4,-73.1 1699.1,-114.4 		"/>
		<polygon class="st2" points="1721.8,-208.8 1699.1,-114.4 1733.4,-73.1 1753.1,-49.2 1767.1,-109.5 		"/>
	</g>
	<g id="_Grupo__22_" class="st1">
		<polygon class="st2" points="1421.1,-260.4 1367,-245.5 1389.1,-220.9 1421.5,-184.8 1505.7,-208.8 		"/>
		<polygon class="st3" points="1389.1,-220.9 1347.9,-173.3 1385.3,-69.6 1505.7,-208.8 1421.5,-184.8 		"/>
		<polygon class="st4" points="1505.7,-208.8 1385.3,-69.6 1475.9,-25.7 1517.3,-73.1 1483,-114.4 		"/>
		<polygon class="st2" points="1505.7,-208.8 1483,-114.4 1517.3,-73.1 1537.1,-49.2 1551,-109.5 		"/>
	</g>
	<g id="_Grupo__21_" class="st1">
		<polygon class="st2" points="1205,-260.4 1150.9,-245.5 1173,-220.9 1205.4,-184.8 1289.6,-208.8 		"/>
		<polygon class="st3" points="1173,-220.9 1131.8,-173.3 1169.2,-69.6 1289.6,-208.8 1205.4,-184.8 		"/>
		<polygon class="st4" points="1289.6,-208.8 1169.2,-69.6 1259.8,-25.7 1301.2,-73.1 1267,-114.4 		"/>
		<polygon class="st2" points="1289.6,-208.8 1267,-114.4 1301.2,-73.1 1321,-49.2 1334.9,-109.5 		"/>
	</g>
	<g id="_Grupo__20_" class="st1">
		<polygon class="st2" points="988.9,-260.4 934.8,-245.5 956.9,-220.9 989.3,-184.8 1073.5,-208.8 		"/>
		<polygon class="st3" points="956.9,-220.9 915.7,-173.3 953.1,-69.6 1073.5,-208.8 989.3,-184.8 		"/>
		<polygon class="st4" points="1073.5,-208.8 953.1,-69.6 1043.7,-25.7 1085.1,-73.1 1050.9,-114.4 		"/>
		<polygon class="st2" points="1073.5,-208.8 1050.9,-114.4 1085.1,-73.1 1104.9,-49.2 1118.9,-109.5 		"/>
	</g>
	<g id="_Grupo__19_" class="st1">
		<polygon class="st2" points="772.8,-260.4 718.7,-245.5 740.9,-220.9 773.3,-184.8 857.4,-208.8 		"/>
		<polygon class="st3" points="740.9,-220.9 699.6,-173.3 737.1,-69.6 857.4,-208.8 773.3,-184.8 		"/>
		<polygon class="st4" points="857.4,-208.8 737.1,-69.6 827.6,-25.7 869.1,-73.1 834.8,-114.4 		"/>
		<polygon class="st2" points="857.4,-208.8 834.8,-114.4 869.1,-73.1 888.8,-49.2 902.8,-109.5 		"/>
	</g>
	<g id="_Grupo__18_" class="st1">
		<polygon class="st2" points="556.7,-260.4 502.7,-245.5 524.8,-220.9 557.2,-184.8 641.4,-208.8 		"/>
		<polygon class="st3" points="524.8,-220.9 483.5,-173.3 521,-69.6 641.4,-208.8 557.2,-184.8 		"/>
		<polygon class="st4" points="641.4,-208.8 521,-69.6 611.6,-25.7 653,-73.1 618.7,-114.4 		"/>
		<polygon class="st2" points="641.4,-208.8 618.7,-114.4 653,-73.1 672.7,-49.2 686.7,-109.5 		"/>
	</g>
	<g id="_Grupo__17_" class="st1">
		<polygon class="st2" points="340.6,-260.4 286.6,-245.5 308.7,-220.9 341.1,-184.8 425.3,-208.8 		"/>
		<polygon class="st3" points="308.7,-220.9 267.4,-173.3 304.9,-69.6 425.3,-208.8 341.1,-184.8 		"/>
		<polygon class="st4" points="425.3,-208.8 304.9,-69.6 395.5,-25.7 436.9,-73.1 402.6,-114.4 		"/>
		<polygon class="st2" points="425.3,-208.8 402.6,-114.4 436.9,-73.1 456.6,-49.2 470.6,-109.5 		"/>
	</g>
	<g id="_Grupo__16_" class="st1">
		<polygon class="st2" points="124.5,-260.4 70.5,-245.5 92.6,-220.9 125,-184.8 209.2,-208.8 		"/>
		<polygon class="st3" points="92.6,-220.9 51.4,-173.3 88.8,-69.6 209.2,-208.8 125,-184.8 		"/>
		<polygon class="st4" points="209.2,-208.8 88.8,-69.6 179.4,-25.7 220.8,-73.1 186.5,-114.4 		"/>
		<polygon class="st2" points="209.2,-208.8 186.5,-114.4 220.8,-73.1 240.6,-49.2 254.5,-109.5 		"/>
	</g>
	<g id="_Grupo__15_" class="st1">
		<polygon class="st2" points="-91.5,-260.4 -145.6,-245.5 -123.5,-220.9 -91.1,-184.8 -6.9,-208.8 		"/>
		<polygon class="st3" points="-123.5,-220.9 -164.7,-173.3 -127.3,-69.6 -6.9,-208.8 -91.1,-184.8 		"/>
		<polygon class="st4" points="-6.9,-208.8 -127.3,-69.6 -36.7,-25.7 4.7,-73.1 -29.6,-114.4 		"/>
		<polygon class="st2" points="-6.9,-208.8 -29.6,-114.4 4.7,-73.1 24.5,-49.2 38.4,-109.5 		"/>
	</g>
	<g id="_Grupo__14_" class="st1">
		<polygon class="st2" points="-307.6,-260.4 -361.7,-245.5 -339.6,-220.9 -307.2,-184.8 -223,-208.8 		"/>
		<polygon class="st3" points="-339.6,-220.9 -380.8,-173.3 -343.4,-69.6 -223,-208.8 -307.2,-184.8 		"/>
		<polygon class="st4" points="-223,-208.8 -343.4,-69.6 -252.8,-25.7 -211.4,-73.1 -245.6,-114.4 		"/>
		<polygon class="st2" points="-223,-208.8 -245.6,-114.4 -211.4,-73.1 -191.6,-49.2 -177.7,-109.5 		"/>
	</g>
	<g id="_Grupo__13_" class="st1">
		<polygon class="st2" points="-523.7,-260.4 -577.8,-245.5 -555.7,-220.9 -523.3,-184.8 -439.1,-208.8 		"/>
		<polygon class="st3" points="-555.7,-220.9 -596.9,-173.3 -559.5,-69.6 -439.1,-208.8 -523.3,-184.8 		"/>
		<polygon class="st4" points="-439.1,-208.8 -559.5,-69.6 -468.9,-25.7 -427.5,-73.1 -461.7,-114.4 		"/>
		<polygon class="st2" points="-439.1,-208.8 -461.7,-114.4 -427.5,-73.1 -407.7,-49.2 -393.7,-109.5 		"/>
	</g>
	<g id="_Grupo__26_" class="st1">
		<polygon class="st2" points="-739.8,-260.4 -793.9,-245.5 -771.7,-220.9 -739.3,-184.8 -655.2,-208.8 		"/>
		<polygon class="st3" points="-771.7,-220.9 -813,-173.3 -775.5,-69.6 -655.2,-208.8 -739.3,-184.8 		"/>
		<polygon class="st4" points="-655.2,-208.8 -775.5,-69.6 -684.9,-25.7 -643.5,-73.1 -677.8,-114.4 		"/>
		<polygon class="st2" points="-655.2,-208.8 -677.8,-114.4 -643.5,-73.1 -623.8,-49.2 -609.8,-109.5 		"/>
	</g>
	<g id="_Grupo__53_" class="st1">
		<polygon class="st2" points="-581.9,-24.7 -527.9,-9.8 -550,14.8 -582.4,50.9 -666.6,26.9 		"/>
		<polygon class="st3" points="-550,14.8 -508.7,62.4 -546.2,166.1 -666.6,26.9 -582.4,50.9 		"/>
		<polygon class="st4" points="-666.6,26.9 -546.2,166.1 -636.8,210 -678.2,162.7 -643.9,121.3 		"/>
		<polygon class="st2" points="-666.6,26.9 -643.9,121.3 -678.2,162.7 -697.9,186.5 -711.9,126.2 		"/>
	</g>
	<g id="_Grupo__52_" class="st1">
		<polygon class="st2" points="-365.8,-24.7 -311.8,-9.8 -333.9,14.8 -366.3,50.9 -450.5,26.9 		"/>
		<polygon class="st3" points="-333.9,14.8 -292.6,62.4 -330.1,166.1 -450.5,26.9 -366.3,50.9 		"/>
		<polygon class="st4" points="-450.5,26.9 -330.1,166.1 -420.7,210 -462.1,162.7 -427.8,121.3 		"/>
		<polygon class="st2" points="-450.5,26.9 -427.8,121.3 -462.1,162.7 -481.8,186.5 -495.8,126.2 		"/>
	</g>
	<g id="_Grupo__51_" class="st1">
		<polygon class="st2" points="-149.7,-24.7 -95.7,-9.8 -117.8,14.8 -150.2,50.9 -234.4,26.9 		"/>
		<polygon class="st3" points="-117.8,14.8 -76.6,62.4 -114,166.1 -234.4,26.9 -150.2,50.9 		"/>
		<polygon class="st4" points="-234.4,26.9 -114,166.1 -204.6,210 -246,162.7 -211.7,121.3 		"/>
		<polygon class="st2" points="-234.4,26.9 -211.7,121.3 -246,162.7 -265.8,186.5 -279.7,126.2 		"/>
	</g>
	<g id="_Grupo__50_" class="st1">
		<polygon class="st2" points="66.3,-24.7 120.4,-9.8 98.3,14.8 65.9,50.9 -18.3,26.9 		"/>
		<polygon class="st3" points="98.3,14.8 139.5,62.4 102.1,166.1 -18.3,26.9 65.9,50.9 		"/>
		<polygon class="st4" points="-18.3,26.9 102.1,166.1 11.5,210 -29.9,162.7 4.4,121.3 		"/>
		<polygon class="st2" points="-18.3,26.9 4.4,121.3 -29.9,162.7 -49.7,186.5 -63.6,126.2 		"/>
	</g>
	<g id="_Grupo__49_" class="st1">
		<polygon class="st2" points="282.4,-24.7 336.5,-9.8 314.4,14.8 282,50.9 197.8,26.9 		"/>
		<polygon class="st3" points="314.4,14.8 355.6,62.4 318.2,166.1 197.8,26.9 282,50.9 		"/>
		<polygon class="st4" points="197.8,26.9 318.2,166.1 227.6,210 186.2,162.7 220.4,121.3 		"/>
		<polygon class="st2" points="197.8,26.9 220.4,121.3 186.2,162.7 166.4,186.5 152.5,126.2 		"/>
	</g>
	<g id="_Grupo__48_" class="st1">
		<polygon class="st2" points="498.5,-24.7 552.6,-9.8 530.5,14.8 498.1,50.9 413.9,26.9 		"/>
		<polygon class="st3" points="530.5,14.8 571.7,62.4 534.3,166.1 413.9,26.9 498.1,50.9 		"/>
		<polygon class="st4" points="413.9,26.9 534.3,166.1 443.7,210 402.3,162.7 436.5,121.3 		"/>
		<polygon class="st2" points="413.9,26.9 436.5,121.3 402.3,162.7 382.5,186.5 368.5,126.2 		"/>
	</g>
	<g id="_Grupo__47_" class="st1">
		<polygon class="st2" points="714.6,-24.7 768.7,-9.8 746.5,14.8 714.1,50.9 630,26.9 		"/>
		<polygon class="st3" points="746.5,14.8 787.8,62.4 750.3,166.1 630,26.9 714.1,50.9 		"/>
		<polygon class="st4" points="630,26.9 750.3,166.1 659.7,210 618.3,162.7 652.6,121.3 		"/>
		<polygon class="st2" points="630,26.9 652.6,121.3 618.3,162.7 598.6,186.5 584.6,126.2 		"/>
	</g>
	<g id="_Grupo__46_" class="st1">
		<polygon class="st2" points="930.7,-24.7 984.7,-9.8 962.6,14.8 930.2,50.9 846,26.9 		"/>
		<polygon class="st3" points="962.6,14.8 1003.9,62.4 966.4,166.1 846,26.9 930.2,50.9 		"/>
		<polygon class="st4" points="846,26.9 966.4,166.1 875.8,210 834.4,162.7 868.7,121.3 		"/>
		<polygon class="st2" points="846,26.9 868.7,121.3 834.4,162.7 814.7,186.5 800.7,126.2 		"/>
	</g>
	<g id="_Grupo__45_" class="st1">
		<polygon class="st2" points="1146.8,-24.7 1200.8,-9.8 1178.7,14.8 1146.3,50.9 1062.1,26.9 		"/>
		<polygon class="st3" points="1178.7,14.8 1220,62.4 1182.5,166.1 1062.1,26.9 1146.3,50.9 		"/>
		<polygon class="st4" points="1062.1,26.9 1182.5,166.1 1091.9,210 1050.5,162.7 1084.8,121.3 		"/>
		<polygon class="st2" points="1062.1,26.9 1084.8,121.3 1050.5,162.7 1030.8,186.5 1016.8,126.2 		"/>
	</g>
	<g id="_Grupo__44_" class="st1">
		<polygon class="st2" points="1362.8,-24.7 1416.9,-9.8 1394.8,14.8 1362.4,50.9 1278.2,26.9 		"/>
		<polygon class="st3" points="1394.8,14.8 1436,62.4 1398.6,166.1 1278.2,26.9 1362.4,50.9 		"/>
		<polygon class="st4" points="1278.2,26.9 1398.6,166.1 1308,210 1266.6,162.7 1300.9,121.3 		"/>
		<polygon class="st2" points="1278.2,26.9 1300.9,121.3 1266.6,162.7 1246.8,186.5 1232.9,126.2 		"/>
	</g>
	<g id="_Grupo__43_" class="st1">
		<polygon class="st2" points="1578.9,-24.7 1633,-9.8 1610.9,14.8 1578.5,50.9 1494.3,26.9 		"/>
		<polygon class="st3" points="1610.9,14.8 1652.1,62.4 1614.7,166.1 1494.3,26.9 1578.5,50.9 		"/>
		<polygon class="st4" points="1494.3,26.9 1614.7,166.1 1524.1,210 1482.7,162.7 1516.9,121.3 		"/>
		<polygon class="st2" points="1494.3,26.9 1516.9,121.3 1482.7,162.7 1462.9,186.5 1449,126.2 		"/>
	</g>
	<g id="_Grupo__42_" class="st1">
		<polygon class="st2" points="1795,-24.7 1849.1,-9.8 1827,14.8 1794.6,50.9 1710.4,26.9 		"/>
		<polygon class="st3" points="1827,14.8 1868.2,62.4 1830.8,166.1 1710.4,26.9 1794.6,50.9 		"/>
		<polygon class="st4" points="1710.4,26.9 1830.8,166.1 1740.2,210 1698.8,162.7 1733,121.3 		"/>
		<polygon class="st2" points="1710.4,26.9 1733,121.3 1698.8,162.7 1679,186.5 1665.1,126.2 		"/>
	</g>
	<g id="_Grupo__41_" class="st1">
		<polygon class="st2" points="2011.1,-24.7 2065.2,-9.8 2043,14.8 2010.7,50.9 1926.5,26.9 		"/>
		<polygon class="st3" points="2043,14.8 2084.3,62.4 2046.9,166.1 1926.5,26.9 2010.7,50.9 		"/>
		<polygon class="st4" points="1926.5,26.9 2046.9,166.1 1956.3,210 1914.9,162.7 1949.1,121.3 		"/>
		<polygon class="st2" points="1926.5,26.9 1949.1,121.3 1914.9,162.7 1895.1,186.5 1881.1,126.2 		"/>
	</g>
	<g id="_Grupo__40_" class="st1">
		<polygon class="st2" points="2069.3,204.2 2015.3,219.1 2037.4,243.7 2069.8,279.7 2153.9,255.7 		"/>
		<polygon class="st3" points="2037.4,243.7 1996.1,291.3 2033.6,395 2153.9,255.7 2069.8,279.7 		"/>
		<polygon class="st4" points="2153.9,255.7 2033.6,395 2124.2,438.8 2165.6,391.5 2131.3,350.2 		"/>
		<polygon class="st2" points="2153.9,255.7 2131.3,350.2 2165.6,391.5 2185.3,415.3 2199.3,355 		"/>
	</g>
	<g id="_Grupo__39_" class="st1">
		<polygon class="st2" points="1853.2,204.2 1799.2,219.1 1821.3,243.7 1853.7,279.7 1937.9,255.7 		"/>
		<polygon class="st3" points="1821.3,243.7 1780,291.3 1817.5,395 1937.9,255.7 1853.7,279.7 		"/>
		<polygon class="st4" points="1937.9,255.7 1817.5,395 1908.1,438.8 1949.5,391.5 1915.2,350.2 		"/>
		<polygon class="st2" points="1937.9,255.7 1915.2,350.2 1949.5,391.5 1969.2,415.3 1983.2,355 		"/>
	</g>
	<g id="_Grupo__38_" class="st1">
		<polygon class="st2" points="1637.1,204.2 1583.1,219.1 1605.2,243.7 1637.6,279.7 1721.8,255.7 		"/>
		<polygon class="st3" points="1605.2,243.7 1564,291.3 1601.4,395 1721.8,255.7 1637.6,279.7 		"/>
		<polygon class="st4" points="1721.8,255.7 1601.4,395 1692,438.8 1733.4,391.5 1699.1,350.2 		"/>
		<polygon class="st2" points="1721.8,255.7 1699.1,350.2 1733.4,391.5 1753.1,415.3 1767.1,355 		"/>
	</g>
	<g id="_Grupo__37_" class="st1">
		<polygon class="st2" points="1421.1,204.2 1367,219.1 1389.1,243.7 1421.5,279.7 1505.7,255.7 		"/>
		<polygon class="st3" points="1389.1,243.7 1347.9,291.3 1385.3,395 1505.7,255.7 1421.5,279.7 		"/>
		<polygon class="st4" points="1505.7,255.7 1385.3,395 1475.9,438.8 1517.3,391.5 1483,350.2 		"/>
		<polygon class="st2" points="1505.7,255.7 1483,350.2 1517.3,391.5 1537.1,415.3 1551,355 		"/>
	</g>
	<g id="_Grupo__36_" class="st1">
		<polygon class="st2" points="1205,204.2 1150.9,219.1 1173,243.7 1205.4,279.7 1289.6,255.7 		"/>
		<polygon class="st3" points="1173,243.7 1131.8,291.3 1169.2,395 1289.6,255.7 1205.4,279.7 		"/>
		<polygon class="st4" points="1289.6,255.7 1169.2,395 1259.8,438.8 1301.2,391.5 1267,350.2 		"/>
		<polygon class="st2" points="1289.6,255.7 1267,350.2 1301.2,391.5 1321,415.3 1334.9,355 		"/>
	</g>
	<g id="_Grupo__35_" class="st1">
		<polygon class="st2" points="988.9,204.2 934.8,219.1 956.9,243.7 989.3,279.7 1073.5,255.7 		"/>
		<polygon class="st3" points="956.9,243.7 915.7,291.3 953.1,395 1073.5,255.7 989.3,279.7 		"/>
		<polygon class="st4" points="1073.5,255.7 953.1,395 1043.7,438.8 1085.1,391.5 1050.9,350.2 		"/>
		<polygon class="st2" points="1073.5,255.7 1050.9,350.2 1085.1,391.5 1104.9,415.3 1118.9,355 		"/>
	</g>
	<g id="_Grupo__34_" class="st1">
		<polygon class="st2" points="772.8,204.2 718.7,219.1 740.9,243.7 773.3,279.7 857.4,255.7 		"/>
		<polygon class="st3" points="740.9,243.7 699.6,291.3 737.1,395 857.4,255.7 773.3,279.7 		"/>
		<polygon class="st4" points="857.4,255.7 737.1,395 827.6,438.8 869.1,391.5 834.8,350.2 		"/>
		<polygon class="st2" points="857.4,255.7 834.8,350.2 869.1,391.5 888.8,415.3 902.8,355 		"/>
	</g>
	<g id="_Grupo__33_" class="st1">
		<polygon class="st2" points="556.7,204.2 502.7,219.1 524.8,243.7 557.2,279.7 641.4,255.7 		"/>
		<polygon class="st3" points="524.8,243.7 483.5,291.3 521,395 641.4,255.7 557.2,279.7 		"/>
		<polygon class="st4" points="641.4,255.7 521,395 611.6,438.8 653,391.5 618.7,350.2 		"/>
		<polygon class="st2" points="641.4,255.7 618.7,350.2 653,391.5 672.7,415.3 686.7,355 		"/>
	</g>
	<g id="_Grupo__32_" class="st1">
		<polygon class="st2" points="340.6,204.2 286.6,219.1 308.7,243.7 341.1,279.7 425.3,255.7 		"/>
		<polygon class="st3" points="308.7,243.7 267.4,291.3 304.9,395 425.3,255.7 341.1,279.7 		"/>
		<polygon class="st4" points="425.3,255.7 304.9,395 395.5,438.8 436.9,391.5 402.6,350.2 		"/>
		<polygon class="st2" points="425.3,255.7 402.6,350.2 436.9,391.5 456.6,415.3 470.6,355 		"/>
	</g>
	<g id="_Grupo__31_" class="st1">
		<polygon class="st2" points="124.5,204.2 70.5,219.1 92.6,243.7 125,279.7 209.2,255.7 		"/>
		<polygon class="st3" points="92.6,243.7 51.4,291.3 88.8,395 209.2,255.7 125,279.7 		"/>
		<polygon class="st4" points="209.2,255.7 88.8,395 179.4,438.8 220.8,391.5 186.5,350.2 		"/>
		<polygon class="st2" points="209.2,255.7 186.5,350.2 220.8,391.5 240.6,415.3 254.5,355 		"/>
	</g>
	<g id="_Grupo__30_" class="st1">
		<polygon class="st2" points="-91.5,204.2 -145.6,219.1 -123.5,243.7 -91.1,279.7 -6.9,255.7 		"/>
		<polygon class="st3" points="-123.5,243.7 -164.7,291.3 -127.3,395 -6.9,255.7 -91.1,279.7 		"/>
		<polygon class="st4" points="-6.9,255.7 -127.3,395 -36.7,438.8 4.7,391.5 -29.6,350.2 		"/>
		<polygon class="st2" points="-6.9,255.7 -29.6,350.2 4.7,391.5 24.5,415.3 38.4,355 		"/>
	</g>
	<g id="_Grupo__29_" class="st1">
		<polygon class="st2" points="-307.6,204.2 -361.7,219.1 -339.6,243.7 -307.2,279.7 -223,255.7 		"/>
		<polygon class="st3" points="-339.6,243.7 -380.8,291.3 -343.4,395 -223,255.7 -307.2,279.7 		"/>
		<polygon class="st4" points="-223,255.7 -343.4,395 -252.8,438.8 -211.4,391.5 -245.6,350.2 		"/>
		<polygon class="st2" points="-223,255.7 -245.6,350.2 -211.4,391.5 -191.6,415.3 -177.7,355 		"/>
	</g>
	<g id="_Grupo__28_" class="st1">
		<polygon class="st2" points="-523.7,204.2 -577.8,219.1 -555.7,243.7 -523.3,279.7 -439.1,255.7 		"/>
		<polygon class="st3" points="-555.7,243.7 -596.9,291.3 -559.5,395 -439.1,255.7 -523.3,279.7 		"/>
		<polygon class="st4" points="-439.1,255.7 -559.5,395 -468.9,438.8 -427.5,391.5 -461.7,350.2 		"/>
		<polygon class="st2" points="-439.1,255.7 -461.7,350.2 -427.5,391.5 -407.7,415.3 -393.7,355 		"/>
	</g>
	<g id="_Grupo__27_" class="st1">
		<polygon class="st2" points="-739.8,204.2 -793.9,219.1 -771.7,243.7 -739.3,279.7 -655.2,255.7 		"/>
		<polygon class="st3" points="-771.7,243.7 -813,291.3 -775.5,395 -655.2,255.7 -739.3,279.7 		"/>
		<polygon class="st4" points="-655.2,255.7 -775.5,395 -684.9,438.8 -643.5,391.5 -677.8,350.2 		"/>
		<polygon class="st2" points="-655.2,255.7 -677.8,350.2 -643.5,391.5 -623.8,415.3 -609.8,355 		"/>
	</g>
	<g id="_Grupo__80_" class="st1">
		<polygon class="st2" points="-581.9,439.9 -527.9,454.8 -550,479.4 -582.4,515.4 -666.6,491.4 		"/>
		<polygon class="st3" points="-550,479.4 -508.7,527 -546.2,630.7 -666.6,491.4 -582.4,515.4 		"/>
		<polygon class="st4" points="-666.6,491.4 -546.2,630.7 -636.8,674.5 -678.2,627.2 -643.9,585.9 		"/>
		<polygon class="st2" points="-666.6,491.4 -643.9,585.9 -678.2,627.2 -697.9,651 -711.9,590.7 		"/>
	</g>
	<g id="_Grupo__79_" class="st1">
		<polygon class="st2" points="-365.8,439.9 -311.8,454.8 -333.9,479.4 -366.3,515.4 -450.5,491.4 		"/>
		<polygon class="st3" points="-333.9,479.4 -292.6,527 -330.1,630.7 -450.5,491.4 -366.3,515.4 		"/>
		<polygon class="st4" points="-450.5,491.4 -330.1,630.7 -420.7,674.5 -462.1,627.2 -427.8,585.9 		"/>
		<polygon class="st2" points="-450.5,491.4 -427.8,585.9 -462.1,627.2 -481.8,651 -495.8,590.7 		"/>
	</g>
	<g id="_Grupo__78_" class="st1">
		<polygon class="st2" points="-149.7,439.9 -95.7,454.8 -117.8,479.4 -150.2,515.4 -234.4,491.4 		"/>
		<polygon class="st3" points="-117.8,479.4 -76.6,527 -114,630.7 -234.4,491.4 -150.2,515.4 		"/>
		<polygon class="st4" points="-234.4,491.4 -114,630.7 -204.6,674.5 -246,627.2 -211.7,585.9 		"/>
		<polygon class="st2" points="-234.4,491.4 -211.7,585.9 -246,627.2 -265.8,651 -279.7,590.7 		"/>
	</g>
	<g id="_Grupo__77_" class="st1">
		<polygon class="st2" points="66.3,439.9 120.4,454.8 98.3,479.4 65.9,515.4 -18.3,491.4 		"/>
		<polygon class="st3" points="98.3,479.4 139.5,527 102.1,630.7 -18.3,491.4 65.9,515.4 		"/>
		<polygon class="st4" points="-18.3,491.4 102.1,630.7 11.5,674.5 -29.9,627.2 4.4,585.9 		"/>
		<polygon class="st2" points="-18.3,491.4 4.4,585.9 -29.9,627.2 -49.7,651 -63.6,590.7 		"/>
	</g>
	<g id="_Grupo__76_" class="st1">
		<polygon class="st2" points="282.4,439.9 336.5,454.8 314.4,479.4 282,515.4 197.8,491.4 		"/>
		<polygon class="st3" points="314.4,479.4 355.6,527 318.2,630.7 197.8,491.4 282,515.4 		"/>
		<polygon class="st4" points="197.8,491.4 318.2,630.7 227.6,674.5 186.2,627.2 220.4,585.9 		"/>
		<polygon class="st2" points="197.8,491.4 220.4,585.9 186.2,627.2 166.4,651 152.5,590.7 		"/>
	</g>
	<g id="_Grupo__75_" class="st1">
		<polygon class="st2" points="498.5,439.9 552.6,454.8 530.5,479.4 498.1,515.4 413.9,491.4 		"/>
		<polygon class="st3" points="530.5,479.4 571.7,527 534.3,630.7 413.9,491.4 498.1,515.4 		"/>
		<polygon class="st4" points="413.9,491.4 534.3,630.7 443.7,674.5 402.3,627.2 436.5,585.9 		"/>
		<polygon class="st2" points="413.9,491.4 436.5,585.9 402.3,627.2 382.5,651 368.5,590.7 		"/>
	</g>
	<g id="_Grupo__74_" class="st1">
		<polygon class="st2" points="714.6,439.9 768.7,454.8 746.5,479.4 714.1,515.4 630,491.4 		"/>
		<polygon class="st3" points="746.5,479.4 787.8,527 750.3,630.7 630,491.4 714.1,515.4 		"/>
		<polygon class="st4" points="630,491.4 750.3,630.7 659.7,674.5 618.3,627.2 652.6,585.9 		"/>
		<polygon class="st2" points="630,491.4 652.6,585.9 618.3,627.2 598.6,651 584.6,590.7 		"/>
	</g>
	<g id="_Grupo__73_" class="st1">
		<polygon class="st2" points="930.7,439.9 984.7,454.8 962.6,479.4 930.2,515.4 846,491.4 		"/>
		<polygon class="st3" points="962.6,479.4 1003.9,527 966.4,630.7 846,491.4 930.2,515.4 		"/>
		<polygon class="st4" points="846,491.4 966.4,630.7 875.8,674.5 834.4,627.2 868.7,585.9 		"/>
		<polygon class="st2" points="846,491.4 868.7,585.9 834.4,627.2 814.7,651 800.7,590.7 		"/>
	</g>
	<g id="_Grupo__72_" class="st1">
		<polygon class="st2" points="1146.8,439.9 1200.8,454.8 1178.7,479.4 1146.3,515.4 1062.1,491.4 		"/>
		<polygon class="st3" points="1178.7,479.4 1220,527 1182.5,630.7 1062.1,491.4 1146.3,515.4 		"/>
		<polygon class="st4" points="1062.1,491.4 1182.5,630.7 1091.9,674.5 1050.5,627.2 1084.8,585.9 		"/>
		<polygon class="st2" points="1062.1,491.4 1084.8,585.9 1050.5,627.2 1030.8,651 1016.8,590.7 		"/>
	</g>
	<g id="_Grupo__71_" class="st1">
		<polygon class="st2" points="1362.8,439.9 1416.9,454.8 1394.8,479.4 1362.4,515.4 1278.2,491.4 		"/>
		<polygon class="st3" points="1394.8,479.4 1436,527 1398.6,630.7 1278.2,491.4 1362.4,515.4 		"/>
		<polygon class="st4" points="1278.2,491.4 1398.6,630.7 1308,674.5 1266.6,627.2 1300.9,585.9 		"/>
		<polygon class="st2" points="1278.2,491.4 1300.9,585.9 1266.6,627.2 1246.8,651 1232.9,590.7 		"/>
	</g>
	<g id="_Grupo__70_" class="st1">
		<polygon class="st2" points="1578.9,439.9 1633,454.8 1610.9,479.4 1578.5,515.4 1494.3,491.4 		"/>
		<polygon class="st3" points="1610.9,479.4 1652.1,527 1614.7,630.7 1494.3,491.4 1578.5,515.4 		"/>
		<polygon class="st4" points="1494.3,491.4 1614.7,630.7 1524.1,674.5 1482.7,627.2 1516.9,585.9 		"/>
		<polygon class="st2" points="1494.3,491.4 1516.9,585.9 1482.7,627.2 1462.9,651 1449,590.7 		"/>
	</g>
	<g id="_Grupo__69_" class="st1">
		<polygon class="st2" points="1795,439.9 1849.1,454.8 1827,479.4 1794.6,515.4 1710.4,491.4 		"/>
		<polygon class="st3" points="1827,479.4 1868.2,527 1830.8,630.7 1710.4,491.4 1794.6,515.4 		"/>
		<polygon class="st4" points="1710.4,491.4 1830.8,630.7 1740.2,674.5 1698.8,627.2 1733,585.9 		"/>
		<polygon class="st2" points="1710.4,491.4 1733,585.9 1698.8,627.2 1679,651 1665.1,590.7 		"/>
	</g>
	<g id="_Grupo__68_" class="st1">
		<polygon class="st2" points="2011.1,439.9 2065.2,454.8 2043,479.4 2010.7,515.4 1926.5,491.4 		"/>
		<polygon class="st3" points="2043,479.4 2084.3,527 2046.9,630.7 1926.5,491.4 2010.7,515.4 		"/>
		<polygon class="st4" points="1926.5,491.4 2046.9,630.7 1956.3,674.5 1914.9,627.2 1949.1,585.9 		"/>
		<polygon class="st2" points="1926.5,491.4 1949.1,585.9 1914.9,627.2 1895.1,651 1881.1,590.7 		"/>
	</g>
	<g id="_Grupo__67_" class="st1">
		<polygon class="st2" points="2069.3,668.7 2015.3,683.6 2037.4,708.2 2069.8,744.3 2153.9,720.3 		"/>
		<polygon class="st3" points="2037.4,708.2 1996.1,755.8 2033.6,859.5 2153.9,720.3 2069.8,744.3 		"/>
		<polygon class="st4" points="2153.9,720.3 2033.6,859.5 2124.2,903.4 2165.6,856.1 2131.3,814.7 		"/>
		<polygon class="st2" points="2153.9,720.3 2131.3,814.7 2165.6,856.1 2185.3,879.9 2199.3,819.6 		"/>
	</g>
	<g id="_Grupo__66_" class="st1">
		<polygon class="st2" points="1853.2,668.7 1799.2,683.6 1821.3,708.2 1853.7,744.3 1937.9,720.3 		"/>
		<polygon class="st3" points="1821.3,708.2 1780,755.8 1817.5,859.5 1937.9,720.3 1853.7,744.3 		"/>
		<polygon class="st4" points="1937.9,720.3 1817.5,859.5 1908.1,903.4 1949.5,856.1 1915.2,814.7 		"/>
		<polygon class="st2" points="1937.9,720.3 1915.2,814.7 1949.5,856.1 1969.2,879.9 1983.2,819.6 		"/>
	</g>
	<g id="_Grupo__65_" class="st1">
		<polygon class="st2" points="1637.1,668.7 1583.1,683.6 1605.2,708.2 1637.6,744.3 1721.8,720.3 		"/>
		<polygon class="st3" points="1605.2,708.2 1564,755.8 1601.4,859.5 1721.8,720.3 1637.6,744.3 		"/>
		<polygon class="st4" points="1721.8,720.3 1601.4,859.5 1692,903.4 1733.4,856.1 1699.1,814.7 		"/>
		<polygon class="st2" points="1721.8,720.3 1699.1,814.7 1733.4,856.1 1753.1,879.9 1767.1,819.6 		"/>
	</g>
	<g id="_Grupo__64_" class="st1">
		<polygon class="st2" points="1421.1,668.7 1367,683.6 1389.1,708.2 1421.5,744.3 1505.7,720.3 		"/>
		<polygon class="st3" points="1389.1,708.2 1347.9,755.8 1385.3,859.5 1505.7,720.3 1421.5,744.3 		"/>
		<polygon class="st4" points="1505.7,720.3 1385.3,859.5 1475.9,903.4 1517.3,856.1 1483,814.7 		"/>
		<polygon class="st2" points="1505.7,720.3 1483,814.7 1517.3,856.1 1537.1,879.9 1551,819.6 		"/>
	</g>
	<g id="_Grupo__63_" class="st1">
		<polygon class="st2" points="1205,668.7 1150.9,683.6 1173,708.2 1205.4,744.3 1289.6,720.3 		"/>
		<polygon class="st3" points="1173,708.2 1131.8,755.8 1169.2,859.5 1289.6,720.3 1205.4,744.3 		"/>
		<polygon class="st4" points="1289.6,720.3 1169.2,859.5 1259.8,903.4 1301.2,856.1 1267,814.7 		"/>
		<polygon class="st2" points="1289.6,720.3 1267,814.7 1301.2,856.1 1321,879.9 1334.9,819.6 		"/>
	</g>
	<g id="_Grupo__62_" class="st1">
		<polygon class="st2" points="988.9,668.7 934.8,683.6 956.9,708.2 989.3,744.3 1073.5,720.3 		"/>
		<polygon class="st3" points="956.9,708.2 915.7,755.8 953.1,859.5 1073.5,720.3 989.3,744.3 		"/>
		<polygon class="st4" points="1073.5,720.3 953.1,859.5 1043.7,903.4 1085.1,856.1 1050.9,814.7 		"/>
		<polygon class="st2" points="1073.5,720.3 1050.9,814.7 1085.1,856.1 1104.9,879.9 1118.9,819.6 		"/>
	</g>
	<g id="_Grupo__61_" class="st1">
		<polygon class="st2" points="772.8,668.7 718.7,683.6 740.9,708.2 773.3,744.3 857.4,720.3 		"/>
		<polygon class="st3" points="740.9,708.2 699.6,755.8 737.1,859.5 857.4,720.3 773.3,744.3 		"/>
		<polygon class="st4" points="857.4,720.3 737.1,859.5 827.6,903.4 869.1,856.1 834.8,814.7 		"/>
		<polygon class="st2" points="857.4,720.3 834.8,814.7 869.1,856.1 888.8,879.9 902.8,819.6 		"/>
	</g>
	<g id="_Grupo__60_" class="st1">
		<polygon class="st2" points="556.7,668.7 502.7,683.6 524.8,708.2 557.2,744.3 641.4,720.3 		"/>
		<polygon class="st3" points="524.8,708.2 483.5,755.8 521,859.5 641.4,720.3 557.2,744.3 		"/>
		<polygon class="st4" points="641.4,720.3 521,859.5 611.6,903.4 653,856.1 618.7,814.7 		"/>
		<polygon class="st2" points="641.4,720.3 618.7,814.7 653,856.1 672.7,879.9 686.7,819.6 		"/>
	</g>
	<g id="_Grupo__59_" class="st1">
		<polygon class="st2" points="340.6,668.7 286.6,683.6 308.7,708.2 341.1,744.3 425.3,720.3 		"/>
		<polygon class="st3" points="308.7,708.2 267.4,755.8 304.9,859.5 425.3,720.3 341.1,744.3 		"/>
		<polygon class="st4" points="425.3,720.3 304.9,859.5 395.5,903.4 436.9,856.1 402.6,814.7 		"/>
		<polygon class="st2" points="425.3,720.3 402.6,814.7 436.9,856.1 456.6,879.9 470.6,819.6 		"/>
	</g>
	<g id="_Grupo__58_" class="st1">
		<polygon class="st2" points="124.5,668.7 70.5,683.6 92.6,708.2 125,744.3 209.2,720.3 		"/>
		<polygon class="st3" points="92.6,708.2 51.4,755.8 88.8,859.5 209.2,720.3 125,744.3 		"/>
		<polygon class="st4" points="209.2,720.3 88.8,859.5 179.4,903.4 220.8,856.1 186.5,814.7 		"/>
		<polygon class="st2" points="209.2,720.3 186.5,814.7 220.8,856.1 240.6,879.9 254.5,819.6 		"/>
	</g>
	<g id="_Grupo__57_" class="st1">
		<polygon class="st2" points="-91.5,668.7 -145.6,683.6 -123.5,708.2 -91.1,744.3 -6.9,720.3 		"/>
		<polygon class="st3" points="-123.5,708.2 -164.7,755.8 -127.3,859.5 -6.9,720.3 -91.1,744.3 		"/>
		<polygon class="st4" points="-6.9,720.3 -127.3,859.5 -36.7,903.4 4.7,856.1 -29.6,814.7 		"/>
		<polygon class="st2" points="-6.9,720.3 -29.6,814.7 4.7,856.1 24.5,879.9 38.4,819.6 		"/>
	</g>
	<g id="_Grupo__56_" class="st1">
		<polygon class="st2" points="-307.6,668.7 -361.7,683.6 -339.6,708.2 -307.2,744.3 -223,720.3 		"/>
		<polygon class="st3" points="-339.6,708.2 -380.8,755.8 -343.4,859.5 -223,720.3 -307.2,744.3 		"/>
		<polygon class="st4" points="-223,720.3 -343.4,859.5 -252.8,903.4 -211.4,856.1 -245.6,814.7 		"/>
		<polygon class="st2" points="-223,720.3 -245.6,814.7 -211.4,856.1 -191.6,879.9 -177.7,819.6 		"/>
	</g>
	<g id="_Grupo__55_" class="st1">
		<polygon class="st2" points="-523.7,668.7 -577.8,683.6 -555.7,708.2 -523.3,744.3 -439.1,720.3 		"/>
		<polygon class="st3" points="-555.7,708.2 -596.9,755.8 -559.5,859.5 -439.1,720.3 -523.3,744.3 		"/>
		<polygon class="st4" points="-439.1,720.3 -559.5,859.5 -468.9,903.4 -427.5,856.1 -461.7,814.7 		"/>
		<polygon class="st2" points="-439.1,720.3 -461.7,814.7 -427.5,856.1 -407.7,879.9 -393.7,819.6 		"/>
	</g>
	<g id="_Grupo__54_" class="st1">
		<polygon class="st2" points="-739.8,668.7 -793.9,683.6 -771.7,708.2 -739.3,744.3 -655.2,720.3 		"/>
		<polygon class="st3" points="-771.7,708.2 -813,755.8 -775.5,859.5 -655.2,720.3 -739.3,744.3 		"/>
		<polygon class="st4" points="-655.2,720.3 -775.5,859.5 -684.9,903.4 -643.5,856.1 -677.8,814.7 		"/>
		<polygon class="st2" points="-655.2,720.3 -677.8,814.7 -643.5,856.1 -623.8,879.9 -609.8,819.6 		"/>
	</g>
	<g id="_Grupo__107_" class="st1">
		<polygon class="st2" points="-581.9,904.4 -527.9,919.3 -550,943.9 -582.4,980 -666.6,956 		"/>
		<polygon class="st3" points="-550,943.9 -508.7,991.5 -546.2,1095.3 -666.6,956 -582.4,980 		"/>
		<polygon class="st4" points="-666.6,956 -546.2,1095.3 -636.8,1139.1 -678.2,1091.8 -643.9,1050.4 		"/>
		<polygon class="st2" points="-666.6,956 -643.9,1050.4 -678.2,1091.8 -697.9,1115.6 -711.9,1055.3 		"/>
	</g>
	<g id="_Grupo__106_" class="st1">
		<polygon class="st2" points="-365.8,904.4 -311.8,919.3 -333.9,943.9 -366.3,980 -450.5,956 		"/>
		<polygon class="st3" points="-333.9,943.9 -292.6,991.5 -330.1,1095.3 -450.5,956 -366.3,980 		"/>
		<polygon class="st4" points="-450.5,956 -330.1,1095.3 -420.7,1139.1 -462.1,1091.8 -427.8,1050.4 		"/>
		<polygon class="st2" points="-450.5,956 -427.8,1050.4 -462.1,1091.8 -481.8,1115.6 -495.8,1055.3 		"/>
	</g>
	<g id="_Grupo__105_" class="st1">
		<polygon class="st2" points="-149.7,904.4 -95.7,919.3 -117.8,943.9 -150.2,980 -234.4,956 		"/>
		<polygon class="st3" points="-117.8,943.9 -76.6,991.5 -114,1095.3 -234.4,956 -150.2,980 		"/>
		<polygon class="st4" points="-234.4,956 -114,1095.3 -204.6,1139.1 -246,1091.8 -211.7,1050.4 		"/>
		<polygon class="st2" points="-234.4,956 -211.7,1050.4 -246,1091.8 -265.8,1115.6 -279.7,1055.3 		"/>
	</g>
	<g id="_Grupo__104_" class="st1">
		<polygon class="st2" points="66.3,904.4 120.4,919.3 98.3,943.9 65.9,980 -18.3,956 		"/>
		<polygon class="st3" points="98.3,943.9 139.5,991.5 102.1,1095.3 -18.3,956 65.9,980 		"/>
		<polygon class="st4" points="-18.3,956 102.1,1095.3 11.5,1139.1 -29.9,1091.8 4.4,1050.4 		"/>
		<polygon class="st2" points="-18.3,956 4.4,1050.4 -29.9,1091.8 -49.7,1115.6 -63.6,1055.3 		"/>
	</g>
	<g id="_Grupo__103_" class="st1">
		<polygon class="st2" points="282.4,904.4 336.5,919.3 314.4,943.9 282,980 197.8,956 		"/>
		<polygon class="st3" points="314.4,943.9 355.6,991.5 318.2,1095.3 197.8,956 282,980 		"/>
		<polygon class="st4" points="197.8,956 318.2,1095.3 227.6,1139.1 186.2,1091.8 220.4,1050.4 		"/>
		<polygon class="st2" points="197.8,956 220.4,1050.4 186.2,1091.8 166.4,1115.6 152.5,1055.3 		"/>
	</g>
	<g id="_Grupo__102_" class="st1">
		<polygon class="st2" points="498.5,904.4 552.6,919.3 530.5,943.9 498.1,980 413.9,956 		"/>
		<polygon class="st3" points="530.5,943.9 571.7,991.5 534.3,1095.3 413.9,956 498.1,980 		"/>
		<polygon class="st4" points="413.9,956 534.3,1095.3 443.7,1139.1 402.3,1091.8 436.5,1050.4 		"/>
		<polygon class="st2" points="413.9,956 436.5,1050.4 402.3,1091.8 382.5,1115.6 368.5,1055.3 		"/>
	</g>
	<g id="_Grupo__101_" class="st1">
		<polygon class="st2" points="714.6,904.4 768.7,919.3 746.5,943.9 714.1,980 630,956 		"/>
		<polygon class="st3" points="746.5,943.9 787.8,991.5 750.3,1095.3 630,956 714.1,980 		"/>
		<polygon class="st4" points="630,956 750.3,1095.3 659.7,1139.1 618.3,1091.8 652.6,1050.4 		"/>
		<polygon class="st2" points="630,956 652.6,1050.4 618.3,1091.8 598.6,1115.6 584.6,1055.3 		"/>
	</g>
	<g id="_Grupo__100_" class="st1">
		<polygon class="st2" points="930.7,904.4 984.7,919.3 962.6,943.9 930.2,980 846,956 		"/>
		<polygon class="st3" points="962.6,943.9 1003.9,991.5 966.4,1095.3 846,956 930.2,980 		"/>
		<polygon class="st4" points="846,956 966.4,1095.3 875.8,1139.1 834.4,1091.8 868.7,1050.4 		"/>
		<polygon class="st2" points="846,956 868.7,1050.4 834.4,1091.8 814.7,1115.6 800.7,1055.3 		"/>
	</g>
	<g id="_Grupo__99_" class="st1">
		<polygon class="st2" points="1146.8,904.4 1200.8,919.3 1178.7,943.9 1146.3,980 1062.1,956 		"/>
		<polygon class="st3" points="1178.7,943.9 1220,991.5 1182.5,1095.3 1062.1,956 1146.3,980 		"/>
		<polygon class="st4" points="1062.1,956 1182.5,1095.3 1091.9,1139.1 1050.5,1091.8 1084.8,1050.4 		"/>
		<polygon class="st2" points="1062.1,956 1084.8,1050.4 1050.5,1091.8 1030.8,1115.6 1016.8,1055.3 		"/>
	</g>
	<g id="_Grupo__98_" class="st1">
		<polygon class="st2" points="1362.8,904.4 1416.9,919.3 1394.8,943.9 1362.4,980 1278.2,956 		"/>
		<polygon class="st3" points="1394.8,943.9 1436,991.5 1398.6,1095.3 1278.2,956 1362.4,980 		"/>
		<polygon class="st4" points="1278.2,956 1398.6,1095.3 1308,1139.1 1266.6,1091.8 1300.9,1050.4 		"/>
		<polygon class="st2" points="1278.2,956 1300.9,1050.4 1266.6,1091.8 1246.8,1115.6 1232.9,1055.3 		"/>
	</g>
	<g id="_Grupo__97_" class="st1">
		<polygon class="st2" points="1578.9,904.4 1633,919.3 1610.9,943.9 1578.5,980 1494.3,956 		"/>
		<polygon class="st3" points="1610.9,943.9 1652.1,991.5 1614.7,1095.3 1494.3,956 1578.5,980 		"/>
		<polygon class="st4" points="1494.3,956 1614.7,1095.3 1524.1,1139.1 1482.7,1091.8 1516.9,1050.4 		"/>
		<polygon class="st2" points="1494.3,956 1516.9,1050.4 1482.7,1091.8 1462.9,1115.6 1449,1055.3 		"/>
	</g>
	<g id="_Grupo__96_" class="st1">
		<polygon class="st2" points="1795,904.4 1849.1,919.3 1827,943.9 1794.6,980 1710.4,956 		"/>
		<polygon class="st3" points="1827,943.9 1868.2,991.5 1830.8,1095.3 1710.4,956 1794.6,980 		"/>
		<polygon class="st4" points="1710.4,956 1830.8,1095.3 1740.2,1139.1 1698.8,1091.8 1733,1050.4 		"/>
		<polygon class="st2" points="1710.4,956 1733,1050.4 1698.8,1091.8 1679,1115.6 1665.1,1055.3 		"/>
	</g>
	<g id="_Grupo__95_" class="st1">
		<polygon class="st2" points="2011.1,904.4 2065.2,919.3 2043,943.9 2010.7,980 1926.5,956 		"/>
		<polygon class="st3" points="2043,943.9 2084.3,991.5 2046.9,1095.3 1926.5,956 2010.7,980 		"/>
		<polygon class="st4" points="1926.5,956 2046.9,1095.3 1956.3,1139.1 1914.9,1091.8 1949.1,1050.4 		"/>
		<polygon class="st2" points="1926.5,956 1949.1,1050.4 1914.9,1091.8 1895.1,1115.6 1881.1,1055.3 		"/>
	</g>
	<g id="_Grupo__94_" class="st1">
		<polygon class="st2" points="2069.3,1133.3 2015.3,1148.2 2037.4,1172.8 2069.8,1208.8 2153.9,1184.8 		"/>
		<polygon class="st3" points="2037.4,1172.8 1996.1,1220.4 2033.6,1324.1 2153.9,1184.8 2069.8,1208.8 		"/>
		<polygon class="st4" points="2153.9,1184.8 2033.6,1324.1 2124.2,1367.9 2165.6,1320.6 2131.3,1279.3 		"/>
		<polygon class="st2" points="2153.9,1184.8 2131.3,1279.3 2165.6,1320.6 2185.3,1344.4 2199.3,1284.1 		"/>
	</g>
	<g id="_Grupo__93_" class="st1">
		<polygon class="st2" points="1853.2,1133.3 1799.2,1148.2 1821.3,1172.8 1853.7,1208.8 1937.9,1184.8 		"/>
		<polygon class="st3" points="1821.3,1172.8 1780,1220.4 1817.5,1324.1 1937.9,1184.8 1853.7,1208.8 		"/>
		<polygon class="st4" points="1937.9,1184.8 1817.5,1324.1 1908.1,1367.9 1949.5,1320.6 1915.2,1279.3 		"/>
		<polygon class="st2" points="1937.9,1184.8 1915.2,1279.3 1949.5,1320.6 1969.2,1344.4 1983.2,1284.1 		"/>
	</g>
	<g id="_Grupo__92_" class="st1">
		<polygon class="st2" points="1637.1,1133.3 1583.1,1148.2 1605.2,1172.8 1637.6,1208.8 1721.8,1184.8 		"/>
		<polygon class="st3" points="1605.2,1172.8 1564,1220.4 1601.4,1324.1 1721.8,1184.8 1637.6,1208.8 		"/>
		<polygon class="st4" points="1721.8,1184.8 1601.4,1324.1 1692,1367.9 1733.4,1320.6 1699.1,1279.3 		"/>
		<polygon class="st2" points="1721.8,1184.8 1699.1,1279.3 1733.4,1320.6 1753.1,1344.4 1767.1,1284.1 		"/>
	</g>
	<g id="_Grupo__91_" class="st1">
		<polygon class="st2" points="1421.1,1133.3 1367,1148.2 1389.1,1172.8 1421.5,1208.8 1505.7,1184.8 		"/>
		<polygon class="st3" points="1389.1,1172.8 1347.9,1220.4 1385.3,1324.1 1505.7,1184.8 1421.5,1208.8 		"/>
		<polygon class="st4" points="1505.7,1184.8 1385.3,1324.1 1475.9,1367.9 1517.3,1320.6 1483,1279.3 		"/>
		<polygon class="st2" points="1505.7,1184.8 1483,1279.3 1517.3,1320.6 1537.1,1344.4 1551,1284.1 		"/>
	</g>
	<g id="_Grupo__90_" class="st1">
		<polygon class="st2" points="1205,1133.3 1150.9,1148.2 1173,1172.8 1205.4,1208.8 1289.6,1184.8 		"/>
		<polygon class="st3" points="1173,1172.8 1131.8,1220.4 1169.2,1324.1 1289.6,1184.8 1205.4,1208.8 		"/>
		<polygon class="st4" points="1289.6,1184.8 1169.2,1324.1 1259.8,1367.9 1301.2,1320.6 1267,1279.3 		"/>
		<polygon class="st2" points="1289.6,1184.8 1267,1279.3 1301.2,1320.6 1321,1344.4 1334.9,1284.1 		"/>
	</g>
	<g id="_Grupo__89_" class="st1">
		<polygon class="st2" points="988.9,1133.3 934.8,1148.2 956.9,1172.8 989.3,1208.8 1073.5,1184.8 		"/>
		<polygon class="st3" points="956.9,1172.8 915.7,1220.4 953.1,1324.1 1073.5,1184.8 989.3,1208.8 		"/>
		<polygon class="st4" points="1073.5,1184.8 953.1,1324.1 1043.7,1367.9 1085.1,1320.6 1050.9,1279.3 		"/>
		<polygon class="st2" points="1073.5,1184.8 1050.9,1279.3 1085.1,1320.6 1104.9,1344.4 1118.9,1284.1 		"/>
	</g>
	<g id="_Grupo__88_" class="st1">
		<polygon class="st2" points="772.8,1133.3 718.7,1148.2 740.9,1172.8 773.3,1208.8 857.4,1184.8 		"/>
		<polygon class="st3" points="740.9,1172.8 699.6,1220.4 737.1,1324.1 857.4,1184.8 773.3,1208.8 		"/>
		<polygon class="st4" points="857.4,1184.8 737.1,1324.1 827.6,1367.9 869.1,1320.6 834.8,1279.3 		"/>
		<polygon class="st2" points="857.4,1184.8 834.8,1279.3 869.1,1320.6 888.8,1344.4 902.8,1284.1 		"/>
	</g>
	<g id="_Grupo__87_" class="st1">
		<polygon class="st2" points="556.7,1133.3 502.7,1148.2 524.8,1172.8 557.2,1208.8 641.4,1184.8 		"/>
		<polygon class="st3" points="524.8,1172.8 483.5,1220.4 521,1324.1 641.4,1184.8 557.2,1208.8 		"/>
		<polygon class="st4" points="641.4,1184.8 521,1324.1 611.6,1367.9 653,1320.6 618.7,1279.3 		"/>
		<polygon class="st2" points="641.4,1184.8 618.7,1279.3 653,1320.6 672.7,1344.4 686.7,1284.1 		"/>
	</g>
	<g id="_Grupo__86_" class="st1">
		<polygon class="st2" points="340.6,1133.3 286.6,1148.2 308.7,1172.8 341.1,1208.8 425.3,1184.8 		"/>
		<polygon class="st3" points="308.7,1172.8 267.4,1220.4 304.9,1324.1 425.3,1184.8 341.1,1208.8 		"/>
		<polygon class="st4" points="425.3,1184.8 304.9,1324.1 395.5,1367.9 436.9,1320.6 402.6,1279.3 		"/>
		<polygon class="st2" points="425.3,1184.8 402.6,1279.3 436.9,1320.6 456.6,1344.4 470.6,1284.1 		"/>
	</g>
	<g id="_Grupo__85_" class="st1">
		<polygon class="st2" points="124.5,1133.3 70.5,1148.2 92.6,1172.8 125,1208.8 209.2,1184.8 		"/>
		<polygon class="st3" points="92.6,1172.8 51.4,1220.4 88.8,1324.1 209.2,1184.8 125,1208.8 		"/>
		<polygon class="st4" points="209.2,1184.8 88.8,1324.1 179.4,1367.9 220.8,1320.6 186.5,1279.3 		"/>
		<polygon class="st2" points="209.2,1184.8 186.5,1279.3 220.8,1320.6 240.6,1344.4 254.5,1284.1 		"/>
	</g>
	<g id="_Grupo__84_" class="st1">
		<polygon class="st2" points="-91.5,1133.3 -145.6,1148.2 -123.5,1172.8 -91.1,1208.8 -6.9,1184.8 		"/>
		<polygon class="st3" points="-123.5,1172.8 -164.7,1220.4 -127.3,1324.1 -6.9,1184.8 -91.1,1208.8 		"/>
		<polygon class="st4" points="-6.9,1184.8 -127.3,1324.1 -36.7,1367.9 4.7,1320.6 -29.6,1279.3 		"/>
		<polygon class="st2" points="-6.9,1184.8 -29.6,1279.3 4.7,1320.6 24.5,1344.4 38.4,1284.1 		"/>
	</g>
	<g id="_Grupo__83_" class="st1">
		<polygon class="st2" points="-307.6,1133.3 -361.7,1148.2 -339.6,1172.8 -307.2,1208.8 -223,1184.8 		"/>
		<polygon class="st3" points="-339.6,1172.8 -380.8,1220.4 -343.4,1324.1 -223,1184.8 -307.2,1208.8 		"/>
		<polygon class="st4" points="-223,1184.8 -343.4,1324.1 -252.8,1367.9 -211.4,1320.6 -245.6,1279.3 		"/>
		<polygon class="st2" points="-223,1184.8 -245.6,1279.3 -211.4,1320.6 -191.6,1344.4 -177.7,1284.1 		"/>
	</g>
	<g id="_Grupo__82_" class="st1">
		<polygon class="st2" points="-523.7,1133.3 -577.8,1148.2 -555.7,1172.8 -523.3,1208.8 -439.1,1184.8 		"/>
		<polygon class="st3" points="-555.7,1172.8 -596.9,1220.4 -559.5,1324.1 -439.1,1184.8 -523.3,1208.8 		"/>
		<polygon class="st4" points="-439.1,1184.8 -559.5,1324.1 -468.9,1367.9 -427.5,1320.6 -461.7,1279.3 		"/>
		<polygon class="st2" points="-439.1,1184.8 -461.7,1279.3 -427.5,1320.6 -407.7,1344.4 -393.7,1284.1 		"/>
	</g>
	<g id="_Grupo__81_" class="st1">
		<polygon class="st2" points="-739.8,1133.3 -793.9,1148.2 -771.7,1172.8 -739.3,1208.8 -655.2,1184.8 		"/>
		<polygon class="st3" points="-771.7,1172.8 -813,1220.4 -775.5,1324.1 -655.2,1184.8 -739.3,1208.8 		"/>
		<polygon class="st4" points="-655.2,1184.8 -775.5,1324.1 -684.9,1367.9 -643.5,1320.6 -677.8,1279.3 		"/>
		<polygon class="st2" points="-655.2,1184.8 -677.8,1279.3 -643.5,1320.6 -623.8,1344.4 -609.8,1284.1 		"/>
	</g>
	<path class="st5" d="M1485.6,369.5c-9.7-26.9-22.5-51.2-44.5-69c3.6-1.1,6.3-1.8,8.7-2.7c13.9-5.4,26-13.6,31.5-30.4
		c11.7-35.3-7.7-70.8-40.2-74.2c-26.1-2.7-52.3-0.8-78.6-1.2c-2.2,0.1-4.3,0.5-6.5,1.2c-6.5,1.2-11.4,7.3-12.1,14.8
		c-0.5,3.8-0.8,7.6-0.8,11.4v148.4c0,3.6,0.3,7.1,0.8,10.6c0.9,10.3,8.9,17.8,17.8,16.7c1.4-0.2,2.7-0.5,4.1-1.1
		c8.1-2.9,12.2-10,12.3-22.4c0.1-20.1,0.1-40.4,0-60.6c0-4.2,0.9-6,4.7-5.4c2,0.2,3.9,0.2,5.9,0c15-1.4,26.2,5.9,34.1,20.3
		c9.7,17.7,19,35.6,28.6,53.2c2.3,4.6,5.3,8.7,8.9,12c6.6,5,15.1,4.8,21.5-0.4C1487.8,385.4,1489.1,379.2,1485.6,369.5z
		 M1394.4,276.6c-5.1,0-11.9,2.6-15.1-1.1s-0.8-11.5-0.9-17.4c0-10.1,0.3-20.1,0-30.3c-0.1-4.8,1.3-5.9,5.1-5.8c6.4,0.3,13,0,21,0
		c7.8,0.5,16.9-0.8,26.1,1.5c10.3,1.9,18,11.8,18.6,23.8c0.5,13.9-4.6,22.2-16.3,26.3C1420.3,278.1,1407.3,276.4,1394.4,276.6
		L1394.4,276.6z"/>
	<path class="st5" d="M1096,394.8c-14.8-0.6-29-2.4-41.6-10.9c-13.7-8.4-23.6-23.2-27.1-40.7c-1.1-4.1-1.1-8.6,0-12.7
		c1.5-6.8,6.5-11.9,12.5-12.9c5.5-1.3,11.1,1.4,14.3,6.8c3.8,5.9,5.8,13,8.4,19.5c11.4,28.2,50.2,23.9,62.3,7.1
		c7.7-10.1,6.9-25.6-1.9-34.5c-1-1-2.1-1.9-3.3-2.7c-7.6-5.8-16.5-7.7-25.2-10.1c-14.6-4.3-29.4-7.9-42.5-16.8
		c-21.1-14-28.3-45.1-16.2-69.4c2-4,4.4-7.6,7.3-10.9c23.8-27,80.1-26.1,103.2,1.5c6.6,7.2,10.4,17.1,10.6,27.6
		c0.1,8.1-4.2,15.3-10.8,18c-7.1,2.4-13-0.2-17.3-7.9c-2.5-4.4-4.5-9.2-7-13.6c-10.6-18.8-39.6-22.4-53.6-6.8
		c-8.3,9.2-7.5,21.9,2.2,29.7c7.1,5.9,15.5,8,23.6,10.4c12.5,3.3,24.9,7.4,37,12.5c19.4,8.6,32.8,23,33.6,48.6
		c0.8,27.2-9.5,46.9-30.7,58.9C1121.6,392.6,1108.6,394.2,1096,394.8z"/>
	<path class="st5" d="M1314.3,370.4c-3.8-4.1-7.8-8-12.1-11.5c-4.6-3.6-5.6-6.8-2.4-12.5c3.8-6.5,6.4-13.8,7.8-21.5
		c1.4-8.5-0.8-14.1-6.7-16.6c-5.9-2.6-10.5-0.3-14.2,7.9c-2.7,5.9-4.9,12.1-7.5,18.8c-8.9-10.4-16.3-21.1-24-31.7
		c6.6-4.5,12.7-9.7,18.3-15.6c15.1-17.1,12.3-43.3-6.4-54.7c-14.7-9.4-32.6-8.9-47,1.1c-14,9.1-18.6,27.6-11.9,44.5
		c2.2,5.8,5.2,11.1,8.8,15.9c3.1,3.9,2.1,5.6-1.4,7.6c-5.1,2.9-9.9,6.6-14.2,10.9c-23.2,22.9-18.2,62.4,10,75.7
		c23.4,11,45.8,8.3,65.9-10.3c3-2.9,4.6-2.9,7.5,0c5.1,5.3,10.5,10,16.3,14.2c5.5,4,12.7,2.2,16.3-3.9
		C1320.8,382.5,1319.8,376,1314.3,370.4z M1231.5,255.1c2.3-5.2,6.9-8.6,11.9-8.9c8.8,0.2,13.9,3.3,16.3,10.1
		c2.7,7.4,0.7,13.8-4.3,19.1c-11.7,12.5-14.9,12.1-23-3.9C1230,266.1,1228.6,260.7,1231.5,255.1z M1261.3,360.5
		c-7.1,6.5-14.4,11.5-23.7,11.5c-10.3,0.3-19.7-7-23.3-18.2c-3.4-10.8-0.5-20.9,8.4-29.4c0.1-0.2,0.3-0.4,0.5-0.5
		c8.8-8,8.8-8,16,1.8c6.9,9.8,14.3,19.1,22.2,27.8C1263.9,356.4,1264.2,357.9,1261.3,360.5L1261.3,360.5z"/>
	<path class="st5" d="M59.1,285.3c26.9-22.2,44.2-22.1,60.6,0.9c7-8,14.4-14.8,24.7-16.6c7.4-1.5,15-0.5,21.9,2.7
		c11,5,16.7,15,17.3,28.6c1.2,24.2,0.7,48.5,0.4,72.7c0,12.1-5.4,18.5-13.6,18.2c-8.1-0.3-13.1-7.3-13.3-18.8c0-15.6,0-31.3,0-46.9
		c0-4.8,0-9.5,0-14.4c-0.5-12.3-4.4-18.8-11.8-19.7c-9.5-1-18.3,6.1-20.6,16.8c-1.4,7.7-1.9,15.5-1.6,23.3
		c-0.1,13.6,0,27.2-0.1,40.9c0,7.6-1.4,14.7-8.6,17.7c-6.2,3.2-13.5,0-16.3-7.2c-0.4-1-0.7-2.1-0.9-3.2c-0.7-3.9-1-8-0.9-12
		c0-19.2,0-38.3-0.4-57.5c0-11.6-3.9-17.7-10.8-18.8c-10.6-1.5-17.7,3.3-20.9,14.4c-2.2,8.8-3.1,17.9-2.7,27c0,13.2,0,26.2,0,39.4
		c0,10.7-3.1,16.2-9.7,18.5c-6.3,2.3-13.1-1.4-15.6-8.5c-0.6-1.4-0.9-2.9-0.9-4.4c-1.1-32.3-1.2-64.5,0-96.8
		c0.3-8.2,5.2-12.5,11.7-12.5c6.4-0.4,12,5.3,12.3,12.7C59,282.8,59,284,59.1,285.3z"/>
	<path class="st5" d="M-93.6,307.2v-60.6c0-14.1,4.9-19.8,17-20c25.2,0,50.2,0,75.4,0c4.7,0,9.3,1.1,11.9,6.3
		c3.1,5.8,1.6,13.3-3.4,16.9c-1,0.7-2,1.2-3.2,1.5c-2.5,0.7-5.1,1-7.7,0.9c-18.6,0-37.1,0.3-55.7,0c-5.4-0.2-6.6,1.8-6.3,7.6
		c0.4,8.6,0.4,17.1,0,25.7c0,5,1,6.3,5.4,6.3c18-0.3,35.8,0,53.8,0c8.8,0,13,4.2,13,12.1c0,7.9-4.2,12-13,12.1
		c-17.3,0.2-34.5,0.4-51.8-0.2c-6,0-7.7,1.8-7.5,8.6c0.5,10.6,0.4,21.2,0,31.8c0,5.2,0.9,6.8,5.6,6.8c20.1-0.3,40.2-0.2,60.3-0.2
		c9.1,0,13.6,4.1,14,12c0.8,6-2.7,11.7-7.9,12.9c-2.7,0.8-5.6,1.1-8.4,0.9h-72.7c-14.4,0-19-5.3-19-21.6
		C-93.6,347.1-93.6,327.1-93.6,307.2z"/>
	<path class="st5" d="M544.4,278.4c-1.3-6.2-6.3-10.3-11.8-9.5c-5.3-0.2-9.9,3.9-11,9.8c-0.8,2.9-1,5.9-1.7,9.5
		c-11.3-16.8-25.3-22.2-42.2-18c-16.3,4.1-26.4,16-31.4,33.9c-5,17.7-4.8,36.8,0.8,54.2c8,25,27.9,37.5,50.1,31.8
		c8.7-2.3,15.7-8.2,23.4-15.6V406c-0.3,6.8,0,13.6,0.9,20.3c0.5,6.3,5.3,11.1,10.8,10.6c5.5,0.6,10.5-3.5,11.7-9.7
		c0.9-3.9,1.3-7.9,1.3-12V288.1C545.4,284.8,545.1,281.5,544.4,278.4z M513.6,356.6c-10,17.4-30.8,16.8-39.4-1.4
		c-7.3-15.1-7.5-33.4-0.5-48.7c8.4-19.5,30.6-19.8,40.4-1.2c4,8.1,5.9,17.4,5.2,26.7C519.7,340.6,517.6,349.2,513.6,356.6
		L513.6,356.6z"/>
	<path class="st5" d="M308.9,311.1c-5.9-29.8-27.1-46.5-51-40.9c-10.2,2.4-17.3,9.9-24.4,18.8c-0.5-3.6-0.8-6.3-1.3-9.1
		c-1.2-6.7-6.6-11.3-12.5-10.7c-7.1,0.3-11.3,5.9-11.3,16.2c0,44.6,0,89.3,0,134c0.2,2.5,0.5,5,0.9,7.4c0.9,7.4,4.9,10.4,10.8,10.4
		c5.5,0.5,10.5-3.8,11.5-10c0.9-4.9,1.3-10,1.2-15c0-12.7,0-25.4,0-40c1.8,2.1,2.7,2.9,3.3,3.8c19.6,26.7,58.8,18.8,70-17.2
		C311.2,343.5,312.1,326.9,308.9,311.1z M280.5,352.4c-3.7,9.7-9.9,15.9-19.5,16.4c-10.2,0.6-17.4-5.2-22.4-15
		c-3.4-7.4-4.9-15.7-4.3-24.1c-0.3-7.9,1.1-15.7,4.2-22.7c4.9-10,12.1-15.6,22.3-15.3c8.8,0.1,16.6,6.5,19.6,16
		C286,321.9,286,338.2,280.5,352.4z"/>
	<path class="st5" d="M426.2,375c-4.3-14.4-4.6-29.2-4.1-44c0-7.9,0.3-15.6,0-23.5c-0.9-22.2-8.5-33.6-25.8-37.9
		c-13.1-3.4-26.7-3.1-39.6,0.9c-11.1,3.6-20.6,10-24.4,23.6c-2.5,8.3-0.7,14.5,4.9,17.6c6,3.3,10.4,1.8,14.4-6.5
		c6.2-12.5,15.1-17.4,27.1-16.6c11.5,0.6,15.7,5,17.6,18.3c0.7,4.8-0.3,6.7-4.5,7.7c-14.8,3.7-29.8,7.3-44.4,12
		c-12.9,3.7-21.6,17.4-20.9,32.7c0.9,15.4,10.7,28.1,23.9,31c13.8,3.3,28.2,0,39.8-9.1c7.8-5.6,7.6-5.4,13.8,2.7
		c1,1.4,2,2.6,3.1,3.8c3.5,4.5,9.4,5.3,13.8,2C425.8,386.3,428.1,381.5,426.2,375z M375.9,371.1c-4.5,1.4-9.2,1.3-13.6-0.5
		c-5.6-1.9-9.5-7.8-9.7-14.5c-0.5-6.6,3.1-12.6,8.5-14.5c3.8-1.7,7.8-3,11.8-3.9c7.6-2,15.2-3.8,23.4-6.1
		C398.1,354.2,391.6,367,375.9,371.1L375.9,371.1z"/>
	<path class="st5" d="M780.4,351.8c-4.7-4.4-9.7-3.1-14,1.8c-4.1,4.9-8.8,9.1-13.9,12.5c-17.6,11.2-37,0.2-40.3-22.6
		c-0.8-5.5,0.5-7,5.3-6.7c7.9,0.4,15.7,0.2,25.3,0.2c8.4-0.6,18.5,1,28.6-0.9c11-2.1,14-6.5,13.6-19.5
		c-0.9-25.6-16.4-44.4-40.1-48.6c-27.3-4.8-50.2,11.6-57,40.9c-2.1,10.1-2.7,20.5-1.7,30.8c2,25,15.5,43.5,36.2,49.5
		c10.2,3.1,20.9,3.2,31.1,0.3c11.7-3.3,22.2-9.5,28.1-22.6C783.5,362,784.9,356,780.4,351.8z M712.2,315.8
		c0.5-15.5,11.8-27.7,25.3-27.1c2.7,0.1,5.3,0.7,7.8,1.8c8.3,4.8,13.7,14.3,14.1,25c0,3.8-1.8,3.1-3.7,3.1c-6.6,0-13.1,0-19.7,0
		h-20.2c-2,0.3-3.9,1.1-3.8-2.9H712.2z"/>
	<path class="st5" d="M639.7,371.8c-9.3,13.2-20.3,19.5-33.7,19.8c-20.2,0.4-33.6-13.2-34.2-36.4s-0.4-47.4-0.1-71.1
		c0.1-9.1,4.9-14.7,11.8-15.3c6.6-0.9,12.7,4.6,13.5,12.2c0.1,0.6,0.1,1.1,0.1,1.7c0.7,13,0.4,26.2,0.5,39.4
		c0.1,7.9,0.1,15.6,0.5,23.5c0.8,14.5,6.3,22.4,15.5,23.2c11.6,1,22-8.3,24-21.5c1.7-9.5,0.9-19.1,1-28.6
		c0.3-10.9-0.1-21.6,0.1-32.5c0.3-9.4,3.6-14.9,9.8-16.7c6.4-2,13.1,2.1,15.1,9.4c0.9,3.4,1.3,6.9,1.2,10.4v87.1
		c-0.7,9.7-4.7,15.1-11.5,15.5s-11.4-4.4-12.7-14C640.1,375.9,639.8,373.9,639.7,371.8z"/>
	<path class="st5" d="M847.2,391.8c-11.5-0.3-22.2-2.3-31.7-9.4c-6.6-4.3-11.1-11.7-12.5-20.3c-1.3-5.7,1.4-11.6,6.2-13.6
		c4.5-2.7,10-1,12.9,3.8c1.4,2.3,2.7,4.7,3.9,7c7.7,12,21.5,16.3,33.3,10.4c4.1-2.1,7.6-5.2,7.8-11c0.3-5.7-2.8-11-7.5-12.9
		c-7.8-4.1-16.3-5.6-24.4-8.6c-6.5-2-12.8-5-18.6-8.9c-15.5-11.5-17-33.2-3.4-47.6c6.5-6.4,14.6-10.3,23.1-11.2
		c12.9-2.2,26,0.2,37.6,6.8c5.7,2.9,10.1,8.2,12.5,14.8c1.8,5.6,1.7,11.4-2.9,15c-4.3,3.9-10.4,3.7-14.6-0.4
		c-2.7-2.9-5.2-6.1-7.6-9.4c-7.2-8.5-18.5-10.6-27.7-5.2c-7.5,4.8-7.6,13.2-0.3,18.3c6,4.2,13.1,5.4,19.8,7.4c8.1,2,16,5.1,23.5,9.1
		c9.1,5.4,15.7,12.9,15.9,25.6c0,13.9-4.6,25-15.4,31.9C867.7,390.1,857.2,391.2,847.2,391.8z"/>
	<path class="st5" d="M871.8,505.4c0,18.8-0.9,20.3-16.1,26.9c-10.8,5.1-22.7,6.1-34,2.9c-15.7-4.7-25.4-16.5-29.1-34.9
		c-4.5-22.4,1.6-45.7,15.7-56c13.7-10.4,31.2-11.9,46.1-3.9c6.4,3,11.3,8.9,13.8,16.4c1.8,5.4,1.1,10.1-3.8,12.7
		c-4.9,2.6-8,0.2-10.4-4.4c-4.5-8.8-10.2-14.7-19.8-14.5c-12.1,0.3-20.2,6.8-23.9,20.1c-2.6,9.7-2.7,20.1-0.2,29.8
		c4.1,16.8,16.6,24.7,32.3,20.6c2.3-0.7,4.6-1.5,6.8-2.4c6.2-2.7,9.3-10.7,7.1-17.9c-0.8-2.4-2.4-1.7-3.8-1.8
		c-4-0.2-7.9,0.3-11.8-0.2c-3.9-0.5-7.5-1.8-7.1-7.7c0.4-5.9,3.7-7.1,7.7-7.1c6.2,0,12.2,0,18.4,0c9.6,0.2,12.1,3.1,12.2,13.9
		L871.8,505.4z"/>
	<path class="st5" d="M1085.9,443.3c-0.1-4.2-3.2-7.6-6.8-7.6c-3.5-0.4-6.5,2.5-6.9,6.5c-0.5,3.2-0.8,6.4-0.8,9.7
		c-0.1,6.8,0,13.8,0,21.5c-2.5-2.3-3.9-3.6-5.4-5c-11-9.6-26.6-7-34.9,5.7c-1.5,2.4-2.8,5-3.6,7.8c-3.8,12-3.5,25.2,0.8,36.9
		c4.2,12.7,15.7,20.1,27.3,17.6c6-1.6,11.4-5.3,15.5-10.6c0.4,1.7,0.7,2.4,0.8,3.1c0.9,4.8,3.3,8.6,8.1,7.9c4.9-0.8,6.4-5,6.4-10.4
		v-80.1C1086.2,445.3,1086.1,444.3,1085.9,443.3z M1054.7,523.5c-8.8-0.6-14.7-10.1-14.6-23.8c0.1-13.2,5.6-22.4,13.6-23.2
		c10-0.9,16.8,8.5,16.9,23.5C1070.8,514.6,1064.4,524,1054.7,523.5z"/>
	<path class="st5" d="M671.1,435.5c-4.9-0.3-6.8,3.6-7.3,8.6c-0.3,3-0.4,6-0.4,9.1v20c-2.5-2.3-3.9-3.6-5.4-5
		c-11-9.5-26.6-6.9-34.8,5.8c-1.5,2.4-2.8,5-3.6,7.8c-3.8,12-3.5,25.2,0.8,36.9c4.4,12.9,16.2,20.2,27.9,17.3
		c5.7-1.4,10.1-5.2,14.9-10.4c1.1,6.7,2.7,12,8.5,11s6.4-6.8,6.4-12.7v-78.6C678,439.7,676.2,435.9,671.1,435.5z M660.7,512.8
		c-1.8,6.8-7.4,11.2-13.6,10.8c-5.8-0.1-11-4.4-12.9-10.8c-1.3-3.3-2-6.8-2.1-10.4c-0.2-5.8,0.8-11.5,2.9-16.8
		c3.1-7.9,11.1-11.4,17.9-7.8c2.9,1.5,5.2,4.1,6.6,7.4C663.7,493.6,664.1,503.8,660.7,512.8z"/>
	<path class="st5" d="M1159.2,525.9c-2.7-8.8-2.5-17.9-2.5-26.9c0.2-5,0.1-10-0.4-15c-0.8-10.4-5.3-17-13.3-19.2
		c-5.5-1.7-11.2-2.3-16.8-1.8c-8.4,1.2-16.9,3.1-21.9,12.5c-2.4,4.4-3.9,9.4,0.9,13.3c4.9,3.9,7.3,0,10-4.3
		c4.6-7.5,12.9-10.5,20.3-7.4c3.9,1.6,6.4,6,6,10.8c0.1,4.5-3.7,3.5-5.9,4.1c-7.3,2.1-14.8,3.6-22.2,5.7
		c-8.8,2.6-13.9,9.7-13.8,19.2c0.1,9.5,5.2,16.2,14,19.1c7.6,2.4,15.8,0.8,22.3-4.5c4.7-3.5,7.8-5,11,1.8c1.5,3.5,5.2,4.9,8.1,3.1
		c0.1-0.1,0.3-0.2,0.4-0.2c3.3-1.5,5-5.8,3.8-9.6C1159.4,526.3,1159.3,526.1,1159.2,525.9z M1124,524.9c-4.3,0.1-8-3.7-8.5-8.6
		c-0.7-4.6,2-9,6-9.8c0.1,0,0.2,0,0.3,0c6.4-2.1,13-3.8,19.9-5.6C1142.6,517.4,1135.9,526.2,1124,524.9L1124,524.9z"/>
	<path class="st5" d="M1260.1,525.3c-2.7-8.6-2.4-17.4-2.2-26.2c0-2.4,0-5,0-7.6c0-19.7-3.8-25.6-20.3-28.3
		c-11.7-1.8-23.3-0.8-31.5,11.2c-2.9,4.2-4.9,9.9,0,14.1c4.9,4.2,7.6,0,10.4-4.4c4.7-7.3,13.1-10.1,20.5-7c3.6,1.7,5.8,5.8,5.6,10.3
		c0.3,4.5-3.4,3.6-5.6,4.3c-7.3,2-14.8,3.6-22.2,5.8c-8.9,2.6-14,9.7-14,19.1s5.1,16.5,13.8,19.4c8.1,2.5,16.7,0.6,23.5-5.2
		c4.2-3.1,6.6-4.1,9.4,1.7c1.4,3.8,5.2,5.5,8.5,3.9c0.3-0.2,0.7-0.4,1-0.6c3.4-1.7,4.9-6.2,3.4-10.1
		C1260.2,525.6,1260.2,525.4,1260.1,525.3z M1224.9,524.9c-4.3,0.1-8-3.7-8.5-8.6c-0.7-4.7,2.1-9,6.1-9.8c0.1,0,0.1,0,0.2,0
		c6.4-2.1,13-3.8,19.9-5.6C1243.6,517.4,1236.9,526.2,1224.9,524.9L1224.9,524.9z"/>
	<path class="st5" d="M1014.8,525.2c-2.7-8.6-2.2-17.4-2.4-26.2c0-5,0.2-10.1,0-15.1c-0.8-10.3-4.9-16.5-12.6-18.9
		c-5.9-2-12-2.7-18.1-2c-8.4,1.4-16.9,3.3-21.7,13c-2.1,4.3-3.4,9.1,1.2,12.7s7.3,0.2,10-4.1c4.5-7.5,12.8-10.6,20.3-7.6
		c3.9,1.5,6.4,5.9,6,10.6c0.1,4.5-3.7,3.6-5.9,4.3c-7.3,1.9-14.8,3.6-22.2,5.7c-8.9,2.6-13.9,9.9-13.9,19.2s5.1,16.4,13.9,19.2
		c8.1,2.4,16.8,0.5,23.5-5.3c4.4-3.5,6.7-3.5,9.4,1.8c1.5,3.8,5.5,5.4,8.7,3.6c0.1,0,0.1-0.1,0.2-0.1
		C1015.8,533.6,1016.2,529.6,1014.8,525.2z M980,525c-4.3,0.2-8.1-3.4-8.8-8.3c-0.9-5.9,2.4-8.9,6.6-10.3c6.4-2.3,13-3.8,19.5-5.4
		C998.6,517,992,526.1,980,525L980,525z"/>
	<path class="st5" d="M1362.4,525.8c-2.7-8.6-2.5-17.4-2.5-26.2c0-5.3,0.4-10.7,0-15.6c-0.8-10.4-5.4-17-13.4-19.1
		c-5.3-1.6-10.8-2.2-16.3-1.7c-8.8,1.2-17.5,2.9-22.6,12.5c-2.4,4.4-3.9,9.5,1.1,13.3s7.2-0.3,9.8-4.4c4.6-7.4,12.9-10.3,20.3-7.3
		c3.6,1.5,6,5.5,5.9,10c0.4,5.3-3.7,3.9-6,4.7c-7.1,2.1-14.3,3.6-21.5,5.6c-9.1,2.6-14.2,9.4-14.3,18.8c-0.1,9.4,5,16.8,14.2,19.7
		c7.9,2.5,16.4,0.6,23-5c4.4-3.3,6.9-4.4,10,1.8c1.4,3.6,5.1,5.2,8.3,3.5c0.2-0.1,0.4-0.3,0.6-0.4c3.4-1.7,4.9-6.2,3.5-10.1
		C1362.4,525.9,1362.4,525.8,1362.4,525.8z M1327.4,524.9c-4.3,0.2-8.1-3.5-8.6-8.5c-0.9-5.9,2.4-8.9,6.7-10.3
		c6.4-1.9,12.8-3.5,19.4-5.1C1346.2,517.2,1339.5,526.1,1327.4,524.9L1327.4,524.9z"/>
	<path class="st5" d="M1481.8,525.6c-2.7-8.6-2.5-17.4-2.5-26.2c0-5.3,0.4-10.6,0-15.4c-0.8-10.8-5.6-17.3-14-19.2
		c-4.8-1.4-9.8-2-14.8-1.7c-8.8,1.1-17.5,2.6-22.8,12c-2.7,4.5-4.5,9.9,0.8,14c4.9,3.8,7.3-0.5,9.8-4.6c4.6-7.4,12.9-10.4,20.3-7.3
		c3.5,1.7,5.8,5.7,5.8,10.1c0.4,5.3-3.7,4.1-6,4.7c-7.3,2.1-14.8,3.6-22.2,5.8c-7.8,1.7-13.5,9.6-13.6,18.8c0,9.4,5,16.6,13.6,19.5
		c8.1,2.5,16.8,0.7,23.6-5c4.4-3.5,6.9-4.2,10,1.8c1.4,3.6,5.1,5.2,8.3,3.5c0.2-0.1,0.4-0.3,0.6-0.4c3.3-1.7,4.8-6.2,3.3-10.1
		C1481.9,525.8,1481.8,525.7,1481.8,525.6z M1447.7,525c-5.2,0-8.9-2.9-9.7-8.9c-0.8-6,3.3-8.9,7.8-10.3c6-2,12.2-3.3,18.6-4.8
		C1465,517.4,1459.3,525.3,1447.7,525z"/>
	<path class="st5" d="M747.5,513.7c-2.7-2.4-5.6-1.2-8.1,1.5c-2.7,3.3-5.9,6-9.5,8c-7.8,4.6-17.4,1-21.4-8.1c-0.6-1.3-1-2.7-1.3-4.2
		c-0.8-3.9-0.5-6,3.8-5.9c9.2,0.3,18.3,0,27.5,0c10-0.2,12.5-3.5,11.7-14.7c-1.6-20.7-21.2-33-40.1-25.3
		c-14,5.8-21.7,22.7-18.8,41.8c2.9,19.1,13.9,30.1,33.4,30.1c7.6-0.8,17-2.9,23-13.2C749.6,520.5,751,516.5,747.5,513.7z M708.6,486
		c2.5-7,9-10.9,15.5-9.4c5.9,1.4,10.4,7,11.3,13.9c0.4,2.7,0,4.2-2.7,4.1c-4.1-0.2-8,0-11.9,0h-7.2
		C706.1,494.6,705.6,493.7,708.6,486L708.6,486z"/>
	<path class="st5" d="M928.4,526.1c-4.7,4.4-9.1,8.8-15.1,10.1c-14.2,3.3-24.8-4.8-25.4-21.2c-0.7-14.1-0.2-28.2-0.1-42.4
		c0-5.3,2.2-9.5,7.2-9.7c4.1-0.3,7.7,3.3,8,8.1c0,0.3,0,0.6,0,0.9c0.4,5.4,0.2,11,0.2,16.6c0.1,7.1,0,14.1,0.3,21.2
		c0.4,8.9,3.7,13.3,9.6,13.6c6.6,0.5,12.5-4.6,14-12c0.9-6.2,1.3-12.5,1.1-18.8c0-7.1-0.1-14.1,0.1-21.2c-0.2-4.5,2.9-8.3,6.8-8.5
		c0.3,0,0.5,0,0.8,0c3.8-0.3,7.1,3,7.4,7.4c0,0.4,0,0.8,0,1.2c0.1,7.3,0.1,14.7,0.1,21.9v33.3c0,5.3-1.6,9.7-6.7,10
		c-5.1,0.3-7-3.1-7.5-8.5C929.1,527.7,928.7,527.3,928.4,526.1z"/>
	<path class="st6" d="M1290.4,509.3c0,11.5,0.2,23.2,0,34.7c-0.3,11.9-8.9,21.3-19.2,21c-3.4-0.1-6.8-1.3-9.6-3.4
		c-2.4-1.5-3.6-4.7-2.9-7.7c0.4-3.1,2.7-5.3,5.4-5.2c10.8-0.9,10.8-0.9,10.8-13.3v-57.4c0-2.3,0-4.5,0.2-6.8c0-4.6,3.2-8.3,7.1-8.3
		c0.2,0,0.4,0,0.6,0c5,0.2,7.3,3.8,7.5,9.4c0,12.5,0,24.8-0.1,37.1H1290.4z"/>
	<path class="st6" d="M1172.8,486.3v-38.6c0-5.9,1-11.4,7.3-12c5-0.4,8,3.9,8,12.1c0.1,25.7,0,51.5,0,77.2c0,6.1-1.3,11.2-7.3,12.1
		c-4.9,0.6-7.9-4.1-8.1-12.1C1172.6,512,1172.8,499.1,1172.8,486.3z"/>
	<path class="st5" d="M1392.3,472.8c8.6-10.8,14.7-12.5,23.2-7c3.3,2.1,5.9,4.8,4.3,9.7c-1.6,4.8-5.1,5.4-8.6,4.1
		c-12.1-4.7-16,1.3-17.7,13.8c-1.3,9.7-0.4,19.5-0.7,29.4c0,2.7-0.2,5.5-0.8,8.2c-1.1,4.5-5.1,7-9,5.8c-2.5-0.8-4.4-3.1-5-5.9
		c-0.5-1.4-0.7-2.9-0.8-4.4c0-17.4-0.1-34.8,0-52.1c-0.2-3.3,0.8-6.6,2.7-9.1C1384.5,459.9,1390.2,463.1,1392.3,472.8z"/>
	<path class="st5" d="M653.5,594.5h822.9c3.7-0.3,7.4,0.1,11,1.1c7.5,2.6,11.4,8.2,11.4,17c0.5,8.2-4.3,15.5-11.3,17.1
		c-3,0.9-6,1.2-9.1,1.1H-170.8c-12.8,0-19.8-5.9-20.2-17c-0.4-10,3.7-16.3,12.2-18.5c3.2-0.7,6.5-1,9.7-0.9
		C105.4,594.5,379.6,594.6,653.5,594.5z"/>
	<path class="st7" d="M1360,416.9c-6.6,0-13.1-2.2-18.6-6.3c-8.8-6.4-14.7-16.9-16.3-28.8c-0.7-4.7-1.1-9.5-1.1-14.3V219.3
		c0-5,0.4-9.9,1-14.8v-0.2c2-16.2,12.6-29.3,26.5-32.6c3.6-1.1,7.3-1.7,11-1.8c8.7,0.2,17.6,0,26.3,0c17.9-0.6,35.8-0.2,53.7,1.4
		c36.1,2.8,63.4,38.9,61,80.6c-0.5,8-2,15.9-4.7,23.3c-4.4,13.5-12.5,25-23.1,32.6c11.4,16,20.5,33.9,27.1,53.2
		c6.7,18.4,3.2,35.5-9.6,46.9l0,0c-12.9,11.1-30.5,11.5-43.8,1.1l-0.4-0.3c-5.6-4.9-10.3-11-13.8-18c-4.1-7.6-8.1-15.1-12.1-22.6
		c-5.4-10.1-10.8-20.5-16.5-30.7c-2.1-4.4-5.5-7.7-9.6-9.4c0,14.5,0,29.2,0,43.6c-0.3,30.9-18.1,40.7-25.8,43.2h-0.2
		C1367.6,416.2,1363.8,416.9,1360,416.9z M1380.3,327.3L1380.3,327.3z M1362,285.5v10.7c1-2,2.1-3.8,3.5-5.4
		c-1.3-1.6-2.5-3.4-3.4-5.3L1362,285.5z M1397.3,254.6c2.1,0,4.2,0,6.3,0c9,0.2,16.9,0.3,23.7-2c0.9-0.3,1.9-0.7,2.7-1.3
		c0.2-1,0.2-2.1,0.1-3.1c0-0.7-0.2-2.5-3.5-3.3c-4.7-0.9-9.5-1.2-14.2-1c-2.7,0-5.6,0-8.5,0h-6.5c0,0.7,0,1.4,0,2.1c0,3.1,0,6,0,8.6
		L1397.3,254.6z"/>
	<path class="st7" d="M1096,416.8h-0.7c-16.5-0.7-34-2.8-50.4-13.8c-18.2-11.4-31.3-31.3-36.2-54.5c-1.9-8-1.9-16.5,0.2-24.4
		c3.2-12.9,11.8-23,22.9-26.8c-11.5-11.8-18.9-28.1-20.7-45.7c-2.4-22.4,4.5-44.9,18.6-60.6c15-16.9,38.8-26.3,65.5-25.9
		c26.7,0.4,50.2,10.6,64.7,27.9c10.6,12.8,16,27.2,16,42.8c0,14.3-6.4,27.5-16.9,35.1c15.1,12.9,24.1,33.2,24.4,54.9
		c1.1,36.1-13.2,63.5-41.2,79.3c-15.6,9.1-31.7,11-45.4,11.6L1096,416.8z M1074,320.4c1.5,3.4,2.7,6.6,3.7,9.4
		c0.7,1.7,1.2,3.3,1.8,4.8c2.1,5.1,7.2,6.9,11.2,7.5c9.1,1.4,17.5-2.7,19.2-5.1c0.6-0.7,0.9-1.6,0.9-2.5c-0.3-1-0.9-1.8-1.8-2.3
		c-5.1-3.1-10.6-5.2-16.3-6.3l-3-0.8h-0.2l-4.5-1.3C1081.5,322.6,1077.8,321.5,1074,320.4z M1084.2,239c4,2,8.2,3.5,12.4,4.5
		l2.1,0.6l4.7,1.3l3.8,1.1c-0.4-0.9-0.9-1.7-1.3-2.5c-2.9-3.9-7.1-6.2-11.6-6.5C1090.8,237.2,1087.4,237.7,1084.2,239L1084.2,239z"
		/>
	<path class="st7" d="M1238.5,417c-11.7-0.1-23.3-2.9-34.1-8.2c-18.8-8.5-32.4-27.7-35.8-50.7c-3-23.4,4.8-47,20.7-62
		c1.3-1.3,2.7-2.5,4-3.7c-0.7-1.5-1.3-3.1-2-4.6l-0.1-0.3c-10.8-27.6-2.5-58.3,19.9-72.8c20-13.6,44.7-14.1,65-1.3
		c13.8,8,23.4,23.2,25.8,40.9c1.3,10.6,0,21.4-4,31c3.3,0.2,6.6,1,9.7,2.4c14.7,6.4,21.9,22.3,18.6,41.4c-1.1,6.5-3,12.8-5.4,18.8
		c2.1,2,4,4.1,5.9,6l0.2,0.2l0,0c12.4,13,14.7,31.7,5.9,46.6c-9.3,15.9-27.8,20.5-41.9,10.3c-3.7-2.6-7.2-5.5-10.5-8.5
		C1267.9,411.8,1253.3,416.9,1238.5,417z M1261.4,360.5L1261.4,360.5z M1203.2,309.2L1203.2,309.2z M1244.3,263.9l-2,0.9
		c0.5,1.3,1.4,2.4,2.5,3.1c1.1-0.1,2.2-0.7,3-1.6L1244.3,263.9z M1244.3,263.9l3.6,2.4c0.4-0.9,0.7-1.8,0.9-2.8
		c-0.7-0.3-1.3-0.6-2-0.8L1244.3,263.9z M1242,262.4c-0.1,0.8,0,1.5,0.2,2.3l1.8-0.8L1242,262.4z M1242,262.4l2.1,1.4l2.3-1.1
		C1245,262.3,1243.5,262.2,1242,262.4L1242,262.4z"/>
	<path class="st7" d="M47.4,413.9c-12.8,0-24.3-8.9-29.2-22.6c-1.5-3.9-2.3-8.2-2.4-12.5c-1.1-34.9-1.1-67.1,0-98.2
		c0.4-18.9,13.9-33.9,30.3-33.5c0.1,0,0.3,0,0.4,0c7.1-0.1,13.9,2.5,19.5,7.5c14.7-8.2,34.7-13.5,54.5,2.4c6.3-4.8,13.5-8,20.9-9.4
		c10.8-2,21.9-0.5,32,4.3c17.5,8,28.1,25.4,29.2,47.7c1.1,21.9,0.8,43.5,0.5,64.5c0,3.1,0,6.4,0,9.7c-0.2,15.6-5.7,25-10.3,30.1
		c-13.2,13.9-33.7,12.9-45.7-2.4c-3.2-4-5.5-8.7-6.9-13.8c-2.7,11-9.9,19.8-19.3,23.6c-8.8,3.9-18.6,3.2-26.9-2
		c-7.7-5-13.2-13.4-15.2-23.2c-2.6,12.6-11,22.6-21.8,26.1C53.8,413.3,50.6,413.9,47.4,413.9z M53.9,378.3L53.9,378.3z M53.9,282.4
		L53.9,282.4z"/>
	<path class="st7" d="M-1.7,410.6h-72.8c-24.8,0-37.9-15-37.9-43.5c-0.1-19.9-0.1-40.2-0.1-59.9v-60.6c0-26,13.6-41.6,35.9-41.9
		c25.2-0.2,50.6-0.2,75.7,0c16,0,24.2,9.2,28.2,16.9c8.4,16.3,3.8,37.4-10.3,47.2c-2.4,1.7-5.1,3-7.8,3.8l-0.8,0.2
		c10.9,5.1,17.9,17.5,17.5,31.1c0,16.7-9.8,33.7-31.7,34.1h-0.2h-7.4c-10.7,0-21.7,0.2-32.5,0v2.9c10.6,0,21.2,0,31.6,0h15
		c23.1,0,32.2,17.5,33,32.6c1.5,16.4-7.8,31.5-21.7,35.4C7.4,410.1,2.8,410.7-1.7,410.6z"/>
	<path class="st7" d="M532.7,458.7h-0.8c-14.4,0.3-26.8-11.7-29.1-28.2c-1-6.2-1.4-12.5-1.3-18.8l0,0c-4.9,1.3-10,1.9-15,1.9
		c-25.7,0-47.6-17.7-57.2-47.6c-7-22-7.4-46.1-1.1-68.4c7.3-26.3,23-43.1,45.4-48.7c13.6-3.9,27.9-2,40.4,5.3
		c5.2-4.6,11.6-7.1,18.2-7.1c13.8-0.8,26.3,9.4,30.3,24.7c1.4,5.4,2,10.9,1.8,16.5v127c0,6-0.6,11.9-2,17.7c0,0.2,0,0.3,0,0.5
		C558.8,448.9,546.5,459.3,532.7,458.7z M493.8,313.4h-0.1c-0.8,0-1.9,0.4-2.9,2.7c-4.2,9-4.2,19.8,0.2,28.7
		c0.5,1.3,1.6,2.3,2.8,2.4c1.6,0,3.1-1.1,3.8-2.8c1.9-3.5,2.9-7.6,2.7-11.8c0-0.5,0-1,0-1.5c0.2-8.3-1.1-11.9-2.4-14.5
		C497.2,314.8,495.6,313.6,493.8,313.4L493.8,313.4z"/>
	<path class="st7" d="M220.2,459c-15.9,0-27.5-11.5-29.8-29.3c0,0,0-0.3,0-0.4c0-0.1-0.1-0.9-0.2-1.4c-0.5-2.9-0.8-5.8-0.8-8.8
		c0-14.9,0-29.8,0-44.6c0-29.3,0-59.6,0-89.4c0-21.9,11.9-37.3,29.6-38.1c7.5-0.5,14.9,2.2,20.8,7.6c4.5-2.8,9.2-4.8,14.2-5.9
		c34.3-8,65,16.1,73.4,57.4c4,19.9,2.9,40.7-3.3,59.9c-7.3,24.2-25.3,41.9-47.1,46.4c-8.3,1.8-16.8,1.5-25-0.8v0.5
		c0.1,6.6-0.5,13.1-1.6,19.6v0.2C247.2,448.2,234.5,459.6,220.2,459z M280.5,352.4L280.5,352.4z M259.3,313.6
		c-1.4,0-2.5,0.4-4.3,4.1c-1.4,3.8-2,7.9-1.8,12v0.5c-0.4,4.3,0.2,8.6,1.7,12.5c2.2,4.4,3.4,4.3,5.1,4.3h0.1c1.2,0,1.7,0,2.9-3.1
		c3.5-8.6,3.5-18.5,0-27.1c-1.1-2.8-1.5-2.9-3-2.9L259.3,313.6z"/>
	<path class="st7" d="M415,413.6c-7.7-0.1-15.1-3.6-20.6-9.7l0,0c-14.7,9.2-31.7,12-48,7.9c-21.5-4.9-37.5-25.9-38.8-51.2
		c-0.8-13.9,3.2-27.6,11.2-38.1c-6.5-9.2-8.4-21.9-4.4-35.3c5.4-18.8,18-31.3,37.3-37.7c15.9-5,32.7-5.4,48.8-1.3
		c25.9,6.3,39.6,25.9,41,58.3l0,0c0.2,5.7,0.1,11.3,0,16.7c0,2.5,0,5.1,0,7.6c0,0.3,0,0.6,0,0.9c-0.4,12-0.4,24.7,3,35.9
		c4.8,15.9-0.5,31.8-13.6,40.7h-0.2C426,411.7,420.5,413.5,415,413.6z M408.2,382.4L408.2,382.4z"/>
	<path class="st7" d="M738.2,413.5c-7,0-14-1.1-20.8-3.1c-28-7.8-48.4-35.6-50.4-68.8c-1.2-12.9-0.4-25.9,2.3-38.4
		c9.3-40,41.5-63.4,78.3-56.9c32.9,5.9,54.9,33.1,56.2,69.4c0.8,9.4-1.1,18.8-5.4,26.8c4.6,8.4,6.1,20.4,0,34.4
		c-7.7,17-21.3,28.4-40.4,33.8C751.5,412.6,744.8,413.5,738.2,413.5z"/>
	<path class="st7" d="M652.6,413.8c-7.1,0.1-13.9-2.6-19.4-7.8c-8.3,4.9-17.5,7.5-26.8,7.6c-31,0.7-52.6-22.4-53.6-57.6
		c-0.7-24.1-0.4-48.5-0.2-72.1c0.3-20.3,12.4-35.4,29.4-36.9c8.4-0.8,16.8,2.3,23.2,8.6c6.4,6.6,10.3,15.9,10.7,25.7v0.2
		c0.5,9.8,0.5,19.4,0.5,28.8c0,3.8,0,7.7,0,11.5v5.9c0,5.8,0,11.2,0.4,16.7c0,0.8,0,1.4,0.2,1.9c0.9-0.8,1.5-2,1.7-3.3
		c0.7-5.4,1-10.8,0.7-16.3c0-2.7,0-5.5,0-8.4v-0.3c0-5.1,0-10.2,0-15.6c0-5.5,0-11.2,0-17c0.5-19.1,9.5-33.1,24.1-37.3
		c15.9-4.8,32.3,5.3,37.7,23.3c1.7,5.7,2.4,11.8,2.3,17.8v87.1c0,0.6,0,1.1,0,1.7c-1.4,20.9-13.1,34.9-29.8,35.7L652.6,413.8z"/>
	<path class="st7" d="M847.2,413.7h-0.4c-11.7-0.3-27.1-2-41.6-12.9c-11.1-7.6-18.8-20.5-20.9-35.2c-2-11.9,1.7-24.2,9.7-32
		c-5.1-7.6-8.3-16.7-9-26.3c-1-16.3,4.7-32.1,15.3-42.9l0,0c9.4-9.4,21.1-15.3,33.5-16.7c16.6-2.7,33.5,0.5,48.5,9
		c9.9,5.3,17.7,14.9,21.7,26.7c4.3,13.1,2.6,25.9-4.4,35.1c7.6,8.7,11.8,20.6,11.7,32.9c0.2,22.4-8.6,40.7-24.8,51.2
		c-13,8.9-26.6,10.4-38.4,11.1L847.2,413.7z M821.8,358.4L821.8,358.4z M880.9,288.6L880.9,288.6z"/>
	<path class="st7" d="M834.5,559.2c-5.9,0-11.9-0.9-17.6-2.6c-21.7-5.9-38.5-25.9-42.8-51.2c-6.5-32.4,3.3-64.4,24.1-79.5
		c19-14.3,42.9-16.5,63.6-5.7c11.1,5.3,19.8,15.7,24.1,28.6c3.1,8.4,2.9,18-0.5,26.2c3.7,6.7,5.6,14.6,5.4,22.6v7.8
		c0,10.3,0,20.9-5.7,30.5s-14.3,13.3-22.7,17C853.5,556.9,844,559.1,834.5,559.2z"/>
	<path class="st7" d="M1078.6,558.9c-4.2,0-8.3-1.2-12-3.5c-2.3,1-4.6,1.9-7,2.4c-20.5,4.7-41-8.2-48.8-30.6
		c-6-16.7-6.4-35.4-1.2-52.5c4.4-15.1,14.8-26.8,27.9-31.6c5.1-1.9,10.5-2.7,15.8-2.3c0-0.9,0.2-1.8,0.4-2.7c0-0.2,0-0.3,0-0.5
		c2.3-14.4,13.5-24.6,26.2-23.8h0.6c12.7,0.7,23,12,24.4,26.5c0.2,2,0.3,4,0.3,6v80.1c0,17.4-9,30-22.9,32.2
		C1081.1,558.8,1079.8,558.9,1078.6,558.9z"/>
	<path class="st7" d="M642.7,558.6c-17.6,0-33.5-12.4-40.1-31.3c-6-16.7-6.5-35.4-1.2-52.5c6.3-21.3,24.1-35.2,43.5-34.1
		c2.1-16.8,13.1-27.9,27.1-27c14.7,0.9,25,14,25,31.8V524c0.2,5.7-0.6,11.3-2.4,16.6c-3.5,9.9-11.4,16.8-20.7,17.9
		c-5.3,0.8-10.7-0.3-15.5-3.1c-2.1,1-4.3,1.7-6.5,2.3C648.9,558.3,645.8,558.6,642.7,558.6z"/>
	<path class="st7" d="M1121,559c-4.1,0-8.2-0.6-12.1-1.9h-0.2c-16.9-5.5-27.6-20.8-27.9-39.9c-0.2-7.7,1.6-15.3,5-21.9
		c-3.7-8.2-4.2-19.1,2.5-31.6c10.1-18.8,27.4-21.4,35.7-22.6h0.2c7.9-0.8,15.8-0.1,23.4,2.3l0,0c15.6,4.4,25.9,18.6,27.6,37.9
		c0.5,4.8,0.7,9.6,0.5,14.5c0,1.1,0,2.1,0,3.1v1.3c-0.3,6.2,0.1,12.4,1.4,18.5c4.8,14.4-0.9,30.6-13,37l-0.2,0.2
		c-7.9,4.5-17.3,4-24.8-1.4C1133.4,557.4,1127.2,559,1121,559z M1163.9,522.7L1163.9,522.7z"/>
	<path class="st7" d="M1221.8,559c-4.1,0-8.2-0.7-12.1-1.9h-0.2c-17-5.6-27.5-21.1-27.5-40.5c0-7.5,1.7-14.8,5-21.2
		c-1.3-2.9-2.1-5.9-2.5-9.1c-0.9-9.2,1.6-18.3,6.8-25.3c11-16.2,27.5-22.7,49-19.4h0.1c9.2,1.5,20.7,4.7,28.4,15.6
		c7.1,10.2,8.1,22.4,8.1,34.2c0,0.5,0,1,0,1.5c0,1.9,0,4,0,6.3v1.5c-0.4,5.8-0.1,11.6,1.1,17.3c4.8,13.9-0.2,29.8-11.6,36.9
		l-0.3,0.2c-8.1,5.4-18.1,5.2-26-0.6C1234.4,557.4,1228.1,559,1221.8,559z"/>
	<path class="st7" d="M976.6,559.1c-4,0-8.1-0.6-12-1.9h-0.2c-17.1-5.6-27.7-21.1-27.7-40.4c-0.1-7.6,1.7-15,5.1-21.5
		c-3.5-7.9-4.1-18.3,1.8-30.3c9.6-19.6,27.1-22.5,35.5-23.9h0.2c8.5-1.1,17.2-0.2,25.4,2.5c15.5,4.8,25.1,18.8,26.6,38.2
		c0,0.2,0,0.4,0,0.6c0.2,4.2,0.2,8.3,0,11.9c0,1.5,0,2.9,0,4.4s0,2.6,0,3.9c-0.3,5.1,0.2,10.2,1.2,15.2l0,0
		c4.7,15.6-0.6,30.8-13.1,37.8c-7.8,4.5-17.1,4-24.6-1.3C989.2,557.5,982.9,559.1,976.6,559.1z"/>
	<path class="st7" d="M1324.3,559.2c-4.1,0-8.1-0.7-12.1-1.9c-17.6-5.6-28.4-21.3-28.1-41.2c0-7.3,1.8-14.4,5-20.7
		c-3.7-8.5-3.8-19.4,2.5-31.3c10.2-19.2,27.3-21.6,36.5-22.9c7.6-0.8,15.2-0.1,22.5,2.1c16.3,4.3,26.6,18.8,28.2,38.6
		c0.3,4.3,0.3,8.6,0.1,12.9c0,1.6,0,3.1,0,4.7v1.2c-0.3,5.9,0.1,11.9,1.4,17.7c4.8,14.1-0.4,30.1-12.1,37l-0.5,0.3
		c-8,5-17.7,4.7-25.4-0.9C1336.8,557.7,1330.6,559.2,1324.3,559.2z"/>
	<path class="st7" d="M1443.4,559.1c-4.2,0-8.4-0.7-12.4-1.9h-0.3c-16.8-5.7-27.5-21.7-27.1-41c0.1-7.3,1.8-14.5,5.1-20.7
		c-3.8-8.8-3.8-20.2,3.2-32.4c10.6-18.5,27.6-20.5,36.7-21.6c7-0.6,13.9,0.1,20.7,2c16.7,4,27.5,18.4,29.1,38.7
		c0.2,4.2,0.2,8.5,0,12.7c0,1.6,0,3.1,0,4.7v1.2c-0.3,5.9,0.1,11.9,1.4,17.6c4.9,14.2-0.5,30.3-12.3,37.1h-0.2
		c-8,5-17.7,4.7-25.3-0.9C1456,557.5,1449.7,559,1443.4,559.1z"/>
	<path class="st7" d="M724.9,558.9c-28.6,0-47.6-17.6-52.2-48.4c-4.5-29.6,8.3-56.8,31.1-66.2c14.9-6.3,31.5-4.3,45,5.4
		c11.6,8.5,19.2,22.8,20.4,38.6c0.7,6.7,0,13.6-2.1,19.9c2.7,7.7,2.2,17.2-3.3,27.2l-0.2,0.3c-11.7,20.4-30.9,22.3-37.2,22.9
		C725.9,558.9,725.4,558.9,724.9,558.9z"/>
	<path class="st7" d="M907.3,558.9c-20.6,0.7-37.8-18.1-38.4-41.9c0-0.3,0-0.6,0-0.9c-0.5-12-0.4-23.9-0.2-35.4c0-2.7,0-5.5,0-8.2
		c0-17.8,10.8-31,25.7-31.5c8-0.4,15.8,3.5,21,10.6c5.1-6.9,12.6-10.8,20.4-10.6c14.3-0.3,26.1,12.7,26.4,29.2c0,0.3,0,0.5,0,0.8
		l0,0c0.1,7.5,0.1,15.1,0.1,22.4v33.3c0,18-10.2,31.1-24.7,31.9c-4.7,0.3-9.5-0.8-13.7-3.3c-2.2,1-4.5,1.8-6.9,2.3
		C913.8,558.4,910.5,558.8,907.3,558.9z"/>
	<path class="st7" d="M1271.8,586.9c-7.1,0-14.1-2.3-20.1-6.7c-9.1-6.2-13.8-18.4-11.7-30.4c1.5-10.1,7.7-18.4,16.1-21.6v-50.3
		c0-3,0.2-5.8,0.3-8.2v-1.1c1.1-16.2,13.1-28.5,27.1-27.8c14.8,0.4,25.5,13.1,25.9,30.7v0.6c0,12.2,0,24.9-0.1,37.2
		c0,3.7,0,7.5,0,11.2c0,7.8,0,15.9,0,23.9c-0.2,15.6-7.8,29.8-19.7,37.1C1284.1,585.1,1278,586.9,1271.8,586.9z"/>
	<path class="st7" d="M1179.9,559.1c-6.1,0-12-2.5-16.6-7.2c-4.3-4.3-9.3-12.5-9.6-26.5v-0.2c0-8.9,0-17.7,0-26.2
		c0-4.3,0-8.5,0-12.8v-38.6c0-23.2,12.8-32.7,24.8-33.8c7.2-0.8,14.3,2,19.6,7.6c6.1,6.9,9.4,16.5,9,26.4c0,17.1,0,34.6,0,51.5
		c0,8.6,0,17.1,0,25.7c0,22.3-12.4,32.2-23.9,33.9h-0.4C1181.8,559,1180.9,559.1,1179.9,559.1z"/>
	<path class="st7" d="M1385.1,559h-1.1c-11.3-0.4-21.1-9.1-24.2-21.7v-0.5c-0.9-3.4-1.4-6.9-1.5-10.4c0-5.8,0-11.6,0-17.4
		c0-11.4,0-23.2,0-34.8c-0.3-9.1,2.6-18,8.1-24.5c7.3-9.2,19-11.7,28.8-6.3c9.6-4.6,19.5-3.5,29.8,3.1c15,9.8,16.3,25.7,12.8,36.5
		c-3.8,12.4-14.5,20.1-25.8,18.8c0,3.1,0,6.6,0,10.1c0,3.5,0,7.4,0,11.3c0,0.2,0,0.4,0,0.6v1.2c0,4-0.5,8.1-1.5,12v0.3
		C1407.4,550.4,1396.9,559.3,1385.1,559z"/>
	<path class="st7" d="M1478.5,652.7H-170.8c-27.9,0-38.6-20.5-39.2-38c-0.8-20.8,9.6-36.4,27.1-40.8c4.5-1,9.1-1.5,13.7-1.4
		c274.4,0.2,553,0.2,822.5,0.2h823.9c5.1-0.2,10.3,0.4,15.2,1.9h0.2c18.2,5.9,28.8,27.8,23.7,48.8c-3.2,13.3-12.2,23.6-23.7,27.3
		C1488,652.1,1483.3,652.8,1478.5,652.7z"/>
	<path class="st5" d="M1485.6,369.5c-9.7-26.9-22.5-51.2-44.5-69c3.6-1.1,6.3-1.8,8.7-2.7c13.9-5.4,26-13.6,31.5-30.4
		c11.7-35.3-7.7-70.8-40.2-74.2c-26.1-2.7-52.3-0.8-78.6-1.2c-2.2,0.1-4.3,0.5-6.5,1.2c-6.5,1.2-11.4,7.3-12.1,14.8
		c-0.5,3.8-0.8,7.6-0.8,11.4v148.4c0,3.6,0.3,7.1,0.8,10.6c0.9,10.3,8.9,17.8,17.8,16.7c1.4-0.2,2.7-0.5,4.1-1.1
		c8.1-2.9,12.2-10,12.3-22.4c0.1-20.1,0.1-40.4,0-60.6c0-4.2,0.9-6,4.7-5.4c2,0.2,3.9,0.2,5.9,0c15-1.4,26.2,5.9,34.1,20.3
		c9.7,17.7,19,35.6,28.6,53.2c2.3,4.6,5.3,8.7,8.9,12c6.6,5,15.1,4.8,21.5-0.4C1487.8,385.4,1489.1,379.2,1485.6,369.5z
		 M1394.4,276.6c-5.1,0-11.9,2.6-15.1-1.1s-0.8-11.5-0.9-17.4c0-10.1,0.3-20.1,0-30.3c-0.1-4.8,1.3-5.9,5.1-5.8c6.4,0.3,13,0,21,0
		c7.8,0.5,16.9-0.8,26.1,1.5c10.3,1.9,18,11.8,18.6,23.8c0.5,13.9-4.6,22.2-16.3,26.3C1420.3,278.1,1407.3,276.4,1394.4,276.6
		L1394.4,276.6z"/>
	<path class="st5" d="M1096,394.8c-14.8-0.6-29-2.4-41.6-10.9c-13.7-8.4-23.6-23.2-27.1-40.7c-1.1-4.1-1.1-8.6,0-12.7
		c1.5-6.8,6.5-11.9,12.5-12.9c5.5-1.3,11.1,1.4,14.3,6.8c3.8,5.9,5.8,13,8.4,19.5c11.4,28.2,50.2,23.9,62.3,7.1
		c7.7-10.1,6.9-25.6-1.9-34.5c-1-1-2.1-1.9-3.3-2.7c-7.6-5.8-16.5-7.7-25.2-10.1c-14.6-4.3-29.4-7.9-42.5-16.8
		c-21.1-14-28.3-45.1-16.2-69.4c2-4,4.4-7.6,7.3-10.9c23.8-27,80.1-26.1,103.2,1.5c6.6,7.2,10.4,17.1,10.6,27.6
		c0.1,8.1-4.2,15.3-10.8,18c-7.1,2.4-13-0.2-17.3-7.9c-2.5-4.4-4.5-9.2-7-13.6c-10.6-18.8-39.6-22.4-53.6-6.8
		c-8.3,9.2-7.5,21.9,2.2,29.7c7.1,5.9,15.5,8,23.6,10.4c12.5,3.3,24.9,7.4,37,12.5c19.4,8.6,32.8,23,33.6,48.6
		c0.8,27.2-9.5,46.9-30.7,58.9C1121.6,392.6,1108.6,394.2,1096,394.8z"/>
	<path class="st5" d="M1314.3,370.4c-3.8-4.1-7.8-8-12.1-11.5c-4.6-3.6-5.6-6.8-2.4-12.5c3.8-6.5,6.4-13.8,7.8-21.5
		c1.4-8.5-0.8-14.1-6.7-16.6c-5.9-2.6-10.5-0.3-14.2,7.9c-2.7,5.9-4.9,12.1-7.5,18.8c-8.9-10.4-16.3-21.1-24-31.7
		c6.6-4.5,12.7-9.7,18.3-15.6c15.1-17.1,12.3-43.3-6.4-54.7c-14.7-9.4-32.6-8.9-47,1.1c-14,9.1-18.6,27.6-11.9,44.5
		c2.2,5.8,5.2,11.1,8.8,15.9c3.1,3.9,2.1,5.6-1.4,7.6c-5.1,2.9-9.9,6.6-14.2,10.9c-23.2,22.9-18.2,62.4,10,75.7
		c23.4,11,45.8,8.3,65.9-10.3c3-2.9,4.6-2.9,7.5,0c5.1,5.3,10.5,10,16.3,14.2c5.5,4,12.7,2.2,16.3-3.9
		C1320.8,382.5,1319.8,376,1314.3,370.4z M1231.5,255.1c2.3-5.2,6.9-8.6,11.9-8.9c8.8,0.2,13.9,3.3,16.3,10.1
		c2.7,7.4,0.7,13.8-4.3,19.1c-11.7,12.5-14.9,12.1-23-3.9C1230,266.1,1228.6,260.7,1231.5,255.1z M1261.3,360.5
		c-7.1,6.5-14.4,11.5-23.7,11.5c-10.3,0.3-19.7-7-23.3-18.2c-3.4-10.8-0.5-20.9,8.4-29.4c0.1-0.2,0.3-0.4,0.5-0.5
		c8.8-8,8.8-8,16,1.8c6.9,9.8,14.3,19.1,22.2,27.8C1263.9,356.4,1264.2,357.9,1261.3,360.5L1261.3,360.5z"/>
	<path class="st5" d="M59.1,285.3c26.9-22.2,44.2-22.1,60.6,0.9c7-8,14.4-14.8,24.7-16.6c7.4-1.5,15-0.5,21.9,2.7
		c11,5,16.7,15,17.3,28.6c1.2,24.2,0.7,48.5,0.4,72.7c0,12.1-5.4,18.5-13.6,18.2c-8.1-0.3-13.1-7.3-13.3-18.8c0-15.6,0-31.3,0-46.9
		c0-4.8,0-9.5,0-14.4c-0.5-12.3-4.4-18.8-11.8-19.7c-9.5-1-18.3,6.1-20.6,16.8c-1.4,7.7-1.9,15.5-1.6,23.3
		c-0.1,13.6,0,27.2-0.1,40.9c0,7.6-1.4,14.7-8.6,17.7c-6.2,3.2-13.5,0-16.3-7.2c-0.4-1-0.7-2.1-0.9-3.2c-0.7-3.9-1-8-0.9-12
		c0-19.2,0-38.3-0.4-57.5c0-11.6-3.9-17.7-10.8-18.8c-10.6-1.5-17.7,3.3-20.9,14.4c-2.2,8.8-3.1,17.9-2.7,27c0,13.2,0,26.2,0,39.4
		c0,10.7-3.1,16.2-9.7,18.5c-6.3,2.3-13.1-1.4-15.6-8.5c-0.6-1.4-0.9-2.9-0.9-4.4c-1.1-32.3-1.2-64.5,0-96.8
		c0.3-8.2,5.2-12.5,11.7-12.5c6.4-0.4,12,5.3,12.3,12.7C59,282.8,59,284,59.1,285.3z"/>
	<path class="st5" d="M-93.6,307.2v-60.6c0-14.1,4.9-19.8,17-20c25.2,0,50.2,0,75.4,0c4.7,0,9.3,1.1,11.9,6.3
		c3.1,5.8,1.6,13.3-3.4,16.9c-1,0.7-2,1.2-3.2,1.5c-2.5,0.7-5.1,1-7.7,0.9c-18.6,0-37.1,0.3-55.7,0c-5.4-0.2-6.6,1.8-6.3,7.6
		c0.4,8.6,0.4,17.1,0,25.7c0,5,1,6.3,5.4,6.3c18-0.3,35.8,0,53.8,0c8.8,0,13,4.2,13,12.1c0,7.9-4.2,12-13,12.1
		c-17.3,0.2-34.5,0.4-51.8-0.2c-6,0-7.7,1.8-7.5,8.6c0.5,10.6,0.4,21.2,0,31.8c0,5.2,0.9,6.8,5.6,6.8c20.1-0.3,40.2-0.2,60.3-0.2
		c9.1,0,13.6,4.1,14,12c0.8,6-2.7,11.7-7.9,12.9c-2.7,0.8-5.6,1.1-8.4,0.9h-72.7c-14.4,0-19-5.3-19-21.6
		C-93.6,347.1-93.6,327.1-93.6,307.2z"/>
	<path class="st5" d="M544.4,278.4c-1.3-6.2-6.3-10.3-11.8-9.5c-5.3-0.2-9.9,3.9-11,9.8c-0.8,2.9-1,5.9-1.7,9.5
		c-11.3-16.8-25.3-22.2-42.2-18c-16.3,4.1-26.4,16-31.4,33.9c-5,17.7-4.8,36.8,0.8,54.2c8,25,27.9,37.5,50.1,31.8
		c8.7-2.3,15.7-8.2,23.4-15.6V406c-0.3,6.8,0,13.6,0.9,20.3c0.5,6.3,5.3,11.1,10.8,10.6c5.5,0.6,10.5-3.5,11.7-9.7
		c0.9-3.9,1.3-7.9,1.3-12V288.1C545.4,284.8,545.1,281.5,544.4,278.4z M513.6,356.6c-10,17.4-30.8,16.8-39.4-1.4
		c-7.3-15.1-7.5-33.4-0.5-48.7c8.4-19.5,30.6-19.8,40.4-1.2c4,8.1,5.9,17.4,5.2,26.7C519.7,340.6,517.6,349.2,513.6,356.6
		L513.6,356.6z"/>
	<path class="st5" d="M308.9,311.1c-5.9-29.8-27.1-46.5-51-40.9c-10.2,2.4-17.3,9.9-24.4,18.8c-0.5-3.6-0.8-6.3-1.3-9.1
		c-1.2-6.7-6.6-11.3-12.5-10.7c-7.1,0.3-11.3,5.9-11.3,16.2c0,44.6,0,89.3,0,134c0.2,2.5,0.5,5,0.9,7.4c0.9,7.4,4.9,10.4,10.8,10.4
		c5.5,0.5,10.5-3.8,11.5-10c0.9-4.9,1.3-10,1.2-15c0-12.7,0-25.4,0-40c1.8,2.1,2.7,2.9,3.3,3.8c19.6,26.7,58.8,18.8,70-17.2
		C311.2,343.5,312.1,326.9,308.9,311.1z M280.5,352.4c-3.7,9.7-9.9,15.9-19.5,16.4c-10.2,0.6-17.4-5.2-22.4-15
		c-3.4-7.4-4.9-15.7-4.3-24.1c-0.3-7.9,1.1-15.7,4.2-22.7c4.9-10,12.1-15.6,22.3-15.3c8.8,0.1,16.6,6.5,19.6,16
		C286,321.9,286,338.2,280.5,352.4z"/>
	<path class="st5" d="M426.2,375c-4.3-14.4-4.6-29.2-4.1-44c0-7.9,0.3-15.6,0-23.5c-0.9-22.2-8.5-33.6-25.8-37.9
		c-13.1-3.4-26.7-3.1-39.6,0.9c-11.1,3.6-20.6,10-24.4,23.6c-2.5,8.3-0.7,14.5,4.9,17.6c6,3.3,10.4,1.8,14.4-6.5
		c6.2-12.5,15.1-17.4,27.1-16.6c11.5,0.6,15.7,5,17.6,18.3c0.7,4.8-0.3,6.7-4.5,7.7c-14.8,3.7-29.8,7.3-44.4,12
		c-12.9,3.7-21.6,17.4-20.9,32.7c0.9,15.4,10.7,28.1,23.9,31c13.8,3.3,28.2,0,39.8-9.1c7.8-5.6,7.6-5.4,13.8,2.7
		c1,1.4,2,2.6,3.1,3.8c3.5,4.5,9.4,5.3,13.8,2C425.8,386.3,428.1,381.5,426.2,375z M375.9,371.1c-4.5,1.4-9.2,1.3-13.6-0.5
		c-5.6-1.9-9.5-7.8-9.7-14.5c-0.5-6.6,3.1-12.6,8.5-14.5c3.8-1.7,7.8-3,11.8-3.9c7.6-2,15.2-3.8,23.4-6.1
		C398.1,354.2,391.6,367,375.9,371.1L375.9,371.1z"/>
	<path class="st5" d="M780.4,351.8c-4.7-4.4-9.7-3.1-14,1.8c-4.1,4.9-8.8,9.1-13.9,12.5c-17.6,11.2-37,0.2-40.3-22.6
		c-0.8-5.5,0.5-7,5.3-6.7c7.9,0.4,15.7,0.2,25.3,0.2c8.4-0.6,18.5,1,28.6-0.9c11-2.1,14-6.5,13.6-19.5
		c-0.9-25.6-16.4-44.4-40.1-48.6c-27.3-4.8-50.2,11.6-57,40.9c-2.1,10.1-2.7,20.5-1.7,30.8c2,25,15.5,43.5,36.2,49.5
		c10.2,3.1,20.9,3.2,31.1,0.3c11.7-3.3,22.2-9.5,28.1-22.6C783.5,362,784.9,356,780.4,351.8z M712.2,315.8
		c0.5-15.5,11.8-27.7,25.3-27.1c2.7,0.1,5.3,0.7,7.8,1.8c8.3,4.8,13.7,14.3,14.1,25c0,3.8-1.8,3.1-3.7,3.1c-6.6,0-13.1,0-19.7,0
		h-20.2c-2,0.3-3.9,1.1-3.8-2.9H712.2z"/>
	<path class="st5" d="M639.7,371.8c-9.3,13.2-20.3,19.5-33.7,19.8c-20.2,0.4-33.6-13.2-34.2-36.4s-0.4-47.4-0.1-71.1
		c0.1-9.1,4.9-14.7,11.8-15.3c6.6-0.9,12.7,4.6,13.5,12.2c0.1,0.6,0.1,1.1,0.1,1.7c0.7,13,0.4,26.2,0.5,39.4
		c0.1,7.9,0.1,15.6,0.5,23.5c0.8,14.5,6.3,22.4,15.5,23.2c11.6,1,22-8.3,24-21.5c1.7-9.5,0.9-19.1,1-28.6
		c0.3-10.9-0.1-21.6,0.1-32.5c0.3-9.4,3.6-14.9,9.8-16.7c6.4-2,13.1,2.1,15.1,9.4c0.9,3.4,1.3,6.9,1.2,10.4v87.1
		c-0.7,9.7-4.7,15.1-11.5,15.5s-11.4-4.4-12.7-14C640.1,375.9,639.8,373.9,639.7,371.8z"/>
	<path class="st5" d="M847.2,391.8c-11.5-0.3-22.2-2.3-31.7-9.4c-6.6-4.3-11.1-11.7-12.5-20.3c-1.3-5.7,1.4-11.6,6.2-13.6
		c4.5-2.7,10-1,12.9,3.8c1.4,2.3,2.7,4.7,3.9,7c7.7,12,21.5,16.3,33.3,10.4c4.1-2.1,7.6-5.2,7.8-11c0.3-5.7-2.8-11-7.5-12.9
		c-7.8-4.1-16.3-5.6-24.4-8.6c-6.5-2-12.8-5-18.6-8.9c-15.5-11.5-17-33.2-3.4-47.6c6.5-6.4,14.6-10.3,23.1-11.2
		c12.9-2.2,26,0.2,37.6,6.8c5.7,2.9,10.1,8.2,12.5,14.8c1.8,5.6,1.7,11.4-2.9,15c-4.3,3.9-10.4,3.7-14.6-0.4
		c-2.7-2.9-5.2-6.1-7.6-9.4c-7.2-8.5-18.5-10.6-27.7-5.2c-7.5,4.8-7.6,13.2-0.3,18.3c6,4.2,13.1,5.4,19.8,7.4c8.1,2,16,5.1,23.5,9.1
		c9.1,5.4,15.7,12.9,15.9,25.6c0,13.9-4.6,25-15.4,31.9C867.7,390.1,857.2,391.2,847.2,391.8z"/>
	<path class="st5" d="M871.8,505.4c0,18.8-0.9,20.3-16.1,26.9c-10.8,5.1-22.7,6.1-34,2.9c-15.7-4.7-25.4-16.5-29.1-34.9
		c-4.5-22.4,1.6-45.7,15.7-56c13.7-10.4,31.2-11.9,46.1-3.9c6.4,3,11.3,8.9,13.8,16.4c1.8,5.4,1.1,10.1-3.8,12.7
		c-4.9,2.6-8,0.2-10.4-4.4c-4.5-8.8-10.2-14.7-19.8-14.5c-12.1,0.3-20.2,6.8-23.9,20.1c-2.6,9.7-2.7,20.1-0.2,29.8
		c4.1,16.8,16.6,24.7,32.3,20.6c2.3-0.7,4.6-1.5,6.8-2.4c6.2-2.7,9.3-10.7,7.1-17.9c-0.8-2.4-2.4-1.7-3.8-1.8
		c-4-0.2-7.9,0.3-11.8-0.2c-3.9-0.5-7.5-1.8-7.1-7.7c0.4-5.9,3.7-7.1,7.7-7.1c6.2,0,12.2,0,18.4,0c9.6,0.2,12.1,3.1,12.2,13.9
		L871.8,505.4z"/>
	<path class="st5" d="M1085.9,443.3c-0.1-4.2-3.2-7.6-6.8-7.6c-3.5-0.4-6.5,2.5-6.9,6.5c-0.5,3.2-0.8,6.4-0.8,9.7
		c-0.1,6.8,0,13.8,0,21.5c-2.5-2.3-3.9-3.6-5.4-5c-11-9.6-26.6-7-34.9,5.7c-1.5,2.4-2.8,5-3.6,7.8c-3.8,12-3.5,25.2,0.8,36.9
		c4.2,12.7,15.7,20.1,27.3,17.6c6-1.6,11.4-5.3,15.5-10.6c0.4,1.7,0.7,2.4,0.8,3.1c0.9,4.8,3.3,8.6,8.1,7.9c4.9-0.8,6.4-5,6.4-10.4
		v-80.1C1086.2,445.3,1086.1,444.3,1085.9,443.3z M1054.7,523.5c-8.8-0.6-14.7-10.1-14.6-23.8c0.1-13.2,5.6-22.4,13.6-23.2
		c10-0.9,16.8,8.5,16.9,23.5C1070.8,514.6,1064.4,524,1054.7,523.5z"/>
	<path class="st5" d="M671.1,435.5c-4.9-0.3-6.8,3.6-7.3,8.6c-0.3,3-0.4,6-0.4,9.1v20c-2.5-2.3-3.9-3.6-5.4-5
		c-11-9.5-26.6-6.9-34.8,5.8c-1.5,2.4-2.8,5-3.6,7.8c-3.8,12-3.5,25.2,0.8,36.9c4.4,12.9,16.2,20.2,27.9,17.3
		c5.7-1.4,10.1-5.2,14.9-10.4c1.1,6.7,2.7,12,8.5,11s6.4-6.8,6.4-12.7v-78.6C678,439.7,676.2,435.9,671.1,435.5z M660.7,512.8
		c-1.8,6.8-7.4,11.2-13.6,10.8c-5.8-0.1-11-4.4-12.9-10.8c-1.3-3.3-2-6.8-2.1-10.4c-0.2-5.8,0.8-11.5,2.9-16.8
		c3.1-7.9,11.1-11.4,17.9-7.8c2.9,1.5,5.2,4.1,6.6,7.4C663.7,493.6,664.1,503.8,660.7,512.8z"/>
	<path class="st5" d="M1159.2,525.9c-2.7-8.8-2.5-17.9-2.5-26.9c0.2-5,0.1-10-0.4-15c-0.8-10.4-5.3-17-13.3-19.2
		c-5.5-1.7-11.2-2.3-16.8-1.8c-8.4,1.2-16.9,3.1-21.9,12.5c-2.4,4.4-3.9,9.4,0.9,13.3c4.9,3.9,7.3,0,10-4.3
		c4.6-7.5,12.9-10.5,20.3-7.4c3.9,1.6,6.4,6,6,10.8c0.1,4.5-3.7,3.5-5.9,4.1c-7.3,2.1-14.8,3.6-22.2,5.7
		c-8.8,2.6-13.9,9.7-13.8,19.2c0.1,9.5,5.2,16.2,14,19.1c7.6,2.4,15.8,0.8,22.3-4.5c4.7-3.5,7.8-5,11,1.8c1.5,3.5,5.2,4.9,8.1,3.1
		c0.1-0.1,0.3-0.2,0.4-0.2c3.3-1.5,5-5.8,3.8-9.6C1159.4,526.3,1159.3,526.1,1159.2,525.9z M1124,524.9c-4.3,0.1-8-3.7-8.5-8.6
		c-0.7-4.6,2-9,6-9.8c0.1,0,0.2,0,0.3,0c6.4-2.1,13-3.8,19.9-5.6C1142.6,517.4,1135.9,526.2,1124,524.9L1124,524.9z"/>
	<path class="st5" d="M1260.1,525.3c-2.7-8.6-2.4-17.4-2.2-26.2c0-2.4,0-5,0-7.6c0-19.7-3.8-25.6-20.3-28.3
		c-11.7-1.8-23.3-0.8-31.5,11.2c-2.9,4.2-4.9,9.9,0,14.1c4.9,4.2,7.6,0,10.4-4.4c4.7-7.3,13.1-10.1,20.5-7c3.6,1.7,5.8,5.8,5.6,10.3
		c0.3,4.5-3.4,3.6-5.6,4.3c-7.3,2-14.8,3.6-22.2,5.8c-8.9,2.6-14,9.7-14,19.1s5.1,16.5,13.8,19.4c8.1,2.5,16.7,0.6,23.5-5.2
		c4.2-3.1,6.6-4.1,9.4,1.7c1.4,3.8,5.2,5.5,8.5,3.9c0.3-0.2,0.7-0.4,1-0.6c3.4-1.7,4.9-6.2,3.4-10.1
		C1260.2,525.6,1260.2,525.4,1260.1,525.3z M1224.9,524.9c-4.3,0.1-8-3.7-8.5-8.6c-0.7-4.7,2.1-9,6.1-9.8c0.1,0,0.1,0,0.2,0
		c6.4-2.1,13-3.8,19.9-5.6C1243.6,517.4,1236.9,526.2,1224.9,524.9L1224.9,524.9z"/>
	<path class="st5" d="M1014.8,525.2c-2.7-8.6-2.2-17.4-2.4-26.2c0-5,0.2-10.1,0-15.1c-0.8-10.3-4.9-16.5-12.6-18.9
		c-5.9-2-12-2.7-18.1-2c-8.4,1.4-16.9,3.3-21.7,13c-2.1,4.3-3.4,9.1,1.2,12.7s7.3,0.2,10-4.1c4.5-7.5,12.8-10.6,20.3-7.6
		c3.9,1.5,6.4,5.9,6,10.6c0.1,4.5-3.7,3.6-5.9,4.3c-7.3,1.9-14.8,3.6-22.2,5.7c-8.9,2.6-13.9,9.9-13.9,19.2s5.1,16.4,13.9,19.2
		c8.1,2.4,16.8,0.5,23.5-5.3c4.4-3.5,6.7-3.5,9.4,1.8c1.5,3.8,5.5,5.4,8.7,3.6c0.1,0,0.1-0.1,0.2-0.1
		C1015.8,533.6,1016.2,529.6,1014.8,525.2z M980,525c-4.3,0.2-8.1-3.4-8.8-8.3c-0.9-5.9,2.4-8.9,6.6-10.3c6.4-2.3,13-3.8,19.5-5.4
		C998.6,517,992,526.1,980,525L980,525z"/>
	<path class="st5" d="M1362.4,525.8c-2.7-8.6-2.5-17.4-2.5-26.2c0-5.3,0.4-10.7,0-15.6c-0.8-10.4-5.4-17-13.4-19.1
		c-5.3-1.6-10.8-2.2-16.3-1.7c-8.8,1.2-17.5,2.9-22.6,12.5c-2.4,4.4-3.9,9.5,1.1,13.3s7.2-0.3,9.8-4.4c4.6-7.4,12.9-10.3,20.3-7.3
		c3.6,1.5,6,5.5,5.9,10c0.4,5.3-3.7,3.9-6,4.7c-7.1,2.1-14.3,3.6-21.5,5.6c-9.1,2.6-14.2,9.4-14.3,18.8c-0.1,9.4,5,16.8,14.2,19.7
		c7.9,2.5,16.4,0.6,23-5c4.4-3.3,6.9-4.4,10,1.8c1.4,3.6,5.1,5.2,8.3,3.5c0.2-0.1,0.4-0.3,0.6-0.4c3.4-1.7,4.9-6.2,3.5-10.1
		C1362.4,525.9,1362.4,525.8,1362.4,525.8z M1327.4,524.9c-4.3,0.2-8.1-3.5-8.6-8.5c-0.9-5.9,2.4-8.9,6.7-10.3
		c6.4-1.9,12.8-3.5,19.4-5.1C1346.2,517.2,1339.5,526.1,1327.4,524.9L1327.4,524.9z"/>
	<path class="st5" d="M1481.8,525.6c-2.7-8.6-2.5-17.4-2.5-26.2c0-5.3,0.4-10.6,0-15.4c-0.8-10.8-5.6-17.3-14-19.2
		c-4.8-1.4-9.8-2-14.8-1.7c-8.8,1.1-17.5,2.6-22.8,12c-2.7,4.5-4.5,9.9,0.8,14c4.9,3.8,7.3-0.5,9.8-4.6c4.6-7.4,12.9-10.4,20.3-7.3
		c3.5,1.7,5.8,5.7,5.8,10.1c0.4,5.3-3.7,4.1-6,4.7c-7.3,2.1-14.8,3.6-22.2,5.8c-7.8,1.7-13.5,9.6-13.6,18.8c0,9.4,5,16.6,13.6,19.5
		c8.1,2.5,16.8,0.7,23.6-5c4.4-3.5,6.9-4.2,10,1.8c1.4,3.6,5.1,5.2,8.3,3.5c0.2-0.1,0.4-0.3,0.6-0.4c3.3-1.7,4.8-6.2,3.3-10.1
		C1481.9,525.8,1481.8,525.7,1481.8,525.6z M1447.7,525c-5.2,0-8.9-2.9-9.7-8.9c-0.8-6,3.3-8.9,7.8-10.3c6-2,12.2-3.3,18.6-4.8
		C1465,517.4,1459.3,525.3,1447.7,525z"/>
	<path class="st5" d="M747.5,513.7c-2.7-2.4-5.6-1.2-8.1,1.5c-2.7,3.3-5.9,6-9.5,8c-7.8,4.6-17.4,1-21.4-8.1c-0.6-1.3-1-2.7-1.3-4.2
		c-0.8-3.9-0.5-6,3.8-5.9c9.2,0.3,18.3,0,27.5,0c10-0.2,12.5-3.5,11.7-14.7c-1.6-20.7-21.2-33-40.1-25.3
		c-14,5.8-21.7,22.7-18.8,41.8c2.9,19.1,13.9,30.1,33.4,30.1c7.6-0.8,17-2.9,23-13.2C749.6,520.5,751,516.5,747.5,513.7z M708.6,486
		c2.5-7,9-10.9,15.5-9.4c5.9,1.4,10.4,7,11.3,13.9c0.4,2.7,0,4.2-2.7,4.1c-4.1-0.2-8,0-11.9,0h-7.2
		C706.1,494.6,705.6,493.7,708.6,486L708.6,486z"/>
	<path class="st5" d="M928.4,526.1c-4.7,4.4-9.1,8.8-15.1,10.1c-14.2,3.3-24.8-4.8-25.4-21.2c-0.7-14.1-0.2-28.2-0.1-42.4
		c0-5.3,2.2-9.5,7.2-9.7c4.1-0.3,7.7,3.3,8,8.1c0,0.3,0,0.6,0,0.9c0.4,5.4,0.2,11,0.2,16.6c0.1,7.1,0,14.1,0.3,21.2
		c0.4,8.9,3.7,13.3,9.6,13.6c6.6,0.5,12.5-4.6,14-12c0.9-6.2,1.3-12.5,1.1-18.8c0-7.1-0.1-14.1,0.1-21.2c-0.2-4.5,2.9-8.3,6.8-8.5
		c0.3,0,0.5,0,0.8,0c3.8-0.3,7.1,3,7.4,7.4c0,0.4,0,0.8,0,1.2c0.1,7.3,0.1,14.7,0.1,21.9v33.3c0,5.3-1.6,9.7-6.7,10
		c-5.1,0.3-7-3.1-7.5-8.5C929.1,527.7,928.7,527.3,928.4,526.1z"/>
	<path class="st5" d="M1290.4,509.3c0,11.5,0.2,23.2,0,34.7c-0.3,11.9-8.9,21.3-19.2,21c-3.4-0.1-6.8-1.3-9.6-3.4
		c-2.4-1.5-3.6-4.7-2.9-7.7c0.4-3.1,2.7-5.3,5.4-5.2c10.8-0.9,10.8-0.9,10.8-13.3v-57.4c0-2.3,0-4.5,0.2-6.8c0-4.6,3.2-8.3,7.1-8.3
		c0.2,0,0.4,0,0.6,0c5,0.2,7.3,3.8,7.5,9.4c0,12.5,0,24.8-0.1,37.1H1290.4z"/>
	<path class="st5" d="M1172.8,486.3v-38.6c0-5.9,1-11.4,7.3-12c5-0.4,8,3.9,8,12.1c0.1,25.7,0,51.5,0,77.2c0,6.1-1.3,11.2-7.3,12.1
		c-4.9,0.6-7.9-4.1-8.1-12.1C1172.6,512,1172.8,499.1,1172.8,486.3z"/>
	<path class="st5" d="M1392.3,472.8c8.6-10.8,14.7-12.5,23.2-7c3.3,2.1,5.9,4.8,4.3,9.7c-1.6,4.8-5.1,5.4-8.6,4.1
		c-12.1-4.7-16,1.3-17.7,13.8c-1.3,9.7-0.4,19.5-0.7,29.4c0,2.7-0.2,5.5-0.8,8.2c-1.1,4.5-5.1,7-9,5.8c-2.5-0.8-4.4-3.1-5-5.9
		c-0.5-1.4-0.7-2.9-0.8-4.4c0-17.4-0.1-34.8,0-52.1c-0.2-3.3,0.8-6.6,2.7-9.1C1384.5,459.9,1390.2,463.1,1392.3,472.8z"/>
	<path class="st8" d="M653.5,594.5h822.9c3.7-0.3,7.4,0.1,11,1.1c7.5,2.6,11.4,8.2,11.4,17c0.5,8.2-4.3,15.5-11.3,17.1
		c-3,0.9-6,1.2-9.1,1.1H-170.8c-12.8,0-19.8-5.9-20.2-17c-0.4-10,3.7-16.3,12.2-18.5c3.2-0.7,6.5-1,9.7-0.9
		C105.4,594.5,379.6,594.6,653.5,594.5z"/>
</g>
</svg>
