<svg xmlns="http://www.w3.org/2000/svg" viewBox="0 0 670.61 475.31"><defs><style>.cls-1{fill:#d1a278;}.cls-2{fill:#b28564;}.cls-3{fill:#9e7455;}.cls-4{fill:#010101;}.cls-5{fill:#010202;}.cls-6{fill:#fff;}.cls-7{fill:#e30613;}</style></defs><title>Recurso 1</title><g id="Capa_2" data-name="Capa 2"><g id="Capa_1-2" data-name="Capa 1"><g id="_Grupo_" data-name="&lt;Grupo&gt;"><polygon class="cls-1" points="589.44 78.83 670.61 210.87 584.99 209.28 459.51 207 334.48 0 589.44 78.83"/><polygon class="cls-2" points="584.99 209.28 584.99 371.95 333.96 475.31 334.48 0 459.51 207 584.99 209.28"/><polygon class="cls-3" points="334.48 0 333.96 475.31 80.42 371.55 79.63 209.05 217.78 206.03 334.48 0"/><polygon class="cls-1" points="334.48 0 217.78 206.03 79.63 209.05 0 210.76 75.46 80.25 334.48 0"/></g><path class="cls-4" d="M644.18,216.57c-3.58-8.61-8.32-16.36-16.41-22.07,1.31-.34,2.33-.58,3.2-.87,5.13-1.74,9.58-4.35,11.61-9.73,4.31-11.27-2.85-22.64-14.85-23.71-9.64-.87-19.31-.24-29-.39a10.37,10.37,0,0,0-2.38.39,5.35,5.35,0,0,0-4.45,4.74,23.37,23.37,0,0,0-.29,3.63V216a20,20,0,0,0,.29,3.39,6,6,0,0,0,8.08,5c3-.92,4.51-3.19,4.55-7.16.05-6.44.05-12.92,0-19.36,0-1.35.34-1.93,1.75-1.74a10.49,10.49,0,0,0,2.17,0c5.52-.44,9.68,1.89,12.59,6.49,3.58,5.66,7,11.37,10.55,17a13,13,0,0,0,3.29,3.82,7,7,0,0,0,7.93-.14C645,221.65,645.49,219.67,644.18,216.57Zm-33.64-29.71c-1.88,0-4.4.82-5.56-.34s-.29-3.68-.34-5.57c0-3.24.1-6.43,0-9.68-.05-1.55.49-1.88,1.89-1.84,2.37.1,4.79,0,7.74,0,2.86.15,6.25-.24,9.63.49a8.18,8.18,0,0,1,6.88,7.6c.19,4.45-1.7,7.11-6,8.42C620.08,187.34,615.29,186.81,610.54,186.86Z"/><path class="cls-4" d="M500.45,224.65c-5.47-.19-10.7-.77-15.35-3.48a19.89,19.89,0,0,1-10-13,7.19,7.19,0,0,1,0-4.06,5.61,5.61,0,0,1,4.6-4.12,5.15,5.15,0,0,1,5.27,2.18c1.4,1.89,2.13,4.16,3.1,6.24,4.21,9,18.53,7.65,23,2.28a7.82,7.82,0,0,0-1.89-11.91c-2.81-1.84-6.1-2.47-9.29-3.24-5.38-1.36-10.84-2.52-15.68-5.37a16.24,16.24,0,0,1-3.29-25.65c8.8-8.62,29.56-8.33,38.08.48a12.52,12.52,0,0,1,3.92,8.81,6,6,0,0,1-4,5.76c-2.61.77-4.79-.05-6.38-2.52-.92-1.4-1.65-2.95-2.57-4.35-3.92-6-14.61-7.17-19.79-2.18-3.05,2.95-2.76,7,.82,9.48,2.61,1.89,5.71,2.57,8.71,3.34a112.31,112.31,0,0,1,13.65,4c7.16,2.76,12.1,7.36,12.39,15.54q.43,13.06-11.33,18.82C509.88,223.93,505.09,224.46,500.45,224.65Z"/><path class="cls-4" d="M581,216.86a47.27,47.27,0,0,0-4.45-3.68c-1.69-1.16-2.08-2.17-.87-4a18.88,18.88,0,0,0,2.86-6.88c.53-2.71-.29-4.5-2.47-5.32s-3.87-.1-5.23,2.52c-1,1.89-1.79,3.87-2.76,6-3.29-3.34-6-6.73-8.85-10.12a41.9,41.9,0,0,0,6.77-5c5.57-5.47,4.55-13.84-2.37-17.47a17.34,17.34,0,0,0-17.33.34c-5.17,2.9-6.87,8.81-4.4,14.23a20.71,20.71,0,0,0,3.24,5.08c1.16,1.26.78,1.79-.53,2.42a25.46,25.46,0,0,0-5.23,3.48c-8.56,7.31-6.72,19.94,3.68,24.2,8.62,3.53,16.89,2.66,24.3-3.29,1.11-.92,1.69-.92,2.75,0a45.14,45.14,0,0,0,6,4.55,4.4,4.4,0,0,0,6-1.26C583.39,220.73,583,218.65,581,216.86ZM550.44,180a5.31,5.31,0,0,1,4.4-2.85c3.24.05,5.13,1.06,6,3.24,1,2.37.24,4.41-1.6,6.1-4.3,4-5.51,3.87-8.47-1.26C549.86,183.52,549.37,181.78,550.44,180Zm11,33.69c-2.61,2.08-5.32,3.68-8.76,3.68a9,9,0,0,1-8.61-5.81c-1.26-3.44-.2-6.68,3.1-9.39a.52.52,0,0,1,.19-.15c3.24-2.56,3.24-2.56,5.9.59a96.91,96.91,0,0,0,8.18,8.9C562.39,212.36,562.49,212.85,561.47,213.67Z"/><path class="cls-4" d="M117.83,189.66c9.92-7.11,16.31-7.06,22.36.29,2.57-2.56,5.32-4.74,9.1-5.32a14.88,14.88,0,0,1,8.08.87c4.07,1.6,6.15,4.79,6.39,9.15.43,7.74.24,15.49.14,23.23,0,3.87-2,5.9-5,5.81s-4.84-2.33-4.89-6c0-5,0-10,0-15,0-1.55,0-3.05,0-4.6-.19-3.92-1.64-6-4.35-6.29a7.14,7.14,0,0,0-7.6,5.38,29.53,29.53,0,0,0-.58,7.45c-.05,4.35,0,8.71-.05,13.06,0,2.42-.53,4.7-3.19,5.67a4.56,4.56,0,0,1-6.34-3.34,17.11,17.11,0,0,1-.34-3.83c0-6.14,0-12.24-.15-18.39,0-3.72-1.45-5.66-4-6-3.92-.48-6.54,1.07-7.7,4.6a27,27,0,0,0-1,8.62c0,4.21,0,8.37,0,12.58,0,3.43-1.16,5.18-3.58,5.9a4.67,4.67,0,0,1-5.76-2.71,3.39,3.39,0,0,1-.34-1.4c-.39-10.31-.44-20.62,0-30.93.1-2.61,1.93-4,4.31-4a4.32,4.32,0,0,1,4.55,4.06C117.78,188.84,117.78,189.23,117.83,189.66Z"/><path class="cls-4" d="M61.5,196.63V177.27c0-4.5,1.79-6.34,6.29-6.38,9.29,0,18.54,0,27.83,0,1.74,0,3.43.34,4.4,2a3.93,3.93,0,0,1-2.42,5.9,10.83,10.83,0,0,1-2.85.3c-6.87,0-13.7.09-20.57,0-2-.05-2.42.58-2.32,2.42a80.49,80.49,0,0,1,0,8.22c0,1.6.38,2,2,2,6.63-.1,13.21,0,19.84,0,3.24,0,4.79,1.35,4.79,3.87s-1.55,3.82-4.79,3.87c-6.39.05-12.73.14-19.12-.05-2.22,0-2.85.58-2.75,2.76.19,3.39.14,6.78,0,10.16,0,1.65.34,2.18,2.08,2.18,7.4-.1,14.85-.05,22.26-.05,3.34,0,5,1.31,5.18,3.83a3.61,3.61,0,0,1-2.91,4.11,11.17,11.17,0,0,1-3.09.29H68.52c-5.33,0-7-1.69-7-6.92C61.5,209.41,61.5,203,61.5,196.63Z"/><path class="cls-4" d="M296.89,187.44a4,4,0,0,0-4.35-3.05,4,4,0,0,0-4.07,3.14c-.29.92-.38,1.89-.63,3.05-4.16-5.37-9.34-7.11-15.58-5.76-6,1.31-9.73,5.13-11.57,10.84A26.27,26.27,0,0,0,261,213c2.95,8,10.3,12,18.48,10.16,3.2-.72,5.81-2.61,8.62-5v10.07a32.06,32.06,0,0,0,.34,6.48,3.75,3.75,0,0,0,4,3.39,4,4,0,0,0,4.31-3.1,14.45,14.45,0,0,0,.48-3.82V190.53A9.44,9.44,0,0,0,296.89,187.44Zm-11.37,25c-3.68,5.57-11.37,5.37-14.52-.44a16.32,16.32,0,0,1-.19-15.58c3.1-6.24,11.28-6.34,14.91-.39a14.69,14.69,0,0,1,1.93,8.52A13.38,13.38,0,0,1,285.52,212.41Z"/><path class="cls-4" d="M210,197.89c-2.18-9.53-10-14.86-18.83-13.07-3.77.78-6.39,3.15-9,6-.19-1.16-.29-2-.48-2.91a4.33,4.33,0,0,0-4.6-3.43c-2.62.09-4.16,1.88-4.16,5.18,0,14.27,0,28.55,0,42.83a21.76,21.76,0,0,0,.33,2.37c.34,2.37,1.8,3.34,4,3.34a4,4,0,0,0,4.26-3.2,22.54,22.54,0,0,0,.44-4.79c0-4.06,0-8.13,0-12.78.67.68,1,.92,1.21,1.21,7.25,8.52,21.68,6,25.84-5.51A26.31,26.31,0,0,0,210,197.89ZM199.52,211.1c-1.35,3.1-3.67,5.08-7.21,5.23-3.77.19-6.43-1.65-8.27-4.79a14.11,14.11,0,0,1-1.6-7.7,14.59,14.59,0,0,1,1.55-7.26c1.79-3.19,4.45-5,8.23-4.88a7.84,7.84,0,0,1,7.25,5.13A17.21,17.21,0,0,1,199.52,211.1Z"/><path class="cls-4" d="M253.29,218.31c-1.6-4.59-1.69-9.34-1.5-14.08,0-2.52.1-5,0-7.5-.34-7.11-3.15-10.74-9.53-12.1a30.51,30.51,0,0,0-14.62.29c-4.11,1.16-7.6,3.2-9,7.55-.92,2.66-.24,4.65,1.79,5.61,2.23,1.07,3.82.59,5.33-2.08,2.27-4,5.56-5.56,10-5.32,4.26.19,5.81,1.6,6.49,5.86.24,1.54-.1,2.13-1.65,2.46-5.47,1.17-11,2.33-16.4,3.83a10.16,10.16,0,0,0-7.7,10.45,10.87,10.87,0,0,0,8.81,9.92A19.2,19.2,0,0,0,240,220.3c2.86-1.79,2.81-1.74,5.08.87a10.12,10.12,0,0,0,1.16,1.21,3.93,3.93,0,0,0,5.08.63C253.15,221.94,254,220.39,253.29,218.31Zm-18.58-1.25a8.42,8.42,0,0,1-5-.15,5,5,0,0,1-3.58-4.65,4.42,4.42,0,0,1,3.15-4.64,28,28,0,0,1,4.35-1.26c2.81-.63,5.62-1.21,8.62-1.94C242.93,211.68,240.51,215.75,234.71,217.06Z"/><path class="cls-4" d="M384,210.91c-1.74-1.4-3.58-1-5.18.58a24.56,24.56,0,0,1-5.13,4c-6.49,3.58-13.65.05-14.86-7.21-.29-1.75.2-2.23,1.94-2.13,2.9.14,5.81.05,9.34.05,3.1-.2,6.82.33,10.55-.3,4.06-.67,5.18-2.08,5-6.24-.34-8.18-6.05-14.18-14.81-15.53-10.06-1.55-18.53,3.72-21.05,13.06a28.09,28.09,0,0,0-.63,9.83c.73,8,5.71,13.89,13.36,15.82a23.56,23.56,0,0,0,11.47.1c4.31-1.06,8.18-3.05,10.36-7.21C385.12,214.15,385.65,212.26,384,210.91Zm-25.17-11.52a9,9,0,0,1,12.2-8.08,9.43,9.43,0,0,1,5.22,8c0,1.21-.67,1-1.35,1-2.42,0-4.84,0-7.26,0h-7.45C359.47,200.41,358.74,200.65,358.79,199.39Z"/><path class="cls-4" d="M332.08,217.3c-3.44,4.21-7.5,6.24-12.44,6.34-7.45.14-12.39-4.21-12.63-11.62s-.15-15.15-.05-22.74c.05-2.91,1.79-4.7,4.36-4.89a4.47,4.47,0,0,1,5,4.45c.24,4.16.15,8.37.19,12.58.05,2.52.05,5,.2,7.51.29,4.64,2.32,7.16,5.71,7.4a8.36,8.36,0,0,0,8.86-6.87c.62-3.05.33-6.1.38-9.15.1-3.48-.05-6.92.05-10.4.1-3,1.31-4.75,3.63-5.33a4.57,4.57,0,0,1,5.57,3,10,10,0,0,1,.43,3.34v27.83c-.24,3.1-1.74,4.84-4.26,4.94s-4.21-1.41-4.69-4.46A9.31,9.31,0,0,1,332.08,217.3Z"/><path class="cls-4" d="M408.64,223.69c-4.26-.1-8.18-.73-11.71-3a9.37,9.37,0,0,1-4.6-6.49,3.66,3.66,0,0,1,2.27-4.36,3.71,3.71,0,0,1,4.75,1.21c.53.73,1,1.5,1.45,2.23a10.25,10.25,0,0,0,12.29,3.34c1.5-.68,2.81-1.65,2.86-3.53a4.14,4.14,0,0,0-2.76-4.12c-2.86-1.3-6-1.79-9-2.76a28.87,28.87,0,0,1-6.88-2.85c-5.71-3.68-6.29-10.6-1.25-15.2a15.16,15.16,0,0,1,8.51-3.58,23.7,23.7,0,0,1,13.89,2.18,8.82,8.82,0,0,1,4.6,4.74c.68,1.79.63,3.63-1.06,4.79a4.24,4.24,0,0,1-5.38-.14,33.76,33.76,0,0,1-2.8-3,8.7,8.7,0,0,0-10.21-1.65c-2.76,1.55-2.81,4.21-.1,5.86,2.23,1.35,4.84,1.74,7.31,2.37a42.39,42.39,0,0,1,8.66,2.9c3.34,1.74,5.81,4.12,5.86,8.18,0,4.45-1.7,8-5.67,10.21C416.19,223.15,412.32,223.49,408.64,223.69Z"/><path class="cls-4" d="M417.69,260c0,6-.34,6.49-5.95,8.61a20.19,20.19,0,0,1-12.54.92c-5.81-1.5-9.39-5.27-10.74-11.17-1.65-7.17.58-14.62,5.81-17.91a17.54,17.54,0,0,1,17-1.26,9.14,9.14,0,0,1,5.08,5.23c.68,1.74.39,3.24-1.4,4.06s-2.95.05-3.82-1.4c-1.65-2.81-3.78-4.7-7.31-4.65-4.45.1-7.45,2.18-8.81,6.44a16.37,16.37,0,0,0-.09,9.53c1.5,5.38,6.14,7.89,11.9,6.59a23.74,23.74,0,0,0,2.52-.78,4.47,4.47,0,0,0,2.61-5.71c-.29-.77-.87-.53-1.4-.58-1.46-.05-2.91.1-4.36-.05s-2.76-.58-2.61-2.47,1.35-2.27,2.85-2.27c2.28,0,4.5,0,6.78,0,3.53.05,4.45,1,4.5,4.45Z"/><path class="cls-4" d="M496.72,240.14a2.51,2.51,0,0,0-2.52-2.42,2.36,2.36,0,0,0-2.56,2.08,16.26,16.26,0,0,0-.29,3.1c-.05,2.18,0,4.4,0,6.87-.92-.73-1.45-1.16-2-1.6a9.2,9.2,0,0,0-14.22,4.31,16.27,16.27,0,0,0,.29,11.81,9,9,0,0,0,10.06,5.61,11.25,11.25,0,0,0,5.71-3.38c.15.53.25.77.29,1,.34,1.55,1.21,2.76,3,2.52s2.37-1.6,2.37-3.34v-25.6A6.31,6.31,0,0,0,496.72,240.14ZM485.2,265.79c-3.24-.19-5.42-3.24-5.37-7.6.05-4.21,2.08-7.16,5-7.4,3.68-.29,6.2,2.71,6.25,7.5C491.15,262.93,488.78,265.93,485.2,265.79Z"/><path class="cls-4" d="M343.64,237.67c-1.79-.09-2.51,1.16-2.71,2.76a20.19,20.19,0,0,0-.14,2.9v6.39c-.92-.72-1.45-1.16-2-1.59a9.18,9.18,0,0,0-14.18,4.35,16.27,16.27,0,0,0,.29,11.81,9,9,0,0,0,10.31,5.52c2.12-.44,3.72-1.65,5.51-3.34.39,2.13,1,3.82,3.15,3.53s2.37-2.18,2.37-4.07V240.82C346.21,239,345.53,237.77,343.64,237.67Zm-3.82,24.68a4.93,4.93,0,0,1-5,3.44,5.12,5.12,0,0,1-4.75-3.44,9,9,0,0,1-.77-3.34,11.47,11.47,0,0,1,1.06-5.37,5,5,0,0,1,9.05-.14A10,10,0,0,1,339.82,262.35Z"/><path class="cls-4" d="M523.77,266.56c-1-2.8-.92-5.71-.92-8.61a31.56,31.56,0,0,0-.14-4.79c-.29-3.34-1.94-5.42-4.89-6.15a18,18,0,0,0-6.2-.58c-3.09.39-6.24,1-8.08,4-.87,1.4-1.45,3,.34,4.26s2.71,0,3.68-1.36a6.49,6.49,0,0,1,7.5-2.37,3.38,3.38,0,0,1,2.23,3.44c.05,1.45-1.36,1.11-2.18,1.31-2.71.67-5.47,1.16-8.18,1.83-3.24.83-5.13,3.1-5.08,6.15s1.93,5.18,5.18,6.1a9.7,9.7,0,0,0,8.22-1.45c1.75-1.12,2.86-1.6,4.07.58a2.24,2.24,0,0,0,3.15.92A2.39,2.39,0,0,0,523.77,266.56Zm-13-.33a3.12,3.12,0,0,1-3.14-2.76,2.72,2.72,0,0,1,2.32-3.15c2.37-.68,4.79-1.21,7.36-1.79C517.63,263.85,515.16,266.66,510.75,266.23Z"/><path class="cls-4" d="M561,266.37c-1-2.76-.87-5.57-.82-8.37,0-.78,0-1.6,0-2.42,0-6.29-1.4-8.18-7.5-9.05-4.3-.58-8.61-.24-11.61,3.58-1.07,1.35-1.79,3.15,0,4.5s2.8,0,3.82-1.4a6.59,6.59,0,0,1,7.55-2.23,3.42,3.42,0,0,1,2.08,3.29c.1,1.45-1.26,1.16-2.08,1.36-2.71.63-5.47,1.16-8.18,1.84-3.29.82-5.18,3.09-5.18,6.09s1.89,5.28,5.08,6.2a10.25,10.25,0,0,0,8.67-1.65c1.54-1,2.42-1.3,3.48.53a2.38,2.38,0,0,0,3.48,1.07A2.45,2.45,0,0,0,561,266.37Zm-13-.14a3.13,3.13,0,0,1-3.15-2.76,2.73,2.73,0,0,1,2.33-3.15c2.37-.68,4.79-1.21,7.35-1.79C554.89,263.85,552.42,266.66,548,266.23Z"/><path class="cls-4" d="M470.49,266.32c-1-2.76-.82-5.56-.87-8.37,0-1.6.09-3.24,0-4.84-.29-3.29-1.79-5.28-4.65-6.05a17.39,17.39,0,0,0-6.68-.63c-3.09.44-6.24,1.07-8,4.16-.78,1.36-1.26,2.91.43,4.07s2.71.05,3.68-1.31a6.49,6.49,0,0,1,7.5-2.42,3.29,3.29,0,0,1,2.23,3.39c.05,1.45-1.36,1.16-2.18,1.36-2.71.62-5.47,1.16-8.18,1.83-3.29.83-5.13,3.15-5.13,6.15s1.89,5.23,5.13,6.15a10.2,10.2,0,0,0,8.67-1.7c1.64-1.11,2.46-1.11,3.48.58a2.42,2.42,0,0,0,3.29,1.12C470.83,269,471,267.73,470.49,266.32Zm-12.87-.05a3.19,3.19,0,0,1-3.25-2.66c-.34-1.89.87-2.85,2.42-3.29,2.37-.72,4.79-1.21,7.21-1.74C464.49,263.71,462.07,266.61,457.62,266.27Z"/><path class="cls-4" d="M598.74,266.52c-1-2.76-.92-5.57-.92-8.38,0-1.69.14-3.43,0-5-.29-3.34-2-5.42-4.94-6.1a17.74,17.74,0,0,0-6-.53c-3.24.39-6.44.92-8.33,4-.87,1.4-1.45,3.05.39,4.26s2.66-.1,3.63-1.41a6.54,6.54,0,0,1,7.5-2.32,3.33,3.33,0,0,1,2.18,3.19c.14,1.7-1.36,1.26-2.23,1.5-2.61.68-5.27,1.16-7.93,1.79-3.34.83-5.23,3-5.28,6s1.84,5.37,5.23,6.29a9.93,9.93,0,0,0,8.47-1.6c1.64-1.07,2.56-1.4,3.68.58a2.3,2.3,0,0,0,3.29,1A2.46,2.46,0,0,0,598.74,266.52Zm-12.93-.29a3.12,3.12,0,0,1-3.19-2.71c-.34-1.89.87-2.86,2.47-3.3,2.37-.62,4.74-1.11,7.16-1.64C592.74,263.76,590.27,266.61,585.81,266.23Z"/><path class="cls-4" d="M642.78,266.47c-1-2.76-.92-5.57-.92-8.38,0-1.69.14-3.38,0-4.93-.29-3.44-2.08-5.52-5.18-6.15a17.7,17.7,0,0,0-5.47-.53c-3.24.34-6.44.82-8.42,3.82-1,1.45-1.65,3.15.29,4.46,1.79,1.21,2.71-.15,3.63-1.46a6.49,6.49,0,0,1,7.5-2.32,3.47,3.47,0,0,1,2.13,3.24c.14,1.7-1.36,1.31-2.23,1.5-2.71.68-5.47,1.16-8.18,1.84a6.12,6.12,0,0,0-5,6c0,3,1.84,5.32,5,6.24a10.26,10.26,0,0,0,8.71-1.6c1.64-1.11,2.56-1.35,3.68.58a2.3,2.3,0,0,0,3.29,1A2.43,2.43,0,0,0,642.78,266.47Zm-12.59-.2c-1.93,0-3.29-.92-3.58-2.85s1.21-2.86,2.86-3.29c2.22-.63,4.5-1.07,6.87-1.55C636.58,263.85,634.5,266.37,630.19,266.27Z"/><path class="cls-4" d="M371.86,262.64c-1-.77-2.08-.38-3,.49a13.16,13.16,0,0,1-3.49,2.56,5.87,5.87,0,0,1-8.37-3.92c-.29-1.26-.19-1.93,1.41-1.88,3.38.09,6.77,0,10.16,0,3.68-.05,4.6-1.12,4.31-4.7-.59-6.63-7.84-10.55-14.81-8.08-5.18,1.84-8,7.26-6.92,13.36s5.13,9.63,12.34,9.63c2.8-.25,6.29-.92,8.47-4.21C372.63,264.82,373.12,263.56,371.86,262.64Zm-14.37-8.85a5.07,5.07,0,0,1,5.71-3,5.31,5.31,0,0,1,4.16,4.45c.14.87,0,1.35-1,1.31-1.5-.05-2.95,0-4.4,0h-2.66C356.57,256.55,356.37,256.26,357.49,253.79Z"/><path class="cls-4" d="M438.6,266.61c-1.75,1.41-3.34,2.81-5.57,3.24-5.23,1.07-9.15-1.54-9.39-6.77-.24-4.5-.09-9-.05-13.55,0-1.7.83-3.05,2.67-3.1a2.77,2.77,0,0,1,2.95,2.86c.14,1.74.09,3.53.09,5.32.05,2.27,0,4.5.1,6.78.15,2.85,1.36,4.25,3.53,4.35a5,5,0,0,0,5.18-3.82,27.57,27.57,0,0,0,.39-6c0-2.28-.05-4.5.05-6.78a2.61,2.61,0,0,1,2.8-2.71,2.55,2.55,0,0,1,2.71,2.76c.05,2.32.05,4.69.05,7v10.64c0,1.7-.58,3.1-2.46,3.2s-2.57-1-2.76-2.71C438.84,267.14,438.69,267,438.6,266.61Z"/><path class="cls-5" d="M572.17,261.24c0,3.68.09,7.4,0,11.08a6.91,6.91,0,0,1-10.65,5.62,2.16,2.16,0,0,1-1.06-2.47,1.91,1.91,0,0,1,2-1.65c4-.29,4-.29,4-4.26V251.22c0-.72,0-1.45.09-2.18a2.65,2.65,0,0,1,2.86-2.66c1.84.05,2.71,1.21,2.76,3,0,4,0,7.94-.05,11.86Z"/><path class="cls-5" d="M528.76,253.88V241.54c0-1.88.38-3.63,2.71-3.82,1.84-.14,2.95,1.26,2.95,3.87.05,8.23,0,16.46,0,24.68,0,1.94-.49,3.58-2.71,3.88-1.79.19-2.9-1.31-3-3.88C528.71,262.11,528.76,258,528.76,253.88Z"/><path class="cls-4" d="M609.77,249.58c3.19-3.44,5.42-4,8.57-2.23,1.21.68,2.17,1.55,1.59,3.1s-1.88,1.74-3.19,1.31c-4.45-1.51-5.9.43-6.53,4.4-.49,3.1-.15,6.24-.25,9.39a10.77,10.77,0,0,1-.29,2.61,2.68,2.68,0,0,1-5.17-.05,4.67,4.67,0,0,1-.29-1.4c0-5.57-.05-11.13,0-16.65a3.94,3.94,0,0,1,1-2.9C606.87,245.46,609,246.48,609.77,249.58Z"/><path class="cls-4" d="M337.16,288.49H640.79a14.38,14.38,0,0,1,4.07.34c2.76.82,4.21,2.61,4.21,5.42a5.2,5.2,0,0,1-4.16,5.46,11.2,11.2,0,0,1-3.34.34H33c-4.74,0-7.3-1.88-7.45-5.42-.14-3.19,1.36-5.22,4.5-5.9a18,18,0,0,1,3.58-.29Q185.54,288.52,337.16,288.49Z"/><path class="cls-6" d="M597.85,231.71a12.85,12.85,0,0,1-6.88-2,13.19,13.19,0,0,1-6-9.19,25.8,25.8,0,0,1-.4-4.57V168.56a30.29,30.29,0,0,1,.38-4.74v-.06a12.42,12.42,0,0,1,9.79-10.41,16.11,16.11,0,0,1,4.06-.56c3.2.05,6.5,0,9.7,0a191.68,191.68,0,0,1,19.82.44,24.18,24.18,0,0,1,20.78,33.21,21,21,0,0,1-8.53,10.43,63.22,63.22,0,0,1,10,17c2.47,5.88,1.19,11.34-3.53,15l0,0a13.93,13.93,0,0,1-16.16.35l-.14-.1a19.89,19.89,0,0,1-5.1-5.76c-1.52-2.43-3-4.83-4.47-7.23-2-3.22-4-6.56-6.08-9.8a6.4,6.4,0,0,0-3.53-3c0,4.64,0,9.32,0,13.95-.12,9.89-6.69,13-9.51,13.82l-.06,0A14.64,14.64,0,0,1,597.85,231.71Zm40-11.92Zm-32.53-16.73h0Zm-6.72-13.36v3.43a7.78,7.78,0,0,1,1.3-1.72A8.79,8.79,0,0,1,598.64,189.7Zm13-9.86c.78,0,1.56,0,2.31,0,3.33.06,6.22.11,8.74-.65a4.05,4.05,0,0,0,1-.4,4.21,4.21,0,0,0,.05-1c0-.23-.09-.81-1.29-1.06a25.09,25.09,0,0,0-5.24-.31c-1,0-2.07,0-3.13,0l-2.39,0c0,.22,0,.45,0,.67C611.65,178.07,611.65,179,611.65,179.84Z"/><path class="cls-6" d="M500.45,231.67h-.25c-6.09-.22-12.55-.9-18.59-4.42a27,27,0,0,1-13.34-17.43,14.14,14.14,0,0,1,.06-7.81,12.52,12.52,0,0,1,8.46-8.56,23.19,23.19,0,0,1-7.65-14.62A23,23,0,0,1,476,159.47c5.52-5.39,14.32-8.41,24.17-8.28s18.51,3.39,23.86,8.91c3.91,4.08,5.89,8.68,5.89,13.69A13.18,13.18,0,0,1,523.7,185a22.25,22.25,0,0,1,9,17.56c.39,11.54-4.88,20.3-15.22,25.36-5.77,2.91-11.71,3.51-16.76,3.72Zm-8.13-30.81c.56,1.08,1,2.12,1.38,3,.24.55.46,1.07.67,1.53.76,1.64,2.67,2.21,4.14,2.39,3.35.44,6.44-.85,7.08-1.63a1.14,1.14,0,0,0,.34-.8,1.38,1.38,0,0,0-.65-.75,19.81,19.81,0,0,0-6-2l-1.12-.27-.06,0-1.67-.41C495.07,201.57,493.7,201.23,492.32,200.86Zm3.75-26a25.32,25.32,0,0,0,4.58,1.45l.77.2,1.72.43,1.4.35c-.16-.28-.32-.55-.48-.79a6.1,6.1,0,0,0-4.28-2.07A7.74,7.74,0,0,0,496.07,174.88Z"/><path class="cls-6" d="M553,231.74a32.94,32.94,0,0,1-12.58-2.63,21.19,21.19,0,0,1-13.2-16.2,21.56,21.56,0,0,1,7.63-19.83c.48-.41,1-.8,1.46-1.17-.25-.47-.49-1-.73-1.47l-.05-.09c-4-8.83-.92-18.62,7.36-23.26a24.38,24.38,0,0,1,24-.43,17.68,17.68,0,0,1,9.53,13.07,17.44,17.44,0,0,1-1.46,9.92,11.91,11.91,0,0,1,3.59.76c5.44,2.05,8.07,7.13,6.87,13.24a25.73,25.73,0,0,1-2,6c.77.65,1.49,1.3,2.17,1.91l.07.06h0c4.58,4.14,5.44,10.12,2.16,14.91a11.4,11.4,0,0,1-15.47,3.3,40,40,0,0,1-3.89-2.73A28.78,28.78,0,0,1,553,231.74Zm8.47-18.07h0ZM540,197.28h0Zm14.61-13.14Zm.54-1.34-.72.3a2.35,2.35,0,0,0,.91,1,1.87,1.87,0,0,0,1.12-.51Zm0,0,1.31.78a2.71,2.71,0,0,0,.33-.91,4.69,4.69,0,0,0-.75-.24Zm-.85-.49a1.79,1.79,0,0,0,.08.72l.68-.27Zm0,0,.77.45.86-.35a5.29,5.29,0,0,0-1.63-.1Zm.34-1.09Z"/><path class="cls-6" d="M113.52,230.74a11.64,11.64,0,0,1-10.76-7.22,10.54,10.54,0,0,1-.9-4c-.41-11.17-.41-21.44,0-31.39a10.94,10.94,0,0,1,11.32-10.69,11.53,11.53,0,0,1,7.2,2.4c5.41-2.63,12.8-4.33,20.1.78a20.07,20.07,0,0,1,7.73-3A21.78,21.78,0,0,1,160,179c6.45,2.55,10.37,8.11,10.77,15.26.39,7,.29,13.9.19,20.62,0,1,0,2.06,0,3.09-.06,5-2.09,8-3.79,9.61a11.94,11.94,0,0,1-19.43-5.18,11.14,11.14,0,0,1-7.12,7.53,11.91,11.91,0,0,1-9.92-.64,11.62,11.62,0,0,1-5.62-7.43,11.41,11.41,0,0,1-8.05,8.35A11.61,11.61,0,0,1,113.52,230.74Zm2.38-11.37h0Zm0-30.66v0Z"/><path class="cls-6" d="M95.38,229.69H68.52c-9.14,0-14-4.81-14-13.91-.05-6.36-.05-12.86-.05-19.15V177.27c0-8.3,5-13.31,13.24-13.4,9.29-.05,18.68-.05,27.94,0,5.92,0,8.92,2.93,10.39,5.41a11,11,0,0,1-6.69,16.29l-.28.07a10.4,10.4,0,0,1,6.46,9.93c0,5.33-3.62,10.77-11.7,10.89h-.06l-2.74,0c-3.94,0-8,.07-12,0v.93c3.91,0,7.83,0,11.65,0H96.2c8.53,0,11.89,5.6,12.18,10.41a10.53,10.53,0,0,1-8,11.31A17.43,17.43,0,0,1,95.38,229.69Zm1.3-8.2ZM96,177.92Z"/><path class="cls-6" d="M292.58,245.08h-.29a10.72,10.72,0,0,1-10.75-9,29.81,29.81,0,0,1-.48-6h0a25.43,25.43,0,0,1-5.54.62c-9.47,0-17.58-5.66-21.09-15.21a33.22,33.22,0,0,1-.4-21.86c2.71-8.41,8.5-13.78,16.77-15.58a21.6,21.6,0,0,1,14.91,1.68,11.33,11.33,0,0,1,6.7-2.28,11.1,11.1,0,0,1,11.19,7.89,16.15,16.15,0,0,1,.68,5.28v40.6a21.82,21.82,0,0,1-.72,5.65c0,.05,0,.11,0,.16A11,11,0,0,1,292.58,245.08Zm-14.35-46.44h-.05c-.28,0-.71.12-1.08.87a9.37,9.37,0,0,0,.09,9.16,1.27,1.27,0,0,0,1.05.77,1.62,1.62,0,0,0,1.42-.89,6.4,6.4,0,0,0,1-3.76,3.84,3.84,0,0,1,0-.48c.08-2.66-.39-3.8-.9-4.63A1.81,1.81,0,0,0,278.23,198.64Z"/><path class="cls-6" d="M177.26,245.17c-5.85,0-10.15-3.67-11-9.36,0,0,0-.08,0-.12s-.05-.29-.08-.44a14.74,14.74,0,0,1-.31-2.8q0-7.14,0-14.27c0-9.37,0-19.05,0-28.59,0-7,4.39-11.92,10.92-12.17a11.46,11.46,0,0,1,7.69,2.43,19,19,0,0,1,5.24-1.9c12.67-2.56,24,5.16,27.07,18.36a33.25,33.25,0,0,1-1.2,19.15A22.67,22.67,0,0,1,198.2,230.3a22.18,22.18,0,0,1-9.23-.25v.16a29.11,29.11,0,0,1-.59,6.25l0,.06A11,11,0,0,1,177.26,245.17Zm22.26-34.07h0Zm-7.83-12.4c-.51,0-.92.14-1.58,1.32a8,8,0,0,0-.65,3.82V204a7.7,7.7,0,0,0,.62,4c.82,1.42,1.26,1.39,1.87,1.36H192c.43,0,.63,0,1.06-1a10.24,10.24,0,0,0,0-8.66c-.4-.91-.55-.92-1.12-.94Z"/><path class="cls-6" d="M249.16,230.67a11.17,11.17,0,0,1-7.61-3.1l0,0a25.61,25.61,0,0,1-17.72,2.53,17.8,17.8,0,0,1-14.33-16.36,16.91,16.91,0,0,1,4.12-12.19c-2.41-2.93-3.09-7-1.63-11.29,2-6,6.64-10,13.78-12.05a37.53,37.53,0,0,1,18-.41c9.55,2,14.63,8.29,15.12,18.64v0c.07,1.83.05,3.62,0,5.35,0,.81,0,1.62,0,2.43a2.81,2.81,0,0,1,0,.29c-.16,3.84-.13,7.9,1.12,11.49,1.76,5.07-.19,10.18-5,13l-.07,0A11.42,11.42,0,0,1,249.16,230.67Zm-2.5-10h0Z"/><path class="cls-6" d="M368.4,230.64a30.85,30.85,0,0,1-7.67-1,24.35,24.35,0,0,1-18.61-22,34.59,34.59,0,0,1,.85-12.28c3.44-12.79,15.32-20.27,28.89-18.18,12.13,1.88,20.27,10.58,20.75,22.18a13.59,13.59,0,0,1-2,8.56c1.69,2.7,2.26,6.52,0,11-2.85,5.44-7.86,9.07-14.92,10.81A30.72,30.72,0,0,1,368.4,230.64Z"/><path class="cls-6" d="M336.84,230.71a11.08,11.08,0,0,1-7.17-2.48,22.36,22.36,0,0,1-9.89,2.42c-11.45.22-19.42-7.17-19.78-18.4-.25-7.7-.15-15.5-.06-23.05.11-6.5,4.57-11.33,10.85-11.81a11.65,11.65,0,0,1,8.56,2.76,11.76,11.76,0,0,1,3.95,8.23v.05c.18,3.12.18,6.21.18,9.2,0,1.23,0,2.46,0,3.69l0,1.87c0,1.85,0,3.59.15,5.33,0,.24,0,.44.06.62a1.63,1.63,0,0,0,.63-1.07,25.55,25.55,0,0,0,.26-5.2c0-.86,0-1.75,0-2.67v-.08c0-1.63,0-3.25,0-5s0-3.58,0-5.44c.19-6.12,3.52-10.57,8.91-11.93a11.6,11.6,0,0,1,13.91,7.45,16.43,16.43,0,0,1,.84,5.69v27.83c0,.18,0,.36,0,.55-.53,6.69-4.84,11.16-11,11.4Z"/><path class="cls-6" d="M408.64,230.7h-.16c-4.32-.1-10-.65-15.35-4.11a16.2,16.2,0,0,1-7.72-11.24A10.66,10.66,0,0,1,389,205.12a15.81,15.81,0,0,1-3.31-8.42A16.7,16.7,0,0,1,391.32,183l0,0a22.07,22.07,0,0,1,12.36-5.33,30.81,30.81,0,0,1,17.91,2.88,15.69,15.69,0,0,1,8,8.54c1.58,4.2.95,8.29-1.61,11.22a14.7,14.7,0,0,1,4.33,10.52c.08,7.16-3.17,13-9.16,16.37-4.8,2.83-9.83,3.31-14.18,3.54ZM399.25,213h0Zm21.81-22.31h0Z"/><path class="cls-6" d="M403.93,277.19a25.48,25.48,0,0,1-6.5-.84A21,21,0,0,1,381.62,260c-2.38-10.35,1.2-20.57,8.91-25.42A24.52,24.52,0,0,1,414,232.75a16.16,16.16,0,0,1,8.89,9.14,10.37,10.37,0,0,1-.17,8.39,12.7,12.7,0,0,1,2,7.23V260c0,3.29,0,6.69-2.12,9.75s-5.29,4.26-8.36,5.43A28.89,28.89,0,0,1,403.93,277.19Z"/><path class="cls-6" d="M494,277.1a9.11,9.11,0,0,1-4.43-1.12,15.84,15.84,0,0,1-2.59.78,16.05,16.05,0,0,1-18-9.79,23.39,23.39,0,0,1-.44-16.78,16,16,0,0,1,10.31-10.1,16.45,16.45,0,0,1,5.84-.75c0-.29.09-.57.14-.85a.94.94,0,0,1,0-.16,9.34,9.34,0,0,1,9.66-7.62h.23a9.54,9.54,0,0,1,9,8.47,13.7,13.7,0,0,1,.11,1.92v25.6c0,5.56-3.31,9.6-8.44,10.29A9.48,9.48,0,0,1,494,277.1Z"/><path class="cls-6" d="M333.19,277A16,16,0,0,1,318.39,267a23.36,23.36,0,0,1-.45-16.79A16.2,16.2,0,0,1,334,239.3c.77-5.37,4.85-8.91,10-8.64,5.42.29,9.21,4.46,9.21,10.16v25.11a13.59,13.59,0,0,1-.87,5.32,9.27,9.27,0,0,1-7.62,5.71,10,10,0,0,1-5.72-1,14.42,14.42,0,0,1-2.41.72A16.7,16.7,0,0,1,333.19,277Zm3.38-17.42Zm-.25-.11Z"/><path class="cls-6" d="M509.65,277.14a16.9,16.9,0,0,1-4.48-.61l-.06,0c-6.24-1.77-10.18-6.65-10.28-12.74a13.06,13.06,0,0,1,1.84-7c-1.36-2.63-1.55-6.12.91-10.09,3.71-6,10.1-6.85,13.17-7.23h.06a24.63,24.63,0,0,1,8.63.73h0c5.77,1.42,9.56,5.94,10.19,12.11a29.07,29.07,0,0,1,.2,4.63c0,.34,0,.67,0,1v.4a19.55,19.55,0,0,0,.53,5.9,9.33,9.33,0,0,1-4.8,11.83l-.08.05a9.41,9.41,0,0,1-9.16-.44A16.48,16.48,0,0,1,509.65,277.14Zm15.83-11.62h0Z"/><path class="cls-6" d="M546.84,277.14a16.79,16.79,0,0,1-4.47-.62l-.07,0c-6.26-1.8-10.16-6.76-10.16-12.94a12.93,12.93,0,0,1,1.86-6.77,9,9,0,0,1-.92-2.92,10.65,10.65,0,0,1,2.5-8.1c4.07-5.18,10.15-7.26,18.07-6.2h.05c3.38.48,7.62,1.49,10.49,5,2.62,3.25,3,7.17,3,10.92,0,.16,0,.32,0,.47,0,.62,0,1.29,0,2v.49a17.12,17.12,0,0,0,.42,5.52,9.46,9.46,0,0,1-4.27,11.8l-.1.06a9.25,9.25,0,0,1-9.61-.18A17,17,0,0,1,546.84,277.14Z"/><path class="cls-6" d="M456.36,277.18a16.73,16.73,0,0,1-4.41-.6l-.07,0c-6.31-1.79-10.23-6.73-10.23-12.9a13.08,13.08,0,0,1,1.89-6.88c-1.29-2.54-1.5-5.86.68-9.67,3.53-6.28,10-7.19,13.1-7.63h.07a24.13,24.13,0,0,1,9.39.81c5.71,1.55,9.28,6,9.83,12.21,0,.07,0,.13,0,.2.08,1.34.06,2.65,0,3.8,0,.47,0,.94,0,1.4s0,.84,0,1.26a16,16,0,0,0,.46,4.85v0c1.72,5-.22,9.86-4.83,12.09a9.23,9.23,0,0,1-9.06-.43A16.84,16.84,0,0,1,456.36,277.18Z"/><path class="cls-6" d="M584.67,277.19a16.65,16.65,0,0,1-4.45-.62c-6.5-1.78-10.47-6.82-10.37-13.16a12.93,12.93,0,0,1,1.85-6.61c-1.35-2.71-1.41-6.2.93-10,3.76-6.15,10.07-6.9,13.47-7.31a24.1,24.1,0,0,1,8.32.66c6,1.36,9.83,6,10.39,12.33a33.92,33.92,0,0,1,.05,4.13c0,.51,0,1,0,1.51v.39a18.32,18.32,0,0,0,.52,5.65A9.44,9.44,0,0,1,600.92,276l-.17.09a9.24,9.24,0,0,1-9.36-.3A16.67,16.67,0,0,1,584.67,277.19Z"/><path class="cls-6" d="M628.61,277.15a17.22,17.22,0,0,1-4.57-.62l-.12,0c-6.19-1.81-10.13-6.94-10-13.09a13.14,13.14,0,0,1,1.89-6.63c-1.41-2.82-1.42-6.46,1.18-10.36,3.9-5.9,10.17-6.56,13.53-6.91a23.52,23.52,0,0,1,7.64.65c6.16,1.27,10.16,5.89,10.73,12.38a32.85,32.85,0,0,1,0,4.06c0,.5,0,1,0,1.5v.39a18.21,18.21,0,0,0,.52,5.63A9.38,9.38,0,0,1,644.87,276l-.09,0a9.25,9.25,0,0,1-9.35-.29A17,17,0,0,1,628.61,277.15Z"/><path class="cls-6" d="M363.49,277.11c-10.57,0-17.58-5.63-19.26-15.46-1.65-9.46,3.07-18.16,11.49-21.15a19.11,19.11,0,0,1,16.61,1.73,16.35,16.35,0,0,1,7.54,12.35,13.54,13.54,0,0,1-.78,6.36c1,2.46.83,5.5-1.21,8.71l-.07.11c-4.32,6.52-11.39,7.13-13.72,7.33C363.89,277.11,363.69,277.11,363.49,277.11Z"/><path class="cls-6" d="M430.8,277.11a13.78,13.78,0,0,1-14.17-13.68c-.2-3.84-.14-7.64-.09-11.32,0-.87,0-1.75,0-2.63,0-5.69,4-9.92,9.49-10.06a9.7,9.7,0,0,1,7.76,3.39,9.71,9.71,0,0,1,7.52-3.4,9.53,9.53,0,0,1,9.73,9.58v0c.05,2.4.05,4.82.05,7.17v10.64c0,5.74-3.75,9.93-9.13,10.21a9.66,9.66,0,0,1-5.06-1.07,14.39,14.39,0,0,1-2.53.75A18.91,18.91,0,0,1,430.8,277.11Z"/><path class="cls-6" d="M565.29,286.06a14,14,0,0,1-7.43-2.14,9.16,9.16,0,0,1-4.31-9.71,8.82,8.82,0,0,1,5.94-6.9V251.22c0-.95.06-1.84.11-2.63l0-.34a9.63,9.63,0,0,1,10-8.88c5.47.14,9.42,4.18,9.57,9.82v.19c0,3.91,0,7.95-.05,11.9,0,1.19,0,2.39,0,3.58,0,2.5,0,5.07,0,7.65a13.72,13.72,0,0,1-7.26,11.86A14,14,0,0,1,565.29,286.06Z"/><path class="cls-6" d="M531.4,277.18a9.2,9.2,0,0,1-6.12-2.3c-1.57-1.38-3.45-4-3.54-8.47v-.05c0-2.84,0-5.66,0-8.39,0-1.37,0-2.73,0-4.09V241.54c0-7.41,4.72-10.44,9.14-10.81a9.43,9.43,0,0,1,7.24,2.43,11,11,0,0,1,3.32,8.43c0,5.47,0,11.06,0,16.47q0,4.11,0,8.21c0,7.14-4.56,10.28-8.82,10.83l-.16,0A9.42,9.42,0,0,1,531.4,277.18Z"/><path class="cls-6" d="M607.1,277.12h-.39a9.54,9.54,0,0,1-8.92-6.93l0-.15a11.31,11.31,0,0,1-.55-3.32c0-1.85,0-3.7,0-5.55,0-3.65,0-7.43,0-11.13a10.66,10.66,0,0,1,3-7.83,9.06,9.06,0,0,1,10.62-2c3.53-1.47,7.2-1.13,11,1,5.54,3.12,6,8.23,4.71,11.67a9.1,9.1,0,0,1-9.52,6c0,1,0,2.1,0,3.23s0,2.35,0,3.6c0,.06,0,.12,0,.18l0,.38a15.16,15.16,0,0,1-.54,3.82l0,.08A9.52,9.52,0,0,1,607.1,277.12Zm10.26-20.87Zm-14.4-5Z"/><path class="cls-6" d="M641.57,307.07H33c-10.3,0-14.23-6.54-14.46-12.15-.3-6.64,3.54-11.65,10-13.05a24.54,24.54,0,0,1,5.06-.45c101.25.05,204.06.05,303.49.05h304a19.34,19.34,0,0,1,5.62.61l.07,0a12.65,12.65,0,0,1,0,24.35A17.81,17.81,0,0,1,641.57,307.07ZM643,295.61ZM31.51,292.87Z"/><path class="cls-4" d="M644.18,216.57c-3.58-8.61-8.32-16.36-16.41-22.07,1.31-.34,2.33-.58,3.2-.87,5.13-1.74,9.58-4.35,11.61-9.73,4.31-11.27-2.85-22.64-14.85-23.71-9.64-.87-19.31-.24-29-.39a10.37,10.37,0,0,0-2.38.39,5.35,5.35,0,0,0-4.45,4.74,23.37,23.37,0,0,0-.29,3.63V216a20,20,0,0,0,.29,3.39,6,6,0,0,0,8.08,5c3-.92,4.51-3.19,4.55-7.16.05-6.44.05-12.92,0-19.36,0-1.35.34-1.93,1.75-1.74a10.49,10.49,0,0,0,2.17,0c5.52-.44,9.68,1.89,12.59,6.49,3.58,5.66,7,11.37,10.55,17a13,13,0,0,0,3.29,3.82,7,7,0,0,0,7.93-.14C645,221.65,645.49,219.67,644.18,216.57Zm-33.64-29.71c-1.88,0-4.4.82-5.56-.34s-.29-3.68-.34-5.57c0-3.24.1-6.43,0-9.68-.05-1.55.49-1.88,1.89-1.84,2.37.1,4.79,0,7.74,0,2.86.15,6.25-.24,9.63.49a8.18,8.18,0,0,1,6.88,7.6c.19,4.45-1.7,7.11-6,8.42C620.08,187.34,615.29,186.81,610.54,186.86Z"/><path class="cls-4" d="M500.45,224.65c-5.47-.19-10.7-.77-15.35-3.48a19.89,19.89,0,0,1-10-13,7.19,7.19,0,0,1,0-4.06,5.61,5.61,0,0,1,4.6-4.12,5.15,5.15,0,0,1,5.27,2.18c1.4,1.89,2.13,4.16,3.1,6.24,4.21,9,18.53,7.65,23,2.28a7.82,7.82,0,0,0-1.89-11.91c-2.81-1.84-6.1-2.47-9.29-3.24-5.38-1.36-10.84-2.52-15.68-5.37a16.24,16.24,0,0,1-3.29-25.65c8.8-8.62,29.56-8.33,38.08.48a12.52,12.52,0,0,1,3.92,8.81,6,6,0,0,1-4,5.76c-2.61.77-4.79-.05-6.38-2.52-.92-1.4-1.65-2.95-2.57-4.35-3.92-6-14.61-7.17-19.79-2.18-3.05,2.95-2.76,7,.82,9.48,2.61,1.89,5.71,2.57,8.71,3.34a112.31,112.31,0,0,1,13.65,4c7.16,2.76,12.1,7.36,12.39,15.54q.43,13.06-11.33,18.82C509.88,223.93,505.09,224.46,500.45,224.65Z"/><path class="cls-4" d="M581,216.86a47.27,47.27,0,0,0-4.45-3.68c-1.69-1.16-2.08-2.17-.87-4a18.88,18.88,0,0,0,2.86-6.88c.53-2.71-.29-4.5-2.47-5.32s-3.87-.1-5.23,2.52c-1,1.89-1.79,3.87-2.76,6-3.29-3.34-6-6.73-8.85-10.12a41.9,41.9,0,0,0,6.77-5c5.57-5.47,4.55-13.84-2.37-17.47a17.34,17.34,0,0,0-17.33.34c-5.17,2.9-6.87,8.81-4.4,14.23a20.71,20.71,0,0,0,3.24,5.08c1.16,1.26.78,1.79-.53,2.42a25.46,25.46,0,0,0-5.23,3.48c-8.56,7.31-6.72,19.94,3.68,24.2,8.62,3.53,16.89,2.66,24.3-3.29,1.11-.92,1.69-.92,2.75,0a45.14,45.14,0,0,0,6,4.55,4.4,4.4,0,0,0,6-1.26C583.39,220.73,583,218.65,581,216.86ZM550.44,180a5.31,5.31,0,0,1,4.4-2.85c3.24.05,5.13,1.06,6,3.24,1,2.37.24,4.41-1.6,6.1-4.3,4-5.51,3.87-8.47-1.26C549.86,183.52,549.37,181.78,550.44,180Zm11,33.69c-2.61,2.08-5.32,3.68-8.76,3.68a9,9,0,0,1-8.61-5.81c-1.26-3.44-.2-6.68,3.1-9.39a.52.52,0,0,1,.19-.15c3.24-2.56,3.24-2.56,5.9.59a96.91,96.91,0,0,0,8.18,8.9C562.39,212.36,562.49,212.85,561.47,213.67Z"/><path class="cls-4" d="M117.83,189.66c9.92-7.11,16.31-7.06,22.36.29,2.57-2.56,5.32-4.74,9.1-5.32a14.88,14.88,0,0,1,8.08.87c4.07,1.6,6.15,4.79,6.39,9.15.43,7.74.24,15.49.14,23.23,0,3.87-2,5.9-5,5.81s-4.84-2.33-4.89-6c0-5,0-10,0-15,0-1.55,0-3.05,0-4.6-.19-3.92-1.64-6-4.35-6.29a7.14,7.14,0,0,0-7.6,5.38,29.53,29.53,0,0,0-.58,7.45c-.05,4.35,0,8.71-.05,13.06,0,2.42-.53,4.7-3.19,5.67a4.56,4.56,0,0,1-6.34-3.34,17.11,17.11,0,0,1-.34-3.83c0-6.14,0-12.24-.15-18.39,0-3.72-1.45-5.66-4-6-3.92-.48-6.54,1.07-7.7,4.6a27,27,0,0,0-1,8.62c0,4.21,0,8.37,0,12.58,0,3.43-1.16,5.18-3.58,5.9a4.67,4.67,0,0,1-5.76-2.71,3.39,3.39,0,0,1-.34-1.4c-.39-10.31-.44-20.62,0-30.93.1-2.61,1.93-4,4.31-4a4.32,4.32,0,0,1,4.55,4.06C117.78,188.84,117.78,189.23,117.83,189.66Z"/><path class="cls-4" d="M61.5,196.63V177.27c0-4.5,1.79-6.34,6.29-6.38,9.29,0,18.54,0,27.83,0,1.74,0,3.43.34,4.4,2a3.93,3.93,0,0,1-2.42,5.9,10.83,10.83,0,0,1-2.85.3c-6.87,0-13.7.09-20.57,0-2-.05-2.42.58-2.32,2.42a80.49,80.49,0,0,1,0,8.22c0,1.6.38,2,2,2,6.63-.1,13.21,0,19.84,0,3.24,0,4.79,1.35,4.79,3.87s-1.55,3.82-4.79,3.87c-6.39.05-12.73.14-19.12-.05-2.22,0-2.85.58-2.75,2.76.19,3.39.14,6.78,0,10.16,0,1.65.34,2.18,2.08,2.18,7.4-.1,14.85-.05,22.26-.05,3.34,0,5,1.31,5.18,3.83a3.61,3.61,0,0,1-2.91,4.11,11.17,11.17,0,0,1-3.09.29H68.52c-5.33,0-7-1.69-7-6.92C61.5,209.41,61.5,203,61.5,196.63Z"/><path class="cls-4" d="M296.89,187.44a4,4,0,0,0-4.35-3.05,4,4,0,0,0-4.07,3.14c-.29.92-.38,1.89-.63,3.05-4.16-5.37-9.34-7.11-15.58-5.76-6,1.31-9.73,5.13-11.57,10.84A26.27,26.27,0,0,0,261,213c2.95,8,10.3,12,18.48,10.16,3.2-.72,5.81-2.61,8.62-5v10.07a32.06,32.06,0,0,0,.34,6.48,3.75,3.75,0,0,0,4,3.39,4,4,0,0,0,4.31-3.1,14.45,14.45,0,0,0,.48-3.82V190.53A9.44,9.44,0,0,0,296.89,187.44Zm-11.37,25c-3.68,5.57-11.37,5.37-14.52-.44a16.32,16.32,0,0,1-.19-15.58c3.1-6.24,11.28-6.34,14.91-.39a14.69,14.69,0,0,1,1.93,8.52A13.38,13.38,0,0,1,285.52,212.41Z"/><path class="cls-4" d="M210,197.89c-2.18-9.53-10-14.86-18.83-13.07-3.77.78-6.39,3.15-9,6-.19-1.16-.29-2-.48-2.91a4.33,4.33,0,0,0-4.6-3.43c-2.62.09-4.16,1.88-4.16,5.18,0,14.27,0,28.55,0,42.83a21.76,21.76,0,0,0,.33,2.37c.34,2.37,1.8,3.34,4,3.34a4,4,0,0,0,4.26-3.2,22.54,22.54,0,0,0,.44-4.79c0-4.06,0-8.13,0-12.78.67.68,1,.92,1.21,1.21,7.25,8.52,21.68,6,25.84-5.51A26.31,26.31,0,0,0,210,197.89ZM199.52,211.1c-1.35,3.1-3.67,5.08-7.21,5.23-3.77.19-6.43-1.65-8.27-4.79a14.11,14.11,0,0,1-1.6-7.7,14.59,14.59,0,0,1,1.55-7.26c1.79-3.19,4.45-5,8.23-4.88a7.84,7.84,0,0,1,7.25,5.13A17.21,17.21,0,0,1,199.52,211.1Z"/><path class="cls-4" d="M253.29,218.31c-1.6-4.59-1.69-9.34-1.5-14.08,0-2.52.1-5,0-7.5-.34-7.11-3.15-10.74-9.53-12.1a30.51,30.51,0,0,0-14.62.29c-4.11,1.16-7.6,3.2-9,7.55-.92,2.66-.24,4.65,1.79,5.61,2.23,1.07,3.82.59,5.33-2.08,2.27-4,5.56-5.56,10-5.32,4.26.19,5.81,1.6,6.49,5.86.24,1.54-.1,2.13-1.65,2.46-5.47,1.17-11,2.33-16.4,3.83a10.16,10.16,0,0,0-7.7,10.45,10.87,10.87,0,0,0,8.81,9.92A19.2,19.2,0,0,0,240,220.3c2.86-1.79,2.81-1.74,5.08.87a10.12,10.12,0,0,0,1.16,1.21,3.93,3.93,0,0,0,5.08.63C253.15,221.94,254,220.39,253.29,218.31Zm-18.58-1.25a8.42,8.42,0,0,1-5-.15,5,5,0,0,1-3.58-4.65,4.42,4.42,0,0,1,3.15-4.64,28,28,0,0,1,4.35-1.26c2.81-.63,5.62-1.21,8.62-1.94C242.93,211.68,240.51,215.75,234.71,217.06Z"/><path class="cls-4" d="M384,210.91c-1.74-1.4-3.58-1-5.18.58a24.56,24.56,0,0,1-5.13,4c-6.49,3.58-13.65.05-14.86-7.21-.29-1.75.2-2.23,1.94-2.13,2.9.14,5.81.05,9.34.05,3.1-.2,6.82.33,10.55-.3,4.06-.67,5.18-2.08,5-6.24-.34-8.18-6.05-14.18-14.81-15.53-10.06-1.55-18.53,3.72-21.05,13.06a28.09,28.09,0,0,0-.63,9.83c.73,8,5.71,13.89,13.36,15.82a23.56,23.56,0,0,0,11.47.1c4.31-1.06,8.18-3.05,10.36-7.21C385.12,214.15,385.65,212.26,384,210.91Zm-25.17-11.52a9,9,0,0,1,12.2-8.08,9.43,9.43,0,0,1,5.22,8c0,1.21-.67,1-1.35,1-2.42,0-4.84,0-7.26,0h-7.45C359.47,200.41,358.74,200.65,358.79,199.39Z"/><path class="cls-4" d="M332.08,217.3c-3.44,4.21-7.5,6.24-12.44,6.34-7.45.14-12.39-4.21-12.63-11.62s-.15-15.15-.05-22.74c.05-2.91,1.79-4.7,4.36-4.89a4.47,4.47,0,0,1,5,4.45c.24,4.16.15,8.37.19,12.58.05,2.52.05,5,.2,7.51.29,4.64,2.32,7.16,5.71,7.4a8.36,8.36,0,0,0,8.86-6.87c.62-3.05.33-6.1.38-9.15.1-3.48-.05-6.92.05-10.4.1-3,1.31-4.75,3.63-5.33a4.57,4.57,0,0,1,5.57,3,10,10,0,0,1,.43,3.34v27.83c-.24,3.1-1.74,4.84-4.26,4.94s-4.21-1.41-4.69-4.46A9.31,9.31,0,0,1,332.08,217.3Z"/><path class="cls-4" d="M408.64,223.69c-4.26-.1-8.18-.73-11.71-3a9.37,9.37,0,0,1-4.6-6.49,3.66,3.66,0,0,1,2.27-4.36,3.71,3.71,0,0,1,4.75,1.21c.53.73,1,1.5,1.45,2.23a10.25,10.25,0,0,0,12.29,3.34c1.5-.68,2.81-1.65,2.86-3.53a4.14,4.14,0,0,0-2.76-4.12c-2.86-1.3-6-1.79-9-2.76a28.87,28.87,0,0,1-6.88-2.85c-5.71-3.68-6.29-10.6-1.25-15.2a15.16,15.16,0,0,1,8.51-3.58,23.7,23.7,0,0,1,13.89,2.18,8.82,8.82,0,0,1,4.6,4.74c.68,1.79.63,3.63-1.06,4.79a4.24,4.24,0,0,1-5.38-.14,33.76,33.76,0,0,1-2.8-3,8.7,8.7,0,0,0-10.21-1.65c-2.76,1.55-2.81,4.21-.1,5.86,2.23,1.35,4.84,1.74,7.31,2.37a42.39,42.39,0,0,1,8.66,2.9c3.34,1.74,5.81,4.12,5.86,8.18,0,4.45-1.7,8-5.67,10.21C416.19,223.15,412.32,223.49,408.64,223.69Z"/><path class="cls-4" d="M417.69,260c0,6-.34,6.49-5.95,8.61a20.19,20.19,0,0,1-12.54.92c-5.81-1.5-9.39-5.27-10.74-11.17-1.65-7.17.58-14.62,5.81-17.91a17.54,17.54,0,0,1,17-1.26,9.14,9.14,0,0,1,5.08,5.23c.68,1.74.39,3.24-1.4,4.06s-2.95.05-3.82-1.4c-1.65-2.81-3.78-4.7-7.31-4.65-4.45.1-7.45,2.18-8.81,6.44a16.37,16.37,0,0,0-.09,9.53c1.5,5.38,6.14,7.89,11.9,6.59a23.74,23.74,0,0,0,2.52-.78,4.47,4.47,0,0,0,2.61-5.71c-.29-.77-.87-.53-1.4-.58-1.46-.05-2.91.1-4.36-.05s-2.76-.58-2.61-2.47,1.35-2.27,2.85-2.27c2.28,0,4.5,0,6.78,0,3.53.05,4.45,1,4.5,4.45Z"/><path class="cls-4" d="M496.72,240.14a2.51,2.51,0,0,0-2.52-2.42,2.36,2.36,0,0,0-2.56,2.08,16.26,16.26,0,0,0-.29,3.1c-.05,2.18,0,4.4,0,6.87-.92-.73-1.45-1.16-2-1.6a9.2,9.2,0,0,0-14.22,4.31,16.27,16.27,0,0,0,.29,11.81,9,9,0,0,0,10.06,5.61,11.25,11.25,0,0,0,5.71-3.38c.15.53.25.77.29,1,.34,1.55,1.21,2.76,3,2.52s2.37-1.6,2.37-3.34v-25.6A6.31,6.31,0,0,0,496.72,240.14ZM485.2,265.79c-3.24-.19-5.42-3.24-5.37-7.6.05-4.21,2.08-7.16,5-7.4,3.68-.29,6.2,2.71,6.25,7.5C491.15,262.93,488.78,265.93,485.2,265.79Z"/><path class="cls-4" d="M343.64,237.67c-1.79-.09-2.51,1.16-2.71,2.76a20.19,20.19,0,0,0-.14,2.9v6.39c-.92-.72-1.45-1.16-2-1.59a9.18,9.18,0,0,0-14.18,4.35,16.27,16.27,0,0,0,.29,11.81,9,9,0,0,0,10.31,5.52c2.12-.44,3.72-1.65,5.51-3.34.39,2.13,1,3.82,3.15,3.53s2.37-2.18,2.37-4.07V240.82C346.21,239,345.53,237.77,343.64,237.67Zm-3.82,24.68a4.93,4.93,0,0,1-5,3.44,5.12,5.12,0,0,1-4.75-3.44,9,9,0,0,1-.77-3.34,11.47,11.47,0,0,1,1.06-5.37,5,5,0,0,1,9.05-.14A10,10,0,0,1,339.82,262.35Z"/><path class="cls-4" d="M523.77,266.56c-1-2.8-.92-5.71-.92-8.61a31.56,31.56,0,0,0-.14-4.79c-.29-3.34-1.94-5.42-4.89-6.15a18,18,0,0,0-6.2-.58c-3.09.39-6.24,1-8.08,4-.87,1.4-1.45,3,.34,4.26s2.71,0,3.68-1.36a6.49,6.49,0,0,1,7.5-2.37,3.38,3.38,0,0,1,2.23,3.44c.05,1.45-1.36,1.11-2.18,1.31-2.71.67-5.47,1.16-8.18,1.83-3.24.83-5.13,3.1-5.08,6.15s1.93,5.18,5.18,6.1a9.7,9.7,0,0,0,8.22-1.45c1.75-1.12,2.86-1.6,4.07.58a2.24,2.24,0,0,0,3.15.92A2.39,2.39,0,0,0,523.77,266.56Zm-13-.33a3.12,3.12,0,0,1-3.14-2.76,2.72,2.72,0,0,1,2.32-3.15c2.37-.68,4.79-1.21,7.36-1.79C517.63,263.85,515.16,266.66,510.75,266.23Z"/><path class="cls-4" d="M561,266.37c-1-2.76-.87-5.57-.82-8.37,0-.78,0-1.6,0-2.42,0-6.29-1.4-8.18-7.5-9.05-4.3-.58-8.61-.24-11.61,3.58-1.07,1.35-1.79,3.15,0,4.5s2.8,0,3.82-1.4a6.59,6.59,0,0,1,7.55-2.23,3.42,3.42,0,0,1,2.08,3.29c.1,1.45-1.26,1.16-2.08,1.36-2.71.63-5.47,1.16-8.18,1.84-3.29.82-5.18,3.09-5.18,6.09s1.89,5.28,5.08,6.2a10.25,10.25,0,0,0,8.67-1.65c1.54-1,2.42-1.3,3.48.53a2.38,2.38,0,0,0,3.48,1.07A2.45,2.45,0,0,0,561,266.37Zm-13-.14a3.13,3.13,0,0,1-3.15-2.76,2.73,2.73,0,0,1,2.33-3.15c2.37-.68,4.79-1.21,7.35-1.79C554.89,263.85,552.42,266.66,548,266.23Z"/><path class="cls-4" d="M470.49,266.32c-1-2.76-.82-5.56-.87-8.37,0-1.6.09-3.24,0-4.84-.29-3.29-1.79-5.28-4.65-6.05a17.39,17.39,0,0,0-6.68-.63c-3.09.44-6.24,1.07-8,4.16-.78,1.36-1.26,2.91.43,4.07s2.71.05,3.68-1.31a6.49,6.49,0,0,1,7.5-2.42,3.29,3.29,0,0,1,2.23,3.39c.05,1.45-1.36,1.16-2.18,1.36-2.71.62-5.47,1.16-8.18,1.83-3.29.83-5.13,3.15-5.13,6.15s1.89,5.23,5.13,6.15a10.2,10.2,0,0,0,8.67-1.7c1.64-1.11,2.46-1.11,3.48.58a2.42,2.42,0,0,0,3.29,1.12C470.83,269,471,267.73,470.49,266.32Zm-12.87-.05a3.19,3.19,0,0,1-3.25-2.66c-.34-1.89.87-2.85,2.42-3.29,2.37-.72,4.79-1.21,7.21-1.74C464.49,263.71,462.07,266.61,457.62,266.27Z"/><path class="cls-4" d="M598.74,266.52c-1-2.76-.92-5.57-.92-8.38,0-1.69.14-3.43,0-5-.29-3.34-2-5.42-4.94-6.1a17.74,17.74,0,0,0-6-.53c-3.24.39-6.44.92-8.33,4-.87,1.4-1.45,3.05.39,4.26s2.66-.1,3.63-1.41a6.54,6.54,0,0,1,7.5-2.32,3.33,3.33,0,0,1,2.18,3.19c.14,1.7-1.36,1.26-2.23,1.5-2.61.68-5.27,1.16-7.93,1.79-3.34.83-5.23,3-5.28,6s1.84,5.37,5.23,6.29a9.93,9.93,0,0,0,8.47-1.6c1.64-1.07,2.56-1.4,3.68.58a2.3,2.3,0,0,0,3.29,1A2.46,2.46,0,0,0,598.74,266.52Zm-12.93-.29a3.12,3.12,0,0,1-3.19-2.71c-.34-1.89.87-2.86,2.47-3.3,2.37-.62,4.74-1.11,7.16-1.64C592.74,263.76,590.27,266.61,585.81,266.23Z"/><path class="cls-4" d="M642.78,266.47c-1-2.76-.92-5.57-.92-8.38,0-1.69.14-3.38,0-4.93-.29-3.44-2.08-5.52-5.18-6.15a17.7,17.7,0,0,0-5.47-.53c-3.24.34-6.44.82-8.42,3.82-1,1.45-1.65,3.15.29,4.46,1.79,1.21,2.71-.15,3.63-1.46a6.49,6.49,0,0,1,7.5-2.32,3.47,3.47,0,0,1,2.13,3.24c.14,1.7-1.36,1.31-2.23,1.5-2.71.68-5.47,1.16-8.18,1.84a6.12,6.12,0,0,0-5,6c0,3,1.84,5.32,5,6.24a10.26,10.26,0,0,0,8.71-1.6c1.64-1.11,2.56-1.35,3.68.58a2.3,2.3,0,0,0,3.29,1A2.43,2.43,0,0,0,642.78,266.47Zm-12.59-.2c-1.93,0-3.29-.92-3.58-2.85s1.21-2.86,2.86-3.29c2.22-.63,4.5-1.07,6.87-1.55C636.58,263.85,634.5,266.37,630.19,266.27Z"/><path class="cls-4" d="M371.86,262.64c-1-.77-2.08-.38-3,.49a13.16,13.16,0,0,1-3.49,2.56,5.87,5.87,0,0,1-8.37-3.92c-.29-1.26-.19-1.93,1.41-1.88,3.38.09,6.77,0,10.16,0,3.68-.05,4.6-1.12,4.31-4.7-.59-6.63-7.84-10.55-14.81-8.08-5.18,1.84-8,7.26-6.92,13.36s5.13,9.63,12.34,9.63c2.8-.25,6.29-.92,8.47-4.21C372.63,264.82,373.12,263.56,371.86,262.64Zm-14.37-8.85a5.07,5.07,0,0,1,5.71-3,5.31,5.31,0,0,1,4.16,4.45c.14.87,0,1.35-1,1.31-1.5-.05-2.95,0-4.4,0h-2.66C356.57,256.55,356.37,256.26,357.49,253.79Z"/><path class="cls-4" d="M438.6,266.61c-1.75,1.41-3.34,2.81-5.57,3.24-5.23,1.07-9.15-1.54-9.39-6.77-.24-4.5-.09-9-.05-13.55,0-1.7.83-3.05,2.67-3.1a2.77,2.77,0,0,1,2.95,2.86c.14,1.74.09,3.53.09,5.32.05,2.27,0,4.5.1,6.78.15,2.85,1.36,4.25,3.53,4.35a5,5,0,0,0,5.18-3.82,27.57,27.57,0,0,0,.39-6c0-2.28-.05-4.5.05-6.78a2.61,2.61,0,0,1,2.8-2.71,2.55,2.55,0,0,1,2.71,2.76c.05,2.32.05,4.69.05,7v10.64c0,1.7-.58,3.1-2.46,3.2s-2.57-1-2.76-2.71C438.84,267.14,438.69,267,438.6,266.61Z"/><path class="cls-4" d="M572.17,261.24c0,3.68.09,7.4,0,11.08a6.91,6.91,0,0,1-10.65,5.62,2.16,2.16,0,0,1-1.06-2.47,1.91,1.91,0,0,1,2-1.65c4-.29,4-.29,4-4.26V251.22c0-.72,0-1.45.09-2.18a2.65,2.65,0,0,1,2.86-2.66c1.84.05,2.71,1.21,2.76,3,0,4,0,7.94-.05,11.86Z"/><path class="cls-4" d="M528.76,253.88V241.54c0-1.88.38-3.63,2.71-3.82,1.84-.14,2.95,1.26,2.95,3.87.05,8.23,0,16.46,0,24.68,0,1.94-.49,3.58-2.71,3.88-1.79.19-2.9-1.31-3-3.88C528.71,262.11,528.76,258,528.76,253.88Z"/><path class="cls-4" d="M609.77,249.58c3.19-3.44,5.42-4,8.57-2.23,1.21.68,2.17,1.55,1.59,3.1s-1.88,1.74-3.19,1.31c-4.45-1.51-5.9.43-6.53,4.4-.49,3.1-.15,6.24-.25,9.39a10.77,10.77,0,0,1-.29,2.61,2.68,2.68,0,0,1-5.17-.05,4.67,4.67,0,0,1-.29-1.4c0-5.57-.05-11.13,0-16.65a3.94,3.94,0,0,1,1-2.9C606.87,245.46,609,246.48,609.77,249.58Z"/><path class="cls-7" d="M337.16,288.49H640.79a14.38,14.38,0,0,1,4.07.34c2.76.82,4.21,2.61,4.21,5.42a5.2,5.2,0,0,1-4.16,5.46,11.2,11.2,0,0,1-3.34.34H33c-4.74,0-7.3-1.88-7.45-5.42-.14-3.19,1.36-5.22,4.5-5.9a18,18,0,0,1,3.58-.29Q185.54,288.52,337.16,288.49Z"/></g></g></svg>