<?xml version="1.0" encoding="utf-8"?>
<!-- Generator: Adobe Illustrator 25.4.1, SVG Export Plug-In . SVG Version: 6.00 Build 0)  -->
<svg version="1.1" id="Capa_1" xmlns="http://www.w3.org/2000/svg" xmlns:xlink="http://www.w3.org/1999/xlink" x="0px" y="0px"
	 viewBox="0 0 195.9 138.8" style="enable-background:new 0 0 195.9 138.8;" xml:space="preserve">
<style type="text/css">
	.st0{opacity:0.3;}
	.st1{fill:#D1A278;}
	.st2{fill:#B28564;}
	.st3{fill:#9E7455;}
	.st4{fill:#010101;}
	.st5{fill:#010202;}
	.st6{fill:#FFFFFF;}
	.st7{fill:#E30613;}
</style>
<g id="Capa_2_00000140005456134326412260000005752492929719389840_" class="st0">
	<g id="Capa_1-2">
		<g id="_Grupo_">
			<polygon class="st1" points="172.2,23 195.9,61.6 170.9,61.1 134.2,60.5 97.7,0 			"/>
			<polygon class="st2" points="170.9,61.1 170.9,108.6 97.6,138.8 97.7,0 134.2,60.5 			"/>
			<polygon class="st3" points="97.7,0 97.6,138.8 23.5,108.5 23.3,61.1 63.6,60.2 			"/>
			<polygon class="st1" points="97.7,0 63.6,60.2 23.3,61.1 0,61.6 22,23.4 			"/>
		</g>
		<path class="st4" d="M188.2,63.3c-1-2.5-2.4-4.8-4.8-6.4c0.4-0.1,0.7-0.2,0.9-0.3c1.5-0.5,2.8-1.3,3.4-2.8
			c1.3-3.3-0.8-6.6-4.3-6.9c-2.8-0.3-5.6-0.1-8.5-0.1c-0.2,0-0.5,0-0.7,0.1c-0.7,0.1-1.2,0.7-1.3,1.4c-0.1,0.4-0.1,0.7-0.1,1.1v13.9
			c0,0.3,0,0.7,0.1,1c0.1,1,1,1.7,1.9,1.6c0.1,0,0.3-0.1,0.4-0.1c0.9-0.3,1.3-0.9,1.3-2.1c0-1.9,0-3.8,0-5.7c0-0.4,0.1-0.6,0.5-0.5
			c0.2,0,0.4,0,0.6,0c1.6-0.1,2.8,0.6,3.7,1.9c1,1.7,2,3.3,3.1,5c0.2,0.4,0.6,0.8,1,1.1c0.7,0.5,1.6,0.5,2.3,0
			C188.4,64.7,188.6,64.2,188.2,63.3z M178.3,54.6c-0.5,0-1.3,0.2-1.6-0.1c-0.3-0.3-0.1-1.1-0.1-1.6c0-0.9,0-1.9,0-2.8
			c0-0.5,0.1-0.5,0.6-0.5c0.7,0,1.4,0,2.3,0c0.8,0,1.8-0.1,2.8,0.1c1.1,0.2,1.9,1.1,2,2.2c0.1,1.3-0.5,2.1-1.8,2.5
			C181.1,54.7,179.7,54.6,178.3,54.6L178.3,54.6z"/>
		<path class="st4" d="M146.2,65.6c-1.6-0.1-3.1-0.2-4.5-1c-1.5-0.8-2.5-2.2-2.9-3.8c-0.1-0.4-0.1-0.8,0-1.2
			c0.2-0.6,0.7-1.1,1.3-1.2c0.6-0.1,1.2,0.1,1.5,0.6c0.4,0.6,0.6,1.2,0.9,1.8c1.2,2.6,5.4,2.2,6.7,0.7c0.8-0.9,0.7-2.4-0.2-3.2
			c-0.1-0.1-0.2-0.2-0.4-0.3c-0.8-0.5-1.8-0.7-2.7-0.9c-1.6-0.4-3.2-0.7-4.6-1.6c-2.3-1.3-3.1-4.2-1.7-6.5c0.2-0.4,0.5-0.7,0.8-1
			c2.6-2.5,8.6-2.4,11.1,0.1c0.7,0.7,1.1,1.6,1.1,2.6c0,0.8-0.5,1.4-1.2,1.7c-0.8,0.2-1.4,0-1.9-0.7c-0.3-0.4-0.5-0.9-0.8-1.3
			c-1.1-1.8-4.3-2.1-5.8-0.6c-0.9,0.9-0.8,2,0.2,2.8c0.8,0.6,1.7,0.8,2.5,1c1.4,0.3,2.7,0.7,4,1.2c2.1,0.8,3.5,2.1,3.6,4.5
			c0.1,2.5-1,4.4-3.3,5.5C148.9,65.4,147.5,65.6,146.2,65.6z"/>
		<path class="st4" d="M169.7,63.3c-0.4-0.4-0.8-0.7-1.3-1.1c-0.5-0.3-0.6-0.6-0.3-1.2c0.4-0.6,0.7-1.3,0.8-2
			c0.2-0.8-0.1-1.3-0.7-1.6c-0.6-0.2-1.1,0-1.5,0.7c-0.3,0.6-0.5,1.1-0.8,1.8c-1-1-1.8-2-2.6-3c0.7-0.4,1.4-0.9,2-1.5
			c1.6-1.6,1.3-4-0.7-5.1c-1.6-0.9-3.5-0.8-5.1,0.1c-1.5,0.8-2,2.6-1.3,4.2c0.2,0.5,0.6,1,0.9,1.5c0.3,0.4,0.2,0.5-0.2,0.7
			c-0.5,0.3-1.1,0.6-1.5,1c-2.5,2.1-2,5.8,1.1,7.1c2.5,1,4.9,0.8,7.1-1c0.3-0.3,0.5-0.3,0.8,0c0.5,0.5,1.1,0.9,1.8,1.3
			c0.6,0.4,1.4,0.2,1.8-0.4C170.4,64.5,170.3,63.9,169.7,63.3z M160.8,52.6c0.3-0.5,0.7-0.8,1.3-0.8c0.9,0,1.5,0.3,1.8,0.9
			c0.3,0.7,0.1,1.3-0.5,1.8c-1.3,1.2-1.6,1.1-2.5-0.4C160.6,53.6,160.5,53.1,160.8,52.6z M164,62.4c-0.8,0.6-1.6,1.1-2.6,1.1
			c-1.1,0-2.1-0.7-2.5-1.7c-0.4-1-0.1-2,0.9-2.7c0,0,0,0,0.1,0c0.9-0.7,0.9-0.7,1.7,0.2c0.7,0.9,1.5,1.8,2.4,2.6
			C164.3,62,164.3,62.2,164,62.4L164,62.4z"/>
		<path class="st4" d="M34.4,55.4c2.9-2.1,4.8-2.1,6.5,0.1c0.8-0.7,1.6-1.4,2.7-1.6c0.8-0.1,1.6,0,2.4,0.3c1.2,0.5,1.8,1.4,1.9,2.7
			c0.1,2.3,0.1,4.5,0,6.8c0,1.1-0.6,1.7-1.5,1.7c-0.9,0-1.4-0.7-1.4-1.8c0-1.5,0-2.9,0-4.4c0-0.5,0-0.9,0-1.3
			c-0.1-1.1-0.5-1.8-1.3-1.8c-1-0.1-2,0.6-2.2,1.6c-0.1,0.7-0.2,1.4-0.2,2.2c0,1.3,0,2.5,0,3.8c0,0.7-0.2,1.4-0.9,1.7
			c-0.7,0.3-1.5,0-1.8-0.7c0-0.1-0.1-0.2-0.1-0.3c-0.1-0.4-0.1-0.7-0.1-1.1c0-1.8,0-3.6,0-5.4c0-1.1-0.4-1.7-1.2-1.8
			c-1.1-0.1-1.9,0.3-2.2,1.3c-0.2,0.8-0.3,1.7-0.3,2.5c0,1.2,0,2.4,0,3.7c0,1-0.3,1.5-1,1.7c-0.7,0.2-1.4-0.1-1.7-0.8
			c-0.1-0.1-0.1-0.3-0.1-0.4c-0.1-3-0.1-6,0-9c0-0.8,0.6-1.2,1.3-1.2c0.7,0,1.3,0.5,1.3,1.2C34.4,55.2,34.4,55.3,34.4,55.4z"/>
		<path class="st4" d="M18,57.4v-5.7c0-1.3,0.5-1.9,1.8-1.9c2.7,0,5.4,0,8.1,0c0.5,0,1,0.1,1.3,0.6c0.3,0.5,0.2,1.2-0.4,1.6
			c-0.1,0.1-0.2,0.1-0.3,0.1c-0.3,0.1-0.6,0.1-0.8,0.1c-2,0-4,0-6,0c-0.6,0-0.7,0.2-0.7,0.7c0,0.8,0,1.6,0,2.4
			c0,0.5,0.1,0.6,0.6,0.6c1.9,0,3.9,0,5.8,0c0.9,0,1.4,0.4,1.4,1.1c0,0.7-0.5,1.1-1.4,1.1c-1.9,0-3.7,0-5.6,0
			c-0.6,0-0.8,0.2-0.8,0.8c0.1,1,0,2,0,3c0,0.5,0.1,0.6,0.6,0.6c2.2,0,4.3,0,6.5,0c1,0,1.5,0.4,1.5,1.1c0.1,0.6-0.3,1.1-0.9,1.2
			c-0.3,0.1-0.6,0.1-0.9,0.1H20c-1.6,0-2-0.5-2-2C18,61.2,18,59.3,18,57.4z"/>
		<path class="st4" d="M86.7,54.8c-0.1-0.6-0.7-1-1.3-0.9c-0.6,0-1.1,0.4-1.2,0.9c-0.1,0.3-0.1,0.6-0.2,0.9
			c-1.2-1.6-2.7-2.1-4.6-1.7c-1.8,0.4-2.8,1.5-3.4,3.2c-0.5,1.6-0.5,3.4,0.1,5.1c0.9,2.3,3,3.5,5.4,3c0.9-0.2,1.7-0.8,2.5-1.5v2.9
			c0,0.6,0,1.3,0.1,1.9c0.1,0.6,0.6,1,1.2,1c0.6,0.1,1.1-0.3,1.3-0.9c0.1-0.4,0.1-0.7,0.1-1.1V55.7C86.8,55.4,86.8,55,86.7,54.8z
			 M83.4,62.1c-1.1,1.6-3.3,1.6-4.2-0.1c-0.8-1.4-0.8-3.1-0.1-4.6c0.9-1.8,3.3-1.9,4.4-0.1c0.4,0.8,0.6,1.6,0.6,2.5
			C84.1,60.6,83.8,61.4,83.4,62.1L83.4,62.1z"/>
		<path class="st4" d="M61.3,57.8c-0.6-2.8-2.9-4.3-5.5-3.8c-1.1,0.2-1.9,0.9-2.6,1.8c-0.1-0.3-0.1-0.6-0.1-0.9
			c-0.1-0.6-0.7-1.1-1.3-1c-0.8,0-1.2,0.5-1.2,1.5c0,4.2,0,8.3,0,12.5c0,0.2,0.1,0.5,0.1,0.7c0.1,0.7,0.5,1,1.2,1
			c0.6,0.1,1.1-0.4,1.2-0.9c0.1-0.5,0.1-0.9,0.1-1.4c0-1.2,0-2.4,0-3.7c0.2,0.2,0.3,0.3,0.4,0.4c2.1,2.5,6.3,1.8,7.5-1.6
			C61.6,60.8,61.7,59.3,61.3,57.8z M58.3,61.7c-0.4,0.9-1.1,1.5-2.1,1.5c-1.1,0.1-1.9-0.5-2.4-1.4c-0.4-0.7-0.5-1.5-0.5-2.2
			c0-0.7,0.1-1.5,0.5-2.1c0.5-0.9,1.3-1.5,2.4-1.4c0.9,0,1.8,0.6,2.1,1.5C58.9,58.8,58.9,60.3,58.3,61.7z"/>
		<path class="st4" d="M74,63.8c-0.5-1.3-0.5-2.7-0.4-4.1c0-0.7,0-1.5,0-2.2c-0.1-2.1-0.9-3.1-2.8-3.5c-1.4-0.3-2.9-0.3-4.3,0.1
			c-1.2,0.3-2.2,0.9-2.6,2.2c-0.3,0.8-0.1,1.4,0.5,1.6c0.7,0.3,1.1,0.2,1.6-0.6c0.7-1.2,1.6-1.6,2.9-1.6c1.2,0.1,1.7,0.5,1.9,1.7
			c0.1,0.4,0,0.6-0.5,0.7c-1.6,0.3-3.2,0.7-4.8,1.1c-1.4,0.3-2.3,1.6-2.2,3.1c0.1,1.4,1.2,2.6,2.6,2.9c1.5,0.3,3,0,4.3-0.8
			c0.8-0.5,0.8-0.5,1.5,0.3c0.1,0.1,0.2,0.2,0.3,0.4c0.4,0.4,1,0.5,1.5,0.2C73.9,64.8,74.2,64.4,74,63.8z M68.6,63.4
			c-0.5,0.1-1,0.1-1.5,0c-0.6-0.2-1-0.7-1-1.4c-0.1-0.6,0.3-1.2,0.9-1.4c0.4-0.2,0.8-0.3,1.3-0.4c0.8-0.2,1.6-0.4,2.5-0.6
			C71,61.8,70.3,63,68.6,63.4L68.6,63.4z"/>
		<path class="st4" d="M112.2,61.6c-0.5-0.4-1-0.3-1.5,0.2c-0.4,0.5-0.9,0.8-1.5,1.2c-1.9,1-4,0-4.3-2.1c-0.1-0.5,0.1-0.7,0.6-0.6
			c0.8,0,1.7,0,2.7,0c0.9-0.1,2,0.1,3.1-0.1c1.2-0.2,1.5-0.6,1.5-1.8c-0.1-2.4-1.8-4.1-4.3-4.5c-2.9-0.5-5.4,1.1-6.1,3.8
			c-0.2,0.9-0.3,1.9-0.2,2.9c0.2,2.3,1.7,4.1,3.9,4.6c1.1,0.3,2.2,0.3,3.4,0c1.3-0.3,2.4-0.9,3-2.1C112.5,62.6,112.7,62,112.2,61.6z
			 M104.8,58.2c0.1-1.5,1.3-2.6,2.7-2.5c0.3,0,0.6,0.1,0.8,0.2c0.9,0.4,1.5,1.3,1.5,2.3c0,0.4-0.2,0.3-0.4,0.3c-0.7,0-1.4,0-2.1,0
			h-2.2C105,58.5,104.8,58.6,104.8,58.2L104.8,58.2z"/>
		<path class="st4" d="M97,63.5c-1,1.2-2.2,1.8-3.6,1.9c-2.2,0-3.6-1.2-3.7-3.4c-0.1-2.2,0-4.4,0-6.6c0-0.9,0.5-1.4,1.3-1.4
			c0.7-0.1,1.4,0.4,1.5,1.1c0,0.1,0,0.1,0,0.2c0.1,1.2,0,2.4,0.1,3.7c0,0.7,0,1.5,0.1,2.2c0.1,1.4,0.7,2.1,1.7,2.2
			c1.2,0.1,2.4-0.8,2.6-2c0.2-0.9,0.1-1.8,0.1-2.7c0-1,0-2,0-3c0-0.9,0.4-1.4,1.1-1.6c0.7-0.2,1.4,0.2,1.6,0.9
			c0.1,0.3,0.1,0.6,0.1,1v8.1c-0.1,0.9-0.5,1.4-1.2,1.4s-1.2-0.4-1.4-1.3C97,63.9,97,63.7,97,63.5z"/>
		<path class="st4" d="M119.4,65.3c-1.2,0-2.4-0.2-3.4-0.9c-0.7-0.4-1.2-1.1-1.3-1.9c-0.1-0.5,0.1-1.1,0.7-1.3
			c0.5-0.2,1.1-0.1,1.4,0.4c0.2,0.2,0.3,0.4,0.4,0.7c0.8,1.1,2.3,1.5,3.6,1c0.4-0.2,0.8-0.5,0.8-1c0-0.5-0.3-1-0.8-1.2
			c-0.8-0.4-1.8-0.5-2.6-0.8c-0.7-0.2-1.4-0.5-2-0.8c-1.7-1.1-1.8-3.1-0.4-4.4c0.7-0.6,1.6-1,2.5-1c1.4-0.2,2.8,0,4.1,0.6
			c0.6,0.3,1.1,0.8,1.3,1.4c0.2,0.5,0.2,1.1-0.3,1.4c-0.5,0.4-1.1,0.3-1.6,0c-0.3-0.3-0.6-0.6-0.8-0.9c-0.8-0.8-2-1-3-0.5
			c-0.8,0.5-0.8,1.2,0,1.7c0.7,0.4,1.4,0.5,2.1,0.7c0.9,0.2,1.7,0.5,2.5,0.8c1,0.5,1.7,1.2,1.7,2.4c0,1.3-0.5,2.3-1.7,3
			C121.6,65.2,120.4,65.3,119.4,65.3z"/>
		<path class="st4" d="M122,75.9c0,1.8-0.1,1.9-1.7,2.5c-1.2,0.5-2.4,0.6-3.7,0.3c-1.7-0.4-2.7-1.5-3.1-3.3
			c-0.5-2.1,0.2-4.3,1.7-5.2c1.5-1,3.4-1.1,5-0.4c0.7,0.3,1.2,0.8,1.5,1.5c0.2,0.5,0.1,0.9-0.4,1.2c-0.5,0.2-0.9,0-1.1-0.4
			c-0.5-0.8-1.1-1.4-2.1-1.4c-1.3,0-2.2,0.6-2.6,1.9c-0.3,0.9-0.3,1.9,0,2.8c0.4,1.6,1.8,2.3,3.5,1.9c0.2-0.1,0.5-0.1,0.7-0.2
			c0.7-0.3,1-1,0.8-1.7c-0.1-0.2-0.3-0.2-0.4-0.2c-0.4,0-0.9,0-1.3,0c-0.4,0-0.8-0.2-0.8-0.7s0.4-0.7,0.8-0.7c0.7,0,1.3,0,2,0
			c1,0,1.3,0.3,1.3,1.3L122,75.9z"/>
		<path class="st4" d="M145.1,70.1c0-0.4-0.3-0.7-0.7-0.7c-0.4,0-0.7,0.2-0.7,0.6c-0.1,0.3-0.1,0.6-0.1,0.9c0,0.6,0,1.3,0,2
			c-0.3-0.2-0.4-0.3-0.6-0.5c-1.2-0.9-2.9-0.7-3.8,0.5c-0.2,0.2-0.3,0.5-0.4,0.7c-0.4,1.1-0.4,2.4,0.1,3.4c0.5,1.2,1.7,1.9,2.9,1.6
			c0.6-0.2,1.2-0.5,1.7-1c0,0.2,0.1,0.2,0.1,0.3c0.1,0.5,0.4,0.8,0.9,0.7s0.7-0.5,0.7-1v-7.5C145.1,70.3,145.1,70.2,145.1,70.1z
			 M141.7,77.6c-0.9-0.1-1.6-0.9-1.6-2.2c0-1.2,0.6-2.1,1.5-2.2c1.1-0.1,1.8,0.8,1.8,2.2C143.5,76.8,142.8,77.7,141.7,77.6z"/>
		<path class="st4" d="M100.4,69.4c-0.5,0-0.7,0.3-0.8,0.8c0,0.3,0,0.6,0,0.8v1.9c-0.3-0.2-0.4-0.3-0.6-0.5
			c-1.2-0.9-2.9-0.6-3.8,0.5c-0.2,0.2-0.3,0.5-0.4,0.7c-0.4,1.1-0.4,2.4,0.1,3.4c0.5,1.2,1.7,1.9,3,1.6c0.6-0.1,1.1-0.5,1.6-1
			c0.1,0.6,0.3,1.1,0.9,1c0.6-0.1,0.7-0.6,0.7-1.2v-7.3C101.1,69.8,100.9,69.5,100.4,69.4z M99.3,76.6c-0.2,0.6-0.8,1-1.5,1
			c-0.6,0-1.2-0.4-1.4-1c-0.1-0.3-0.2-0.6-0.2-1c0-0.5,0.1-1.1,0.3-1.6c0.3-0.7,1.2-1.1,1.9-0.7c0.3,0.1,0.6,0.4,0.7,0.7
			C99.6,74.8,99.6,75.8,99.3,76.6z"/>
		<path class="st4" d="M153,77.9c-0.3-0.8-0.3-1.7-0.3-2.5c0-0.5,0-0.9,0-1.4c-0.1-1-0.6-1.6-1.4-1.8c-0.6-0.2-1.2-0.2-1.8-0.2
			c-0.9,0.1-1.8,0.3-2.4,1.2c-0.3,0.4-0.4,0.9,0.1,1.2c0.5,0.4,0.8,0,1.1-0.4c0.5-0.7,1.4-1,2.2-0.7c0.4,0.2,0.7,0.6,0.7,1
			c0,0.4-0.4,0.3-0.6,0.4c-0.8,0.2-1.6,0.3-2.4,0.5c-0.9,0.2-1.5,0.9-1.5,1.8c0,0.9,0.6,1.5,1.5,1.8c0.8,0.2,1.7,0.1,2.4-0.4
			c0.5-0.3,0.8-0.5,1.2,0.2c0.2,0.3,0.6,0.5,0.9,0.3c0,0,0,0,0,0C153,78.7,153.2,78.3,153,77.9C153,77.9,153,77.9,153,77.9z
			 M149.2,77.8c-0.5,0-0.9-0.3-0.9-0.8c-0.1-0.4,0.2-0.8,0.7-0.9c0,0,0,0,0,0c0.7-0.2,1.4-0.4,2.1-0.5
			C151.2,77.1,150.5,77.9,149.2,77.8L149.2,77.8z"/>
		<path class="st4" d="M163.9,77.8c-0.3-0.8-0.3-1.6-0.2-2.4c0-0.2,0-0.5,0-0.7c0-1.8-0.4-2.4-2.2-2.6c-1.3-0.2-2.5-0.1-3.4,1
			c-0.3,0.4-0.5,0.9,0,1.3c0.5,0.4,0.8,0,1.1-0.4c0.5-0.7,1.4-0.9,2.2-0.7c0.4,0.2,0.6,0.5,0.6,1c0,0.4-0.4,0.3-0.6,0.4
			c-0.8,0.2-1.6,0.3-2.4,0.5c-1,0.2-1.5,0.9-1.5,1.8s0.6,1.5,1.5,1.8c0.9,0.2,1.8,0.1,2.5-0.5c0.4-0.3,0.7-0.4,1,0.2
			c0.2,0.4,0.6,0.5,0.9,0.4c0,0,0.1,0,0.1-0.1C163.9,78.6,164,78.2,163.9,77.8C163.9,77.8,163.9,77.8,163.9,77.8z M160.1,77.8
			c-0.5,0-0.9-0.3-0.9-0.8c-0.1-0.4,0.2-0.8,0.7-0.9c0,0,0,0,0,0c0.7-0.2,1.4-0.4,2.1-0.5C162.1,77.1,161.4,77.9,160.1,77.8
			L160.1,77.8z"/>
		<path class="st4" d="M137.4,77.8c-0.3-0.8-0.2-1.6-0.3-2.4c0-0.5,0-0.9,0-1.4c-0.1-1-0.5-1.5-1.4-1.8c-0.6-0.2-1.3-0.2-2-0.2
			c-0.9,0.1-1.8,0.3-2.3,1.2c-0.2,0.4-0.4,0.9,0.1,1.2s0.8,0,1.1-0.4c0.5-0.7,1.4-1,2.2-0.7c0.4,0.1,0.7,0.5,0.7,1
			c0,0.4-0.4,0.3-0.6,0.4c-0.8,0.2-1.6,0.3-2.4,0.5c-1,0.2-1.5,0.9-1.5,1.8c0,0.9,0.6,1.5,1.5,1.8c0.9,0.2,1.8,0,2.5-0.5
			c0.5-0.3,0.7-0.3,1,0.2c0.2,0.4,0.6,0.5,0.9,0.3c0,0,0,0,0,0C137.5,78.6,137.6,78.2,137.4,77.8z M133.7,77.8
			c-0.5,0-0.9-0.3-0.9-0.8c-0.1-0.6,0.3-0.8,0.7-1c0.7-0.2,1.4-0.4,2.1-0.5C135.7,77,135,77.9,133.7,77.8L133.7,77.8z"/>
		<path class="st4" d="M174.9,77.9c-0.3-0.8-0.3-1.6-0.3-2.4c0-0.5,0-1,0-1.5c-0.1-1-0.6-1.6-1.4-1.8c-0.6-0.2-1.2-0.2-1.8-0.2
			c-0.9,0.1-1.9,0.3-2.4,1.2c-0.3,0.4-0.4,0.9,0.1,1.2c0.5,0.4,0.8,0,1.1-0.4c0.5-0.7,1.4-1,2.2-0.7c0.4,0.1,0.6,0.5,0.6,0.9
			c0,0.5-0.4,0.4-0.7,0.4c-0.8,0.2-1.5,0.3-2.3,0.5c-1,0.2-1.5,0.9-1.5,1.8s0.5,1.6,1.5,1.8c0.9,0.2,1.8,0.1,2.5-0.5
			c0.5-0.3,0.7-0.4,1.1,0.2c0.2,0.3,0.6,0.5,0.9,0.3c0,0,0,0,0.1,0C174.9,78.6,175.1,78.2,174.9,77.9
			C174.9,77.9,174.9,77.9,174.9,77.9z M171.1,77.8c-0.5,0-0.9-0.3-0.9-0.8c-0.1-0.6,0.3-0.8,0.7-1c0.7-0.2,1.4-0.3,2.1-0.5
			C173.1,77,172.4,77.9,171.1,77.8L171.1,77.8z"/>
		<path class="st4" d="M187.8,77.8c-0.3-0.8-0.3-1.6-0.3-2.4c0-0.5,0-1,0-1.4c-0.1-1-0.6-1.6-1.5-1.8c-0.5-0.1-1.1-0.2-1.6-0.2
			c-0.9,0.1-1.9,0.2-2.5,1.1c-0.3,0.4-0.5,0.9,0.1,1.3c0.5,0.4,0.8,0,1.1-0.4c0.5-0.7,1.4-1,2.2-0.7c0.4,0.2,0.6,0.5,0.6,0.9
			c0,0.5-0.4,0.4-0.7,0.4c-0.8,0.2-1.6,0.3-2.4,0.5c-0.8,0.2-1.5,0.9-1.5,1.8c0,0.9,0.5,1.6,1.5,1.8c0.9,0.2,1.8,0.1,2.5-0.5
			c0.5-0.3,0.7-0.4,1.1,0.2c0.2,0.3,0.6,0.5,0.9,0.3c0,0,0,0,0.1,0C187.8,78.6,187.9,78.2,187.8,77.8
			C187.8,77.9,187.8,77.8,187.8,77.8z M184.1,77.8c-0.6,0-1-0.3-1-0.8c-0.1-0.6,0.4-0.8,0.8-1c0.6-0.2,1.3-0.3,2-0.5
			C185.9,77.1,185.3,77.8,184.1,77.8z"/>
		<path class="st4" d="M108.6,76.7c-0.3-0.2-0.6-0.1-0.9,0.1c-0.3,0.3-0.6,0.6-1,0.7c-0.8,0.4-1.9,0.1-2.3-0.8
			c-0.1-0.1-0.1-0.3-0.1-0.4c-0.1-0.4-0.1-0.6,0.4-0.5c1,0,2,0,3,0c1.1,0,1.3-0.3,1.3-1.4c-0.2-1.9-2.3-3.1-4.3-2.4
			c-1.5,0.5-2.3,2.1-2,3.9c0.3,1.8,1.5,2.8,3.6,2.8c0.8-0.1,1.8-0.3,2.5-1.2C108.8,77.4,109,77,108.6,76.7z M104.4,74.1
			c0.3-0.7,1-1,1.7-0.9c0.6,0.1,1.1,0.7,1.2,1.3c0,0.3,0,0.4-0.3,0.4c-0.4,0-0.9,0-1.3,0H105C104.2,74.9,104.1,74.9,104.4,74.1
			L104.4,74.1z"/>
		<path class="st4" d="M128.1,77.9c-0.5,0.4-1,0.8-1.6,0.9c-1.5,0.3-2.7-0.4-2.7-2c-0.1-1.3,0-2.6,0-4c0-0.5,0.2-0.9,0.8-0.9
			c0.4,0,0.8,0.3,0.9,0.8c0,0,0,0.1,0,0.1c0,0.5,0,1,0,1.6c0,0.7,0,1.3,0,2c0,0.8,0.4,1.2,1,1.3c0.7,0,1.3-0.4,1.5-1.1
			c0.1-0.6,0.1-1.2,0.1-1.8c0-0.7,0-1.3,0-2c0-0.4,0.3-0.8,0.7-0.8c0,0,0.1,0,0.1,0c0.4,0,0.8,0.3,0.8,0.7c0,0,0,0.1,0,0.1
			c0,0.7,0,1.4,0,2v3.1c0,0.5-0.2,0.9-0.7,0.9c-0.5,0-0.8-0.3-0.8-0.8C128.2,78,128.1,78,128.1,77.9z"/>
		<path class="st5" d="M167.1,76.3c0,1.1,0,2.2,0,3.2c0,1.1-1,2-2.1,2c-0.4,0-0.7-0.1-1-0.3c-0.3-0.1-0.4-0.4-0.3-0.7
			c0-0.3,0.3-0.5,0.6-0.5c1.2-0.1,1.2-0.1,1.2-1.2v-5.4c0-0.2,0-0.4,0-0.6c0-0.4,0.3-0.8,0.8-0.8c0,0,0,0,0.1,0
			c0.5,0,0.8,0.4,0.8,0.9C167.1,74,167.1,75.2,167.1,76.3L167.1,76.3z"/>
		<path class="st5" d="M154.5,74.2v-3.6c0-0.5,0.1-1.1,0.8-1.1c0.5,0,0.9,0.4,0.9,1.1c0,2.4,0,4.8,0,7.2c0,0.6-0.1,1-0.8,1.1
			c-0.5,0.1-0.8-0.4-0.9-1.1C154.4,76.6,154.5,75.4,154.5,74.2z"/>
		<path class="st4" d="M178.1,72.9c0.9-1,1.6-1.2,2.5-0.7c0.4,0.2,0.6,0.5,0.5,0.9c-0.2,0.5-0.5,0.5-0.9,0.4
			c-1.3-0.4-1.7,0.1-1.9,1.3c-0.1,0.9,0,1.8-0.1,2.7c0,0.3,0,0.5-0.1,0.8c-0.1,0.4-0.6,0.7-1,0.5c-0.3-0.1-0.5-0.3-0.5-0.6
			c0-0.1-0.1-0.3-0.1-0.4c0-1.6,0-3.3,0-4.9c0-0.3,0.1-0.6,0.3-0.8C177.3,71.7,177.9,72,178.1,72.9z"/>
		<path class="st4" d="M98.5,84.3h88.7c0.4,0,0.8,0,1.2,0.1c0.8,0.2,1.2,0.8,1.2,1.6c0.1,0.8-0.5,1.4-1.2,1.6
			c-0.3,0.1-0.6,0.1-1,0.1H9.6c-1.4,0-2.1-0.5-2.2-1.6c0-0.9,0.4-1.5,1.3-1.7c0.3-0.1,0.7-0.1,1-0.1C39.4,84.3,69,84.3,98.5,84.3z"
			/>
		<path class="st6" d="M174.6,67.7c-0.7,0-1.4-0.2-2-0.6c-0.9-0.6-1.6-1.6-1.8-2.7c-0.1-0.4-0.1-0.9-0.1-1.3V49.2
			c0-0.5,0-0.9,0.1-1.4v0c0.2-1.5,1.4-2.7,2.9-3c0.4-0.1,0.8-0.2,1.2-0.2c0.9,0,1.9,0,2.8,0c1.9-0.1,3.9,0,5.8,0.1
			c3.9,0.3,6.8,3.6,6.6,7.5c-0.1,0.7-0.2,1.5-0.5,2.2c-0.5,1.3-1.3,2.3-2.5,3c1.2,1.5,2.2,3.2,2.9,5c0.7,1.7,0.3,3.3-1,4.4l0,0
			c-1.4,1-3.3,1.1-4.7,0.1l0,0c-0.6-0.5-1.1-1-1.5-1.7c-0.4-0.7-0.9-1.4-1.3-2.1c-0.6-0.9-1.2-1.9-1.8-2.9c-0.2-0.4-0.6-0.7-1-0.9
			c0,1.4,0,2.7,0,4.1c0,2.9-2,3.8-2.8,4h0C175.5,67.6,175,67.7,174.6,67.7z M176.8,59.3L176.8,59.3z M174.9,55.4v1
			c0.1-0.2,0.2-0.4,0.4-0.5C175.1,55.8,175,55.6,174.9,55.4L174.9,55.4z M178.7,52.5c0.2,0,0.5,0,0.7,0c1,0,1.8,0,2.6-0.2
			c0.1,0,0.2-0.1,0.3-0.1c0-0.1,0-0.2,0-0.3c0-0.1,0-0.2-0.4-0.3c-0.5-0.1-1-0.1-1.5-0.1c-0.3,0-0.6,0-0.9,0h-0.7c0,0.1,0,0.1,0,0.2
			C178.7,52,178.7,52.3,178.7,52.5L178.7,52.5z"/>
		<path class="st6" d="M146.2,67.7L146.2,67.7c-1.9-0.1-3.7-0.3-5.5-1.3c-2-1.1-3.4-2.9-3.9-5.1c-0.2-0.7-0.2-1.5,0-2.3
			c0.3-1.2,1.3-2.1,2.5-2.5c-1.2-1.1-2-2.6-2.2-4.3c-0.3-2.1,0.5-4.2,2-5.7c1.6-1.6,4.2-2.5,7.1-2.4s5.4,1,7,2.6
			c1.1,1.2,1.7,2.5,1.7,4c0,1.3-0.7,2.6-1.8,3.3c1.6,1.2,2.6,3.1,2.6,5.1c0.1,3.4-1.4,5.9-4.4,7.4C149.5,67.4,147.7,67.6,146.2,67.7
			L146.2,67.7z M143.8,58.7c0.2,0.3,0.3,0.6,0.4,0.9c0.1,0.2,0.1,0.3,0.2,0.4c0.2,0.5,0.8,0.6,1.2,0.7c1,0.1,1.9-0.2,2.1-0.5
			c0.1-0.1,0.1-0.1,0.1-0.2c0-0.1-0.1-0.2-0.2-0.2c-0.5-0.3-1.1-0.5-1.8-0.6l-0.3-0.1h0L145,59C144.6,58.9,144.2,58.8,143.8,58.7z
			 M144.9,51.1c0.4,0.2,0.9,0.3,1.3,0.4l0.2,0.1l0.5,0.1l0.4,0.1c0-0.1-0.1-0.2-0.1-0.2c-0.3-0.4-0.8-0.6-1.3-0.6
			C145.6,50.9,145.3,51,144.9,51.1L144.9,51.1z"/>
		<path class="st6" d="M161.5,67.7c-1.3,0-2.5-0.3-3.7-0.8c-2-0.8-3.5-2.6-3.9-4.7c-0.3-2.2,0.5-4.4,2.2-5.8
			c0.1-0.1,0.3-0.2,0.4-0.3c-0.1-0.1-0.1-0.3-0.2-0.4l0,0c-1.2-2.6-0.3-5.4,2.1-6.8c2.2-1.3,4.8-1.3,7-0.1c1.5,0.7,2.5,2.2,2.8,3.8
			c0.1,1,0,2-0.4,2.9c0.4,0,0.7,0.1,1,0.2c1.6,0.6,2.4,2.1,2,3.9c-0.1,0.6-0.3,1.2-0.6,1.8c0.2,0.2,0.4,0.4,0.6,0.6l0,0l0,0
			c1.3,1.2,1.6,3,0.6,4.4c-1,1.5-3,1.9-4.5,1c-0.4-0.2-0.8-0.5-1.1-0.8C164.7,67.2,163.1,67.7,161.5,67.7z M164,62.4L164,62.4z
			 M157.7,57.6L157.7,57.6z M162.2,53.4l-0.2,0.1c0.1,0.1,0.2,0.2,0.3,0.3c0.1,0,0.2-0.1,0.3-0.1L162.2,53.4z M162.2,53.4l0.4,0.2
			c0-0.1,0.1-0.2,0.1-0.3c-0.1,0-0.1-0.1-0.2-0.1L162.2,53.4z M161.9,53.3c0,0.1,0,0.1,0,0.2l0.2-0.1L161.9,53.3z M161.9,53.3
			l0.2,0.1l0.3-0.1C162.2,53.2,162.1,53.2,161.9,53.3L161.9,53.3z"/>
		<path class="st6" d="M33.2,67.4c-1.4,0-2.6-0.8-3.1-2.1c-0.2-0.4-0.3-0.8-0.3-1.2c-0.1-3.3-0.1-6.3,0-9.2c0-1.8,1.5-3.2,3.3-3.1
			c0,0,0,0,0,0c0.8,0,1.5,0.2,2.1,0.7c1.6-0.8,3.7-1.3,5.9,0.2c0.7-0.4,1.5-0.7,2.3-0.9c1.2-0.2,2.4,0,3.4,0.4
			c1.9,0.7,3,2.4,3.1,4.5c0.1,2,0.1,4.1,0.1,6c0,0.3,0,0.6,0,0.9c0,1.5-0.6,2.3-1.1,2.8c-1.4,1.3-3.6,1.2-4.9-0.2
			c-0.3-0.4-0.6-0.8-0.7-1.3c-0.3,1-1.1,1.9-2.1,2.2c-0.9,0.4-2,0.3-2.9-0.2c-0.8-0.5-1.4-1.2-1.6-2.2c-0.3,1.2-1.2,2.1-2.4,2.4
			C33.9,67.3,33.5,67.4,33.2,67.4z M33.9,64.1L33.9,64.1z M33.9,55.1L33.9,55.1z"/>
		<path class="st6" d="M27.9,67.1H20c-2.7,0-4.1-1.4-4.1-4.1c0-1.9,0-3.8,0-5.6v-5.7c0-2.4,1.5-3.9,3.9-3.9c2.7,0,5.5,0,8.2,0
			c1.7,0,2.6,0.9,3,1.6c0.9,1.5,0.4,3.5-1.1,4.4c-0.3,0.2-0.5,0.3-0.8,0.4l-0.1,0c1.2,0.5,1.9,1.6,1.9,2.9c0,1.6-1.1,3.1-3.4,3.2h0
			h-0.8c-1.2,0-2.3,0-3.5,0v0.3c1.1,0,2.3,0,3.4,0h1.6c2.5,0,3.5,1.6,3.6,3c0.2,1.5-0.8,2.9-2.3,3.3C28.8,67.1,28.4,67.1,27.9,67.1z
			"/>
		<path class="st6" d="M85.5,71.6L85.5,71.6c-1.6,0-3-1.1-3.2-2.6c-0.1-0.6-0.2-1.2-0.1-1.8l0,0c-0.5,0.1-1.1,0.2-1.6,0.2
			c-2.8,0-5.1-1.7-6.2-4.4c-0.8-2.1-0.8-4.3-0.1-6.4c0.8-2.5,2.5-4,4.9-4.6c1.5-0.4,3-0.2,4.4,0.5c0.6-0.4,1.3-0.7,2-0.7
			c1.5-0.1,2.8,0.9,3.3,2.3c0.2,0.5,0.2,1,0.2,1.5v11.9c0,0.6-0.1,1.1-0.2,1.7c0,0,0,0,0,0C88.3,70.7,86.9,71.6,85.5,71.6z M81.3,58
			L81.3,58c-0.1,0-0.2,0-0.3,0.3c-0.5,0.8-0.4,1.8,0,2.7c0.1,0.1,0.2,0.2,0.3,0.2c0.2,0,0.3-0.1,0.4-0.3c0.2-0.3,0.3-0.7,0.3-1.1
			c0,0,0-0.1,0-0.1c0-0.8-0.1-1.1-0.3-1.4C81.6,58.2,81.5,58,81.3,58L81.3,58z"/>
		<path class="st6" d="M51.8,71.6c-1.7,0-3-1.1-3.2-2.7c0,0,0,0,0,0s0-0.1,0-0.1c-0.1-0.3-0.1-0.5-0.1-0.8c0-1.4,0-2.8,0-4.2
			c0-2.7,0-5.6,0-8.4c0-2,1.3-3.5,3.2-3.6c0.8,0,1.6,0.2,2.2,0.7c0.5-0.3,1-0.4,1.5-0.6c3.7-0.7,7,1.5,7.9,5.4
			c0.4,1.9,0.3,3.8-0.4,5.6c-0.8,2.3-2.7,3.9-5.1,4.3c-0.9,0.2-1.8,0.1-2.7-0.1v0c0,0.6,0,1.2-0.2,1.8v0
			C54.7,70.6,53.3,71.7,51.8,71.6z M58.3,61.7L58.3,61.7z M56,58c-0.1,0-0.3,0-0.5,0.4c-0.2,0.4-0.2,0.7-0.2,1.1v0
			c0,0.4,0,0.8,0.2,1.2c0.2,0.4,0.4,0.4,0.5,0.4h0c0.1,0,0.2,0,0.3-0.3c0.4-0.8,0.4-1.7,0-2.5C56.3,58.1,56.2,58.1,56,58L56,58z"/>
		<path class="st6" d="M72.8,67.4c-0.8,0-1.6-0.3-2.2-0.9l0,0c-1.6,0.9-3.4,1.1-5.2,0.7c-2.3-0.5-4-2.4-4.2-4.8
			c-0.1-1.3,0.3-2.6,1.2-3.6c-0.7-0.9-0.9-2-0.5-3.3c0.6-1.8,1.9-2.9,4-3.5c1.7-0.5,3.5-0.5,5.3-0.1c2.8,0.6,4.3,2.4,4.4,5.4l0,0
			c0,0.5,0,1.1,0,1.6c0,0.2,0,0.5,0,0.7c0,0,0,0.1,0,0.1c0,1.1,0,2.3,0.3,3.4c0.5,1.5-0.1,3-1.5,3.8h0C74,67.2,73.4,67.4,72.8,67.4z
			 M72.1,64.5L72.1,64.5z"/>
		<path class="st6" d="M107.6,67.4c-0.8,0-1.5-0.1-2.2-0.3c-3-0.7-5.2-3.3-5.4-6.4c-0.1-1.2,0-2.4,0.2-3.6c1-3.7,4.5-5.9,8.4-5.3
			c3.5,0.5,5.9,3.1,6.1,6.5c0.1,0.9-0.1,1.8-0.6,2.5c0.5,0.8,0.7,1.9,0,3.2c-0.8,1.6-2.3,2.6-4.4,3.2
			C109,67.3,108.3,67.4,107.6,67.4z"/>
		<path class="st6" d="M98.4,67.4c-0.8,0-1.5-0.2-2.1-0.7c-0.9,0.5-1.9,0.7-2.9,0.7c-3.3,0.1-5.7-2.1-5.8-5.4c-0.1-2.2,0-4.5,0-6.7
			c0-1.9,1.3-3.3,3.2-3.4c0.9-0.1,1.8,0.2,2.5,0.8c0.7,0.6,1.1,1.5,1.2,2.4v0c0.1,0.9,0.1,1.8,0.1,2.7c0,0.4,0,0.7,0,1.1v0.5
			c0,0.5,0,1,0,1.6c0,0.1,0,0.1,0,0.2c0.1-0.1,0.2-0.2,0.2-0.3c0.1-0.5,0.1-1,0.1-1.5c0-0.3,0-0.5,0-0.8v0c0-0.5,0-0.9,0-1.5
			s0-1,0-1.6c0.1-1.8,1-3.1,2.6-3.5c1.7-0.4,3.5,0.5,4.1,2.2c0.2,0.5,0.3,1.1,0.2,1.7v8.1c0,0.1,0,0.1,0,0.2c-0.2,2-1.4,3.3-3.2,3.3
			L98.4,67.4z"/>
		<path class="st6" d="M119.4,67.4L119.4,67.4c-1.3,0-3-0.2-4.5-1.2c-1.2-0.7-2-1.9-2.3-3.3c-0.2-1.1,0.2-2.3,1-3
			c-0.6-0.7-0.9-1.6-1-2.5c-0.1-1.5,0.5-3,1.6-4l0,0c1-0.9,2.3-1.4,3.6-1.6c1.8-0.3,3.6,0,5.2,0.8c1.1,0.5,1.9,1.4,2.3,2.5
			c0.5,1.2,0.3,2.4-0.5,3.3c0.8,0.8,1.3,1.9,1.3,3.1c0,2.1-0.9,3.8-2.7,4.8C122.2,67.2,120.7,67.3,119.4,67.4L119.4,67.4z
			 M116.6,62.2L116.6,62.2z M123,55.7L123,55.7z"/>
		<path class="st6" d="M118,81c-0.6,0-1.3-0.1-1.9-0.2c-2.3-0.5-4.1-2.4-4.6-4.8c-0.7-3,0.4-6,2.6-7.4c2-1.3,4.6-1.5,6.9-0.5
			c1.2,0.5,2.1,1.5,2.6,2.7c0.3,0.8,0.3,1.7,0,2.5c0.4,0.6,0.6,1.4,0.6,2.1v0.7c0,1,0,2-0.6,2.8c-0.6,0.9-1.5,1.2-2.4,1.6
			C120,80.8,119,81,118,81z"/>
		<path class="st6" d="M144.3,80.9c-0.5,0-0.9-0.1-1.3-0.3c-0.2,0.1-0.5,0.2-0.8,0.2c-2.2,0.4-4.4-0.8-5.3-2.9
			c-0.6-1.6-0.7-3.3-0.1-4.9c0.5-1.4,1.6-2.5,3-3c0.6-0.2,1.1-0.2,1.7-0.2c0-0.1,0-0.2,0-0.2c0,0,0,0,0,0c0.2-1.3,1.5-2.3,2.8-2.2
			h0.1c1.4,0.1,2.5,1.1,2.6,2.5c0,0.2,0,0.4,0,0.6v7.5c0,1.6-1,2.8-2.5,3C144.6,80.9,144.4,80.9,144.3,80.9z"/>
		<path class="st6" d="M97.3,80.9c-1.9,0-3.6-1.2-4.3-2.9c-0.7-1.6-0.7-3.3-0.1-4.9c0.7-2,2.6-3.3,4.7-3.2c0.2-1.6,1.4-2.6,2.9-2.5
			c1.6,0.1,2.7,1.3,2.7,3v7.3c0,0.5-0.1,1.1-0.3,1.6c-0.4,0.9-1.2,1.6-2.2,1.7c-0.6,0.1-1.2,0-1.7-0.3c-0.2,0.1-0.5,0.2-0.7,0.2
			C98,80.9,97.7,80.9,97.3,80.9z"/>
		<path class="st6" d="M148.9,81c-0.4,0-0.9-0.1-1.3-0.2h0c-1.8-0.5-3-1.9-3-3.7c0-0.7,0.2-1.4,0.5-2c-0.4-0.8-0.5-1.8,0.3-2.9
			c1.1-1.8,3-2,3.8-2.1h0c0.8-0.1,1.7,0,2.5,0.2l0,0c1.7,0.4,2.8,1.7,3,3.5c0.1,0.4,0.1,0.9,0.1,1.4c0,0.1,0,0.2,0,0.3v0.1
			c0,0.6,0,1.2,0.2,1.7c0.5,1.3-0.1,2.9-1.4,3.5l0,0c-0.9,0.4-1.9,0.4-2.7-0.1C150.2,80.8,149.5,81,148.9,81z M153.5,77.6
			L153.5,77.6z"/>
		<path class="st6" d="M159.7,81c-0.4,0-0.9-0.1-1.3-0.2h0c-1.8-0.5-3-2-3-3.8c0-0.7,0.2-1.4,0.5-2c-0.1-0.3-0.2-0.6-0.3-0.9
			c-0.1-0.9,0.2-1.7,0.7-2.4c1.2-1.5,3-2.1,5.3-1.8h0c1,0.1,2.2,0.4,3.1,1.5c0.8,0.9,0.9,2.1,0.9,3.2c0,0,0,0.1,0,0.1
			c0,0.2,0,0.4,0,0.6v0.1c0,0.5,0,1.1,0.1,1.6c0.5,1.3,0,2.8-1.2,3.4l0,0c-0.9,0.5-2,0.5-2.8-0.1C161.1,80.8,160.4,80.9,159.7,81z"
			/>
		<path class="st6" d="M133.3,81c-0.4,0-0.9-0.1-1.3-0.2h0c-1.8-0.5-3-2-3-3.8c0-0.7,0.2-1.4,0.6-2c-0.4-0.7-0.4-1.7,0.2-2.8
			c1-1.8,2.9-2.1,3.8-2.2h0c0.9-0.1,1.9,0,2.7,0.2c1.7,0.5,2.7,1.8,2.9,3.6c0,0,0,0,0,0.1c0,0.4,0,0.8,0,1.1c0,0.1,0,0.3,0,0.4
			s0,0.2,0,0.4c0,0.5,0,1,0.1,1.4l0,0c0.5,1.5-0.1,2.9-1.4,3.5c-0.8,0.4-1.8,0.4-2.6-0.1C134.7,80.8,134,81,133.3,81z"/>
		<path class="st6" d="M170.8,81c-0.4,0-0.9-0.1-1.3-0.2c-1.9-0.5-3.1-2-3-3.8c0-0.7,0.2-1.3,0.5-1.9c-0.4-0.8-0.4-1.8,0.3-2.9
			c1.1-1.8,2.9-2,3.9-2.1c0.8-0.1,1.6,0,2.4,0.2c1.8,0.4,2.9,1.8,3,3.6c0,0.4,0,0.8,0,1.2c0,0.1,0,0.3,0,0.4v0.1
			c0,0.6,0,1.1,0.2,1.7c0.5,1.3,0,2.8-1.3,3.5l0,0c-0.9,0.5-1.9,0.4-2.7-0.1C172.1,80.8,171.5,81,170.8,81z"/>
		<path class="st6" d="M183.6,81c-0.5,0-0.9-0.1-1.3-0.2h0c-1.8-0.5-3-2-2.9-3.8c0-0.7,0.2-1.4,0.6-1.9c-0.4-0.8-0.4-1.9,0.3-3
			c1.1-1.7,3-1.9,4-2c0.7-0.1,1.5,0,2.2,0.2c1.8,0.4,3,1.7,3.1,3.6c0,0.4,0,0.8,0,1.2c0,0.1,0,0.3,0,0.4v0.1c0,0.6,0,1.1,0.2,1.6
			c0.5,1.3-0.1,2.8-1.3,3.5h0c-0.9,0.5-1.9,0.4-2.7-0.1C185,80.8,184.3,81,183.6,81z"/>
		<path class="st6" d="M106.2,80.9c-3.1,0-5.1-1.6-5.6-4.5c-0.5-2.8,0.9-5.3,3.4-6.2c1.6-0.6,3.4-0.4,4.9,0.5
			c1.3,0.8,2.1,2.1,2.2,3.6c0.1,0.6,0,1.3-0.2,1.9c0.3,0.7,0.2,1.6-0.4,2.5l0,0c-1.3,1.9-3.3,2.1-4,2.1
			C106.3,80.9,106.2,80.9,106.2,80.9z"/>
		<path class="st6" d="M125.8,80.9c-2.2,0.1-4.1-1.7-4.1-3.9c0,0,0-0.1,0-0.1c-0.1-1.1,0-2.2,0-3.3c0-0.3,0-0.5,0-0.8
			c0-1.7,1.2-2.9,2.8-2.9c0.9,0,1.7,0.3,2.3,1c0.5-0.6,1.4-1,2.2-1c1.5,0,2.8,1.2,2.8,2.7c0,0,0,0,0,0.1l0,0c0,0.7,0,1.4,0,2.1v3.1
			c0,1.7-1.1,2.9-2.7,3c-0.5,0-1-0.1-1.5-0.3c-0.2,0.1-0.5,0.2-0.7,0.2C126.5,80.9,126.2,80.9,125.8,80.9z"/>
		<path class="st6" d="M165.1,83.6c-0.8,0-1.5-0.2-2.2-0.6c-1-0.6-1.5-1.7-1.3-2.8c0.2-0.9,0.8-1.7,1.7-2v-4.7c0-0.3,0-0.5,0-0.8
			v-0.1c0.1-1.5,1.4-2.7,2.9-2.6c1.6,0,2.8,1.2,2.8,2.9v0.1c0,1.1,0,2.3,0,3.5c0,0.3,0,0.7,0,1c0,0.7,0,1.5,0,2.2
			c0,1.5-0.8,2.8-2.1,3.5C166.5,83.4,165.8,83.6,165.1,83.6z"/>
		<path class="st6" d="M155.2,81c-0.7,0-1.3-0.2-1.8-0.7c-0.5-0.4-1-1.2-1-2.5v0c0-0.8,0-1.7,0-2.5c0-0.4,0-0.8,0-1.2v-3.6
			c0-2.2,1.4-3,2.7-3.2c0.8-0.1,1.5,0.2,2.1,0.7c0.7,0.6,1,1.5,1,2.5c0,1.6,0,3.2,0,4.8c0,0.8,0,1.6,0,2.4c0,2.1-1.3,3-2.6,3.2h0
			C155.4,81,155.3,81,155.2,81z"/>
		<path class="st6" d="M177.3,80.9h-0.1c-1.2,0-2.3-0.9-2.6-2v0c-0.1-0.3-0.2-0.6-0.2-1c0-0.5,0-1.1,0-1.6c0-1.1,0-2.2,0-3.3
			c0-0.9,0.3-1.7,0.9-2.3c0.8-0.9,2.1-1.1,3.1-0.6c1-0.4,2.1-0.3,3.2,0.3c1.6,0.9,1.8,2.4,1.4,3.4c-0.4,1.2-1.6,1.9-2.8,1.8
			c0,0.3,0,0.6,0,0.9c0,0.3,0,0.7,0,1.1c0,0,0,0,0,0.1v0.1c0,0.4-0.1,0.8-0.2,1.1v0C179.7,80.1,178.6,81,177.3,80.9z"/>
		<path class="st6" d="M187.4,89.7H9.6c-3,0-4.2-1.9-4.2-3.5c-0.1-1.9,1-3.4,2.9-3.8c0.5-0.1,1-0.1,1.5-0.1c29.6,0,59.6,0,88.7,0
			h88.8c0.6,0,1.1,0,1.6,0.2h0c2,0.6,3.1,2.6,2.6,4.6c-0.3,1.2-1.3,2.2-2.6,2.6C188.4,89.6,187.9,89.7,187.4,89.7z"/>
		<path class="st4" d="M188.2,63.3c-1-2.5-2.4-4.8-4.8-6.4c0.4-0.1,0.7-0.2,0.9-0.3c1.5-0.5,2.8-1.3,3.4-2.8
			c1.3-3.3-0.8-6.6-4.3-6.9c-2.8-0.3-5.6-0.1-8.5-0.1c-0.2,0-0.5,0-0.7,0.1c-0.7,0.1-1.2,0.7-1.3,1.4c-0.1,0.4-0.1,0.7-0.1,1.1v13.9
			c0,0.3,0,0.7,0.1,1c0.1,1,1,1.7,1.9,1.6c0.1,0,0.3-0.1,0.4-0.1c0.9-0.3,1.3-0.9,1.3-2.1c0-1.9,0-3.8,0-5.7c0-0.4,0.1-0.6,0.5-0.5
			c0.2,0,0.4,0,0.6,0c1.6-0.1,2.8,0.6,3.7,1.9c1,1.7,2,3.3,3.1,5c0.2,0.4,0.6,0.8,1,1.1c0.7,0.5,1.6,0.5,2.3,0
			C188.4,64.7,188.6,64.2,188.2,63.3z M178.3,54.6c-0.5,0-1.3,0.2-1.6-0.1c-0.3-0.3-0.1-1.1-0.1-1.6c0-0.9,0-1.9,0-2.8
			c0-0.5,0.1-0.5,0.6-0.5c0.7,0,1.4,0,2.3,0c0.8,0,1.8-0.1,2.8,0.1c1.1,0.2,1.9,1.1,2,2.2c0.1,1.3-0.5,2.1-1.8,2.5
			C181.1,54.7,179.7,54.6,178.3,54.6L178.3,54.6z"/>
		<path class="st4" d="M146.2,65.6c-1.6-0.1-3.1-0.2-4.5-1c-1.5-0.8-2.5-2.2-2.9-3.8c-0.1-0.4-0.1-0.8,0-1.2
			c0.2-0.6,0.7-1.1,1.3-1.2c0.6-0.1,1.2,0.1,1.5,0.6c0.4,0.6,0.6,1.2,0.9,1.8c1.2,2.6,5.4,2.2,6.7,0.7c0.8-0.9,0.7-2.4-0.2-3.2
			c-0.1-0.1-0.2-0.2-0.4-0.3c-0.8-0.5-1.8-0.7-2.7-0.9c-1.6-0.4-3.2-0.7-4.6-1.6c-2.3-1.3-3.1-4.2-1.7-6.5c0.2-0.4,0.5-0.7,0.8-1
			c2.6-2.5,8.6-2.4,11.1,0.1c0.7,0.7,1.1,1.6,1.1,2.6c0,0.8-0.5,1.4-1.2,1.7c-0.8,0.2-1.4,0-1.9-0.7c-0.3-0.4-0.5-0.9-0.8-1.3
			c-1.1-1.8-4.3-2.1-5.8-0.6c-0.9,0.9-0.8,2,0.2,2.8c0.8,0.6,1.7,0.8,2.5,1c1.4,0.3,2.7,0.7,4,1.2c2.1,0.8,3.5,2.1,3.6,4.5
			c0.1,2.5-1,4.4-3.3,5.5C148.9,65.4,147.5,65.6,146.2,65.6z"/>
		<path class="st4" d="M169.7,63.3c-0.4-0.4-0.8-0.7-1.3-1.1c-0.5-0.3-0.6-0.6-0.3-1.2c0.4-0.6,0.7-1.3,0.8-2
			c0.2-0.8-0.1-1.3-0.7-1.6c-0.6-0.2-1.1,0-1.5,0.7c-0.3,0.6-0.5,1.1-0.8,1.8c-1-1-1.8-2-2.6-3c0.7-0.4,1.4-0.9,2-1.5
			c1.6-1.6,1.3-4-0.7-5.1c-1.6-0.9-3.5-0.8-5.1,0.1c-1.5,0.8-2,2.6-1.3,4.2c0.2,0.5,0.6,1,0.9,1.5c0.3,0.4,0.2,0.5-0.2,0.7
			c-0.5,0.3-1.1,0.6-1.5,1c-2.5,2.1-2,5.8,1.1,7.1c2.5,1,4.9,0.8,7.1-1c0.3-0.3,0.5-0.3,0.8,0c0.5,0.5,1.1,0.9,1.8,1.3
			c0.6,0.4,1.4,0.2,1.8-0.4C170.4,64.5,170.3,63.9,169.7,63.3z M160.8,52.6c0.3-0.5,0.7-0.8,1.3-0.8c0.9,0,1.5,0.3,1.8,0.9
			c0.3,0.7,0.1,1.3-0.5,1.8c-1.3,1.2-1.6,1.1-2.5-0.4C160.6,53.6,160.5,53.1,160.8,52.6z M164,62.4c-0.8,0.6-1.6,1.1-2.6,1.1
			c-1.1,0-2.1-0.7-2.5-1.7c-0.4-1-0.1-2,0.9-2.7c0,0,0,0,0.1,0c0.9-0.7,0.9-0.7,1.7,0.2c0.7,0.9,1.5,1.8,2.4,2.6
			C164.3,62,164.3,62.2,164,62.4L164,62.4z"/>
		<path class="st4" d="M34.4,55.4c2.9-2.1,4.8-2.1,6.5,0.1c0.8-0.7,1.6-1.4,2.7-1.6c0.8-0.1,1.6,0,2.4,0.3c1.2,0.5,1.8,1.4,1.9,2.7
			c0.1,2.3,0.1,4.5,0,6.8c0,1.1-0.6,1.7-1.5,1.7c-0.9,0-1.4-0.7-1.4-1.8c0-1.5,0-2.9,0-4.4c0-0.5,0-0.9,0-1.3
			c-0.1-1.1-0.5-1.8-1.3-1.8c-1-0.1-2,0.6-2.2,1.6c-0.1,0.7-0.2,1.4-0.2,2.2c0,1.3,0,2.5,0,3.8c0,0.7-0.2,1.4-0.9,1.7
			c-0.7,0.3-1.5,0-1.8-0.7c0-0.1-0.1-0.2-0.1-0.3c-0.1-0.4-0.1-0.7-0.1-1.1c0-1.8,0-3.6,0-5.4c0-1.1-0.4-1.7-1.2-1.8
			c-1.1-0.1-1.9,0.3-2.2,1.3c-0.2,0.8-0.3,1.7-0.3,2.5c0,1.2,0,2.4,0,3.7c0,1-0.3,1.5-1,1.7c-0.7,0.2-1.4-0.1-1.7-0.8
			c-0.1-0.1-0.1-0.3-0.1-0.4c-0.1-3-0.1-6,0-9c0-0.8,0.6-1.2,1.3-1.2c0.7,0,1.3,0.5,1.3,1.2C34.4,55.2,34.4,55.3,34.4,55.4z"/>
		<path class="st4" d="M18,57.4v-5.7c0-1.3,0.5-1.9,1.8-1.9c2.7,0,5.4,0,8.1,0c0.5,0,1,0.1,1.3,0.6c0.3,0.5,0.2,1.2-0.4,1.6
			c-0.1,0.1-0.2,0.1-0.3,0.1c-0.3,0.1-0.6,0.1-0.8,0.1c-2,0-4,0-6,0c-0.6,0-0.7,0.2-0.7,0.7c0,0.8,0,1.6,0,2.4
			c0,0.5,0.1,0.6,0.6,0.6c1.9,0,3.9,0,5.8,0c0.9,0,1.4,0.4,1.4,1.1c0,0.7-0.5,1.1-1.4,1.1c-1.9,0-3.7,0-5.6,0
			c-0.6,0-0.8,0.2-0.8,0.8c0.1,1,0,2,0,3c0,0.5,0.1,0.6,0.6,0.6c2.2,0,4.3,0,6.5,0c1,0,1.5,0.4,1.5,1.1c0.1,0.6-0.3,1.1-0.9,1.2
			c-0.3,0.1-0.6,0.1-0.9,0.1H20c-1.6,0-2-0.5-2-2C18,61.2,18,59.3,18,57.4z"/>
		<path class="st4" d="M86.7,54.8c-0.1-0.6-0.7-1-1.3-0.9c-0.6,0-1.1,0.4-1.2,0.9c-0.1,0.3-0.1,0.6-0.2,0.9
			c-1.2-1.6-2.7-2.1-4.6-1.7c-1.8,0.4-2.8,1.5-3.4,3.2c-0.5,1.6-0.5,3.4,0.1,5.1c0.9,2.3,3,3.5,5.4,3c0.9-0.2,1.7-0.8,2.5-1.5v2.9
			c0,0.6,0,1.3,0.1,1.9c0.1,0.6,0.6,1,1.2,1c0.6,0.1,1.1-0.3,1.3-0.9c0.1-0.4,0.1-0.7,0.1-1.1V55.7C86.8,55.4,86.8,55,86.7,54.8z
			 M83.4,62.1c-1.1,1.6-3.3,1.6-4.2-0.1c-0.8-1.4-0.8-3.1-0.1-4.6c0.9-1.8,3.3-1.9,4.4-0.1c0.4,0.8,0.6,1.6,0.6,2.5
			C84.1,60.6,83.8,61.4,83.4,62.1L83.4,62.1z"/>
		<path class="st4" d="M61.3,57.8c-0.6-2.8-2.9-4.3-5.5-3.8c-1.1,0.2-1.9,0.9-2.6,1.8c-0.1-0.3-0.1-0.6-0.1-0.9
			c-0.1-0.6-0.7-1.1-1.3-1c-0.8,0-1.2,0.5-1.2,1.5c0,4.2,0,8.3,0,12.5c0,0.2,0.1,0.5,0.1,0.7c0.1,0.7,0.5,1,1.2,1
			c0.6,0.1,1.1-0.4,1.2-0.9c0.1-0.5,0.1-0.9,0.1-1.4c0-1.2,0-2.4,0-3.7c0.2,0.2,0.3,0.3,0.4,0.4c2.1,2.5,6.3,1.8,7.5-1.6
			C61.6,60.8,61.7,59.3,61.3,57.8z M58.3,61.7c-0.4,0.9-1.1,1.5-2.1,1.5c-1.1,0.1-1.9-0.5-2.4-1.4c-0.4-0.7-0.5-1.5-0.5-2.2
			c0-0.7,0.1-1.5,0.5-2.1c0.5-0.9,1.3-1.5,2.4-1.4c0.9,0,1.8,0.6,2.1,1.5C58.9,58.8,58.9,60.3,58.3,61.7z"/>
		<path class="st4" d="M74,63.8c-0.5-1.3-0.5-2.7-0.4-4.1c0-0.7,0-1.5,0-2.2c-0.1-2.1-0.9-3.1-2.8-3.5c-1.4-0.3-2.9-0.3-4.3,0.1
			c-1.2,0.3-2.2,0.9-2.6,2.2c-0.3,0.8-0.1,1.4,0.5,1.6c0.7,0.3,1.1,0.2,1.6-0.6c0.7-1.2,1.6-1.6,2.9-1.6c1.2,0.1,1.7,0.5,1.9,1.7
			c0.1,0.4,0,0.6-0.5,0.7c-1.6,0.3-3.2,0.7-4.8,1.1c-1.4,0.3-2.3,1.6-2.2,3.1c0.1,1.4,1.2,2.6,2.6,2.9c1.5,0.3,3,0,4.3-0.8
			c0.8-0.5,0.8-0.5,1.5,0.3c0.1,0.1,0.2,0.2,0.3,0.4c0.4,0.4,1,0.5,1.5,0.2C73.9,64.8,74.2,64.4,74,63.8z M68.6,63.4
			c-0.5,0.1-1,0.1-1.5,0c-0.6-0.2-1-0.7-1-1.4c-0.1-0.6,0.3-1.2,0.9-1.4c0.4-0.2,0.8-0.3,1.3-0.4c0.8-0.2,1.6-0.4,2.5-0.6
			C71,61.8,70.3,63,68.6,63.4L68.6,63.4z"/>
		<path class="st4" d="M112.2,61.6c-0.5-0.4-1-0.3-1.5,0.2c-0.4,0.5-0.9,0.8-1.5,1.2c-1.9,1-4,0-4.3-2.1c-0.1-0.5,0.1-0.7,0.6-0.6
			c0.8,0,1.7,0,2.7,0c0.9-0.1,2,0.1,3.1-0.1c1.2-0.2,1.5-0.6,1.5-1.8c-0.1-2.4-1.8-4.1-4.3-4.5c-2.9-0.5-5.4,1.1-6.1,3.8
			c-0.2,0.9-0.3,1.9-0.2,2.9c0.2,2.3,1.7,4.1,3.9,4.6c1.1,0.3,2.2,0.3,3.4,0c1.3-0.3,2.4-0.9,3-2.1C112.5,62.6,112.7,62,112.2,61.6z
			 M104.8,58.2c0.1-1.5,1.3-2.6,2.7-2.5c0.3,0,0.6,0.1,0.8,0.2c0.9,0.4,1.5,1.3,1.5,2.3c0,0.4-0.2,0.3-0.4,0.3c-0.7,0-1.4,0-2.1,0
			h-2.2C105,58.5,104.8,58.6,104.8,58.2L104.8,58.2z"/>
		<path class="st4" d="M97,63.5c-1,1.2-2.2,1.8-3.6,1.9c-2.2,0-3.6-1.2-3.7-3.4c-0.1-2.2,0-4.4,0-6.6c0-0.9,0.5-1.4,1.3-1.4
			c0.7-0.1,1.4,0.4,1.5,1.1c0,0.1,0,0.1,0,0.2c0.1,1.2,0,2.4,0.1,3.7c0,0.7,0,1.5,0.1,2.2c0.1,1.4,0.7,2.1,1.7,2.2
			c1.2,0.1,2.4-0.8,2.6-2c0.2-0.9,0.1-1.8,0.1-2.7c0-1,0-2,0-3c0-0.9,0.4-1.4,1.1-1.6c0.7-0.2,1.4,0.2,1.6,0.9
			c0.1,0.3,0.1,0.6,0.1,1v8.1c-0.1,0.9-0.5,1.4-1.2,1.4s-1.2-0.4-1.4-1.3C97,63.9,97,63.7,97,63.5z"/>
		<path class="st4" d="M119.4,65.3c-1.2,0-2.4-0.2-3.4-0.9c-0.7-0.4-1.2-1.1-1.3-1.9c-0.1-0.5,0.1-1.1,0.7-1.3
			c0.5-0.2,1.1-0.1,1.4,0.4c0.2,0.2,0.3,0.4,0.4,0.7c0.8,1.1,2.3,1.5,3.6,1c0.4-0.2,0.8-0.5,0.8-1c0-0.5-0.3-1-0.8-1.2
			c-0.8-0.4-1.8-0.5-2.6-0.8c-0.7-0.2-1.4-0.5-2-0.8c-1.7-1.1-1.8-3.1-0.4-4.4c0.7-0.6,1.6-1,2.5-1c1.4-0.2,2.8,0,4.1,0.6
			c0.6,0.3,1.1,0.8,1.3,1.4c0.2,0.5,0.2,1.1-0.3,1.4c-0.5,0.4-1.1,0.3-1.6,0c-0.3-0.3-0.6-0.6-0.8-0.9c-0.8-0.8-2-1-3-0.5
			c-0.8,0.5-0.8,1.2,0,1.7c0.7,0.4,1.4,0.5,2.1,0.7c0.9,0.2,1.7,0.5,2.5,0.8c1,0.5,1.7,1.2,1.7,2.4c0,1.3-0.5,2.3-1.7,3
			C121.6,65.2,120.4,65.3,119.4,65.3z"/>
		<path class="st4" d="M122,75.9c0,1.8-0.1,1.9-1.7,2.5c-1.2,0.5-2.4,0.6-3.7,0.3c-1.7-0.4-2.7-1.5-3.1-3.3
			c-0.5-2.1,0.2-4.3,1.7-5.2c1.5-1,3.4-1.1,5-0.4c0.7,0.3,1.2,0.8,1.5,1.5c0.2,0.5,0.1,0.9-0.4,1.2c-0.5,0.2-0.9,0-1.1-0.4
			c-0.5-0.8-1.1-1.4-2.1-1.4c-1.3,0-2.2,0.6-2.6,1.9c-0.3,0.9-0.3,1.9,0,2.8c0.4,1.6,1.8,2.3,3.5,1.9c0.2-0.1,0.5-0.1,0.7-0.2
			c0.7-0.3,1-1,0.8-1.7c-0.1-0.2-0.3-0.2-0.4-0.2c-0.4,0-0.9,0-1.3,0c-0.4,0-0.8-0.2-0.8-0.7s0.4-0.7,0.8-0.7c0.7,0,1.3,0,2,0
			c1,0,1.3,0.3,1.3,1.3L122,75.9z"/>
		<path class="st4" d="M145.1,70.1c0-0.4-0.3-0.7-0.7-0.7c-0.4,0-0.7,0.2-0.7,0.6c-0.1,0.3-0.1,0.6-0.1,0.9c0,0.6,0,1.3,0,2
			c-0.3-0.2-0.4-0.3-0.6-0.5c-1.2-0.9-2.9-0.7-3.8,0.5c-0.2,0.2-0.3,0.5-0.4,0.7c-0.4,1.1-0.4,2.4,0.1,3.4c0.5,1.2,1.7,1.9,2.9,1.6
			c0.6-0.2,1.2-0.5,1.7-1c0,0.2,0.1,0.2,0.1,0.3c0.1,0.5,0.4,0.8,0.9,0.7s0.7-0.5,0.7-1v-7.5C145.1,70.3,145.1,70.2,145.1,70.1z
			 M141.7,77.6c-0.9-0.1-1.6-0.9-1.6-2.2c0-1.2,0.6-2.1,1.5-2.2c1.1-0.1,1.8,0.8,1.8,2.2C143.5,76.8,142.8,77.7,141.7,77.6z"/>
		<path class="st4" d="M100.4,69.4c-0.5,0-0.7,0.3-0.8,0.8c0,0.3,0,0.6,0,0.8v1.9c-0.3-0.2-0.4-0.3-0.6-0.5
			c-1.2-0.9-2.9-0.6-3.8,0.5c-0.2,0.2-0.3,0.5-0.4,0.7c-0.4,1.1-0.4,2.4,0.1,3.4c0.5,1.2,1.7,1.9,3,1.6c0.6-0.1,1.1-0.5,1.6-1
			c0.1,0.6,0.3,1.1,0.9,1c0.6-0.1,0.7-0.6,0.7-1.2v-7.3C101.1,69.8,100.9,69.5,100.4,69.4z M99.3,76.6c-0.2,0.6-0.8,1-1.5,1
			c-0.6,0-1.2-0.4-1.4-1c-0.1-0.3-0.2-0.6-0.2-1c0-0.5,0.1-1.1,0.3-1.6c0.3-0.7,1.2-1.1,1.9-0.7c0.3,0.1,0.6,0.4,0.7,0.7
			C99.6,74.8,99.6,75.8,99.3,76.6z"/>
		<path class="st4" d="M153,77.9c-0.3-0.8-0.3-1.7-0.3-2.5c0-0.5,0-0.9,0-1.4c-0.1-1-0.6-1.6-1.4-1.8c-0.6-0.2-1.2-0.2-1.8-0.2
			c-0.9,0.1-1.8,0.3-2.4,1.2c-0.3,0.4-0.4,0.9,0.1,1.2c0.5,0.4,0.8,0,1.1-0.4c0.5-0.7,1.4-1,2.2-0.7c0.4,0.2,0.7,0.6,0.7,1
			c0,0.4-0.4,0.3-0.6,0.4c-0.8,0.2-1.6,0.3-2.4,0.5c-0.9,0.2-1.5,0.9-1.5,1.8c0,0.9,0.6,1.5,1.5,1.8c0.8,0.2,1.7,0.1,2.4-0.4
			c0.5-0.3,0.8-0.5,1.2,0.2c0.2,0.3,0.6,0.5,0.9,0.3c0,0,0,0,0,0C153,78.7,153.2,78.3,153,77.9C153,77.9,153,77.9,153,77.9z
			 M149.2,77.8c-0.5,0-0.9-0.3-0.9-0.8c-0.1-0.4,0.2-0.8,0.7-0.9c0,0,0,0,0,0c0.7-0.2,1.4-0.4,2.1-0.5
			C151.2,77.1,150.5,77.9,149.2,77.8L149.2,77.8z"/>
		<path class="st4" d="M163.9,77.8c-0.3-0.8-0.3-1.6-0.2-2.4c0-0.2,0-0.5,0-0.7c0-1.8-0.4-2.4-2.2-2.6c-1.3-0.2-2.5-0.1-3.4,1
			c-0.3,0.4-0.5,0.9,0,1.3c0.5,0.4,0.8,0,1.1-0.4c0.5-0.7,1.4-0.9,2.2-0.7c0.4,0.2,0.6,0.5,0.6,1c0,0.4-0.4,0.3-0.6,0.4
			c-0.8,0.2-1.6,0.3-2.4,0.5c-1,0.2-1.5,0.9-1.5,1.8s0.6,1.5,1.5,1.8c0.9,0.2,1.8,0.1,2.5-0.5c0.4-0.3,0.7-0.4,1,0.2
			c0.2,0.4,0.6,0.5,0.9,0.4c0,0,0.1,0,0.1-0.1C163.9,78.6,164,78.2,163.9,77.8C163.9,77.8,163.9,77.8,163.9,77.8z M160.1,77.8
			c-0.5,0-0.9-0.3-0.9-0.8c-0.1-0.4,0.2-0.8,0.7-0.9c0,0,0,0,0,0c0.7-0.2,1.4-0.4,2.1-0.5C162.1,77.1,161.4,77.9,160.1,77.8
			L160.1,77.8z"/>
		<path class="st4" d="M137.4,77.8c-0.3-0.8-0.2-1.6-0.3-2.4c0-0.5,0-0.9,0-1.4c-0.1-1-0.5-1.5-1.4-1.8c-0.6-0.2-1.3-0.2-2-0.2
			c-0.9,0.1-1.8,0.3-2.3,1.2c-0.2,0.4-0.4,0.9,0.1,1.2s0.8,0,1.1-0.4c0.5-0.7,1.4-1,2.2-0.7c0.4,0.1,0.7,0.5,0.7,1
			c0,0.4-0.4,0.3-0.6,0.4c-0.8,0.2-1.6,0.3-2.4,0.5c-1,0.2-1.5,0.9-1.5,1.8c0,0.9,0.6,1.5,1.5,1.8c0.9,0.2,1.8,0,2.5-0.5
			c0.5-0.3,0.7-0.3,1,0.2c0.2,0.4,0.6,0.5,0.9,0.3c0,0,0,0,0,0C137.5,78.6,137.6,78.2,137.4,77.8z M133.7,77.8
			c-0.5,0-0.9-0.3-0.9-0.8c-0.1-0.6,0.3-0.8,0.7-1c0.7-0.2,1.4-0.4,2.1-0.5C135.7,77,135,77.9,133.7,77.8L133.7,77.8z"/>
		<path class="st4" d="M174.9,77.9c-0.3-0.8-0.3-1.6-0.3-2.4c0-0.5,0-1,0-1.5c-0.1-1-0.6-1.6-1.4-1.8c-0.6-0.2-1.2-0.2-1.8-0.2
			c-0.9,0.1-1.9,0.3-2.4,1.2c-0.3,0.4-0.4,0.9,0.1,1.2c0.5,0.4,0.8,0,1.1-0.4c0.5-0.7,1.4-1,2.2-0.7c0.4,0.1,0.6,0.5,0.6,0.9
			c0,0.5-0.4,0.4-0.7,0.4c-0.8,0.2-1.5,0.3-2.3,0.5c-1,0.2-1.5,0.9-1.5,1.8s0.5,1.6,1.5,1.8c0.9,0.2,1.8,0.1,2.5-0.5
			c0.5-0.3,0.7-0.4,1.1,0.2c0.2,0.3,0.6,0.5,0.9,0.3c0,0,0,0,0.1,0C174.9,78.6,175.1,78.2,174.9,77.9
			C174.9,77.9,174.9,77.9,174.9,77.9z M171.1,77.8c-0.5,0-0.9-0.3-0.9-0.8c-0.1-0.6,0.3-0.8,0.7-1c0.7-0.2,1.4-0.3,2.1-0.5
			C173.1,77,172.4,77.9,171.1,77.8L171.1,77.8z"/>
		<path class="st4" d="M187.8,77.8c-0.3-0.8-0.3-1.6-0.3-2.4c0-0.5,0-1,0-1.4c-0.1-1-0.6-1.6-1.5-1.8c-0.5-0.1-1.1-0.2-1.6-0.2
			c-0.9,0.1-1.9,0.2-2.5,1.1c-0.3,0.4-0.5,0.9,0.1,1.3c0.5,0.4,0.8,0,1.1-0.4c0.5-0.7,1.4-1,2.2-0.7c0.4,0.2,0.6,0.5,0.6,0.9
			c0,0.5-0.4,0.4-0.7,0.4c-0.8,0.2-1.6,0.3-2.4,0.5c-0.8,0.2-1.5,0.9-1.5,1.8c0,0.9,0.5,1.6,1.5,1.8c0.9,0.2,1.8,0.1,2.5-0.5
			c0.5-0.3,0.7-0.4,1.1,0.2c0.2,0.3,0.6,0.5,0.9,0.3c0,0,0,0,0.1,0C187.8,78.6,187.9,78.2,187.8,77.8
			C187.8,77.9,187.8,77.8,187.8,77.8z M184.1,77.8c-0.6,0-1-0.3-1-0.8c-0.1-0.6,0.4-0.8,0.8-1c0.6-0.2,1.3-0.3,2-0.5
			C185.9,77.1,185.3,77.8,184.1,77.8z"/>
		<path class="st4" d="M108.6,76.7c-0.3-0.2-0.6-0.1-0.9,0.1c-0.3,0.3-0.6,0.6-1,0.7c-0.8,0.4-1.9,0.1-2.3-0.8
			c-0.1-0.1-0.1-0.3-0.1-0.4c-0.1-0.4-0.1-0.6,0.4-0.5c1,0,2,0,3,0c1.1,0,1.3-0.3,1.3-1.4c-0.2-1.9-2.3-3.1-4.3-2.4
			c-1.5,0.5-2.3,2.1-2,3.9c0.3,1.8,1.5,2.8,3.6,2.8c0.8-0.1,1.8-0.3,2.5-1.2C108.8,77.4,109,77,108.6,76.7z M104.4,74.1
			c0.3-0.7,1-1,1.7-0.9c0.6,0.1,1.1,0.7,1.2,1.3c0,0.3,0,0.4-0.3,0.4c-0.4,0-0.9,0-1.3,0H105C104.2,74.9,104.1,74.9,104.4,74.1
			L104.4,74.1z"/>
		<path class="st4" d="M128.1,77.9c-0.5,0.4-1,0.8-1.6,0.9c-1.5,0.3-2.7-0.4-2.7-2c-0.1-1.3,0-2.6,0-4c0-0.5,0.2-0.9,0.8-0.9
			c0.4,0,0.8,0.3,0.9,0.8c0,0,0,0.1,0,0.1c0,0.5,0,1,0,1.6c0,0.7,0,1.3,0,2c0,0.8,0.4,1.2,1,1.3c0.7,0,1.3-0.4,1.5-1.1
			c0.1-0.6,0.1-1.2,0.1-1.8c0-0.7,0-1.3,0-2c0-0.4,0.3-0.8,0.7-0.8c0,0,0.1,0,0.1,0c0.4,0,0.8,0.3,0.8,0.7c0,0,0,0.1,0,0.1
			c0,0.7,0,1.4,0,2v3.1c0,0.5-0.2,0.9-0.7,0.9c-0.5,0-0.8-0.3-0.8-0.8C128.2,78,128.1,78,128.1,77.9z"/>
		<path class="st4" d="M167.1,76.3c0,1.1,0,2.2,0,3.2c0,1.1-1,2-2.1,2c-0.4,0-0.7-0.1-1-0.3c-0.3-0.1-0.4-0.4-0.3-0.7
			c0-0.3,0.3-0.5,0.6-0.5c1.2-0.1,1.2-0.1,1.2-1.2v-5.4c0-0.2,0-0.4,0-0.6c0-0.4,0.3-0.8,0.8-0.8c0,0,0,0,0.1,0
			c0.5,0,0.8,0.4,0.8,0.9C167.1,74,167.1,75.2,167.1,76.3L167.1,76.3z"/>
		<path class="st4" d="M154.5,74.2v-3.6c0-0.5,0.1-1.1,0.8-1.1c0.5,0,0.9,0.4,0.9,1.1c0,2.4,0,4.8,0,7.2c0,0.6-0.1,1-0.8,1.1
			c-0.5,0.1-0.8-0.4-0.9-1.1C154.4,76.6,154.5,75.4,154.5,74.2z"/>
		<path class="st4" d="M178.1,72.9c0.9-1,1.6-1.2,2.5-0.7c0.4,0.2,0.6,0.5,0.5,0.9c-0.2,0.5-0.5,0.5-0.9,0.4
			c-1.3-0.4-1.7,0.1-1.9,1.3c-0.1,0.9,0,1.8-0.1,2.7c0,0.3,0,0.5-0.1,0.8c-0.1,0.4-0.6,0.7-1,0.5c-0.3-0.1-0.5-0.3-0.5-0.6
			c0-0.1-0.1-0.3-0.1-0.4c0-1.6,0-3.3,0-4.9c0-0.3,0.1-0.6,0.3-0.8C177.3,71.7,177.9,72,178.1,72.9z"/>
		<path class="st7" d="M98.5,84.3h88.7c0.4,0,0.8,0,1.2,0.1c0.8,0.2,1.2,0.8,1.2,1.6c0.1,0.8-0.5,1.4-1.2,1.6
			c-0.3,0.1-0.6,0.1-1,0.1H9.6c-1.4,0-2.1-0.5-2.2-1.6c0-0.9,0.4-1.5,1.3-1.7c0.3-0.1,0.7-0.1,1-0.1C39.4,84.3,69,84.3,98.5,84.3z"
			/>
	</g>
</g>
</svg>
