<svg xmlns="http://www.w3.org/2000/svg" viewBox="0 0 261.44 261.43"><defs><style>.cls-1{fill:#5c8ac7;}.cls-2{fill:#fff;}</style></defs><title>plus</title><g id="Capa_2" data-name="Capa 2"><g id="Capa_1-2" data-name="Capa 1"><circle class="cls-1" cx="130.72" cy="130.72" r="125.22"/><path class="cls-1" d="M130.72,261.43C58.64,261.43,0,202.79,0,130.72a130.72,130.72,0,0,1,261.44,0C261.44,202.79,202.8,261.43,130.72,261.43Zm0-250.43A119.72,119.72,0,1,0,250.44,130.72,119.86,119.86,0,0,0,130.72,11Z"/><path class="cls-2" d="M130.72,221.74a14.5,14.5,0,0,1-14.5-14.5V54.2a14.5,14.5,0,0,1,29,0v153A14.5,14.5,0,0,1,130.72,221.74Z"/><path class="cls-2" d="M207.24,145.22H54.2a14.5,14.5,0,0,1,0-29h153a14.5,14.5,0,0,1,0,29Z"/></g></g></svg>